<?xml version="1.0" encoding="UTF-8"?>
<svg xmlns="http://www.w3.org/2000/svg" width="1024" height="1024" viewBox="0 0 1024 1024" preserveAspectRatio="xMidYMid meet">
  <g id="centerline-shapes">
    <path id="path-1" d="M596.063 593.604 L598.131 597.028 L600.199 600.452 L602.267 603.876 L604.335 607.300 L606.403 610.724 L608.471 614.148 L610.539 617.572 L612.607 620.996 L614.675 624.420 L616.743 627.844 L618.811 631.268 L620.879 634.692 L622.947 638.116 L625.015 641.540 L627.083 644.964 L629.151 648.388 L631.219 651.812 L633.287 655.235 L635.355 658.659 L637.423 662.083 L639.491 665.507 L641.559 668.931 L643.627 672.355 L645.695 675.779 L647.763 679.203 L649.831 682.627 L651.899 686.051 L653.967 689.475 L656.035 692.899 L658.103 696.323 L660.171 699.747 L662.239 703.171 L664.307 706.595 L666.375 710.019 L668.443 713.443 L670.511 716.866 L672.579 720.290 L674.647 723.714 L676.715 727.138 L678.783 730.562 L680.851 733.986 L682.919 737.410 L684.987 740.834 L687.055 744.258 L689.123 747.682 L691.191 751.106 L693.259 754.530 L695.327 757.954 L697.395 761.378 L699.463 764.802 L701.531 768.226 L703.599 771.650 L705.667 775.074 L707.735 778.497 L709.803 781.921 L711.871 785.345 L713.939 788.769 L716.007 792.193 L718.075 795.617 L720.143 799.041 L722.211 802.465 L724.279 805.889 L726.347 809.313 L728.415 812.737 L730.483 816.161 L732.551 819.585 L734.491 823.076 L736.301 826.637 L737.979 830.268 L739.654 833.900 L741.329 837.533 L743.004 841.165 L744.679 844.798 L746.354 848.430 L748.028 852.063 L749.703 855.695 L751.378 859.328 L753.053 862.960 L754.198 866.708 L754.782 870.579 L754.124 874.376 L752.729 877.976 L750.374 881.162 L747.728 884.120 L744.813 886.856 L741.885 889.581 L738.957 892.307 L736.029 895.032 L733.044 897.682 L729.896 900.116 L726.583 902.333 L723.164 904.409 L719.745 906.484 L716.326 908.560 L712.907 910.636 L709.487 912.712 L706.068 914.788 L702.649 916.864 L699.230 918.939 L695.811 921.015 L692.391 923.091 L688.972 925.167 L685.553 927.243 L682.134 929.319 L678.715 931.394 L675.295 933.470 L671.876 935.546 L668.457 937.622 L665.038 939.698 L661.619 941.774 L658.199 943.849 L654.772 945.910 L651.292 947.875 L647.758 949.745 L644.181 951.534 L640.603 953.323 L637.025 955.112 L633.448 956.901 L629.870 958.690 L626.292 960.478 L622.715 962.267 L619.104 963.973 L615.411 965.474 L611.636 966.772 L607.813 967.948 L604.000 969.065 L600.406 968.977 L597.030 967.683 L593.861 965.242 L590.692 962.800 L587.524 960.359 L584.355 957.918 L581.505 955.191 L579.018 952.139 L576.895 948.762 L574.816 945.344 L572.737 941.927 L570.658 938.510 L568.579 935.093 L566.500 931.675 L564.421 928.258 L562.342 924.841 L560.263 921.423 L558.184 918.006 L556.105 914.589 L554.026 911.172 L551.947 907.754 L549.868 904.337 L547.789 900.920 L545.710 897.502 L543.631 894.085 L541.552 890.668 L539.473 887.251 L537.394 883.833 L535.315 880.416 L533.236 876.999 L531.157 873.581 L529.078 870.164 L526.999 866.747 L524.920 863.330 L522.841 859.912 L520.762 856.495 L518.683 853.078 L516.604 849.660 L514.525 846.243 L512.446 842.826 L510.367 839.409 L508.288 835.991 L506.209 832.574 L504.130 829.157 L502.051 825.739 L499.972 822.322 L497.893 818.905 L495.814 815.488 L493.736 812.070 L491.657 808.653 L489.578 805.236 L487.499 801.818 L485.420 798.401 L483.341 794.984 L481.262 791.567 L479.183 788.149 L477.104 784.732 L475.025 781.315 L472.946 777.897 L470.867 774.480 L468.788 771.063 L466.709 767.646 L464.630 764.228 L462.551 760.811 L460.472 757.394 L458.393 753.976 L456.314 750.559 L454.235 747.142 L452.156 743.725 L450.077 740.307 L447.998 736.890 L445.919 733.473 L443.840 730.055 L441.761 726.638 L439.682 723.221 L437.603 719.804 L435.524 716.386 L433.445 712.969 L431.366 709.552 L429.287 706.134 L427.208 702.717 L425.129 699.300 L423.050 695.883 L420.971 692.465 L418.892 689.048 L416.813 685.631 L414.734 682.213 L412.655 678.796 L410.576 675.379 L409.077 672.914 L408.156 671.401" stroke="#000000" stroke-width="70.00" fill="none" stroke-linecap="round" stroke-linejoin="round" />
    <path id="path-2" d="M188.240 841.233 L188.240 837.233 L188.240 833.233 L188.240 829.233 L188.240 825.233 L188.240 821.233 L188.240 817.233 L188.240 813.233 L188.240 809.233 L188.240 805.233 L188.240 801.233 L188.240 797.233 L188.240 793.233 L188.240 789.233 L188.240 785.233 L188.240 781.233 L188.240 777.233 L188.240 773.233 L188.240 769.233 L188.240 765.233 L188.240 761.233 L188.240 757.233 L188.240 753.233 L188.240 749.233 L188.240 745.233 L188.240 741.233 L188.240 737.233 L188.240 733.233 L188.240 729.233 L188.240 725.233 L188.240 721.233 L188.240 717.233 L188.240 713.233 L188.240 709.233 L188.240 705.233 L188.240 701.233 L188.240 697.233 L188.240 693.233 L188.240 689.233 L188.240 685.233 L188.240 681.233 L188.240 677.233 L188.240 673.233 L188.240 669.233 L188.240 665.233 L188.240 661.233 L188.240 657.233 L188.240 653.233 L188.240 649.233 L188.240 645.233 L188.240 641.233 L188.240 637.233 L188.240 633.233 L188.240 629.233 L188.240 625.233 L188.240 621.233 L188.240 617.233 L188.240 613.233 L188.240 609.233 L188.240 605.233 L188.240 601.233 L188.240 597.233 L188.240 593.233 L188.240 589.233 L188.240 585.233 L188.240 581.233 L188.240 577.233 L188.240 573.233 L188.240 569.233 L188.240 565.233 L188.240 561.233 L188.240 557.233 L188.240 553.233 L188.240 549.233 L188.240 545.233 L188.240 541.233 L188.240 537.233 L188.240 533.233 L188.240 529.233 L188.240 525.233 L188.240 521.233 L188.240 517.233 L188.240 513.233 L188.240 509.233 L188.240 505.233 L188.240 501.233 L188.240 497.233 L188.240 493.233 L188.240 489.233 L188.240 485.233 L188.240 481.233 L188.240 477.233 L188.240 473.233 L188.240 469.233 L188.240 465.233 L188.240 461.233 L188.240 457.233 L188.240 453.233 L188.240 449.233 L188.240 445.233 L188.240 441.233 L188.240 437.233 L188.240 433.233 L188.240 429.233 L188.240 425.233 L188.240 421.233 L188.240 417.233 L188.240 413.233 L188.240 409.233 L188.240 405.233 L188.240 401.233 L188.240 397.233 L188.240 393.233 L188.240 389.233 L188.240 385.233 L188.240 381.233 L188.240 377.233 L188.240 373.233 L188.240 369.233 L188.240 365.233 L188.240 361.233 L188.240 357.233 L188.240 353.233 L188.240 349.233 L188.240 345.233 L188.240 341.233 L188.240 337.233 L188.240 333.233 L188.240 329.233 L188.240 325.233 L188.240 321.233 L188.240 317.233 L188.240 313.233 L188.240 309.233 L188.240 305.233 L188.240 301.233 L188.240 297.233 L188.240 293.233 L188.240 289.233 L188.240 285.233 L188.240 281.233 L188.240 277.233 L188.240 273.233 L188.240 269.233 L188.240 265.233 L188.240 261.233 L188.240 257.233 L188.240 253.233 L188.240 249.233 L188.240 245.233 L188.240 241.233 L188.240 237.233 L188.240 233.233 L188.240 229.233 L188.240 225.233 L188.240 221.233 L188.240 217.233 L188.240 213.233 L188.240 209.233 L188.240 205.233 L188.240 201.233 L188.240 197.233 L188.240 193.233 L188.240 189.233 L188.240 185.233 L188.240 181.233 L188.240 177.233 L188.240 173.233 L188.240 169.233 L188.240 165.233 L188.240 161.233 L188.240 157.233 L188.240 153.233 L188.240 149.233 L188.240 145.233 L188.240 141.233 L188.240 137.233 L188.240 133.233 L188.240 129.233 L188.240 125.233 L188.240 121.233 L188.240 117.233 L188.240 113.233 L188.240 109.233 L188.240 105.233 L188.240 101.233 L188.240 97.233 L188.240 93.233 L188.240 89.233 L188.240 85.233 L188.240 81.233 L188.240 77.233 L188.240 73.233 L188.240 69.233 L188.240 65.233 L188.240 61.233 L188.240 57.681 L188.240 54.576" stroke="#000000" stroke-width="70.00" fill="none" stroke-linecap="round" stroke-linejoin="round" />
    <path id="path-3" d="M191.967 54.576 L195.618 56.211 L199.269 57.846 L202.919 59.481 L206.570 61.116 L210.221 62.751 L213.871 64.386 L217.522 66.020 L221.173 67.655 L224.823 69.290 L228.474 70.925 L232.124 72.560 L235.775 74.195 L239.370 75.936 L242.887 77.825 L246.326 79.863 L249.743 81.942 L253.160 84.021 L256.577 86.101 L259.994 88.180 L263.411 90.259 L266.828 92.339 L270.246 94.418 L273.663 96.497 L277.080 98.577 L280.486 100.674 L283.868 102.807 L287.228 104.978 L290.575 107.168 L293.922 109.359 L297.269 111.549 L300.616 113.739 L303.963 115.929 L307.310 118.119 L310.657 120.310 L314.004 122.500 L317.351 124.690 L320.699 126.880 L324.046 129.070 L327.393 131.261 L330.740 133.451 L334.087 135.641 L337.434 137.831 L340.781 140.021 L344.128 142.211 L347.475 144.402 L350.822 146.592 L354.170 148.782 L357.517 150.972 L360.864 153.162 L364.211 155.353 L367.558 157.543 L370.905 159.733 L374.252 161.923 L377.599 164.113 L380.946 166.303 L384.293 168.494 L387.641 170.684 L390.988 172.874 L394.335 175.064 L397.682 177.254 L401.029 179.445 L404.376 181.635 L407.723 183.825 L411.070 186.015 L414.417 188.205 L417.764 190.396 L421.112 192.586 L424.459 194.776 L427.806 196.966 L431.153 199.156 L434.500 201.346 L437.847 203.537 L441.194 205.727 L444.541 207.917 L447.888 210.107 L451.235 212.297 L454.583 214.488 L457.930 216.678 L461.277 218.868 L464.624 221.058 L467.971 223.248 L471.318 225.439 L474.665 227.629 L478.012 229.819 L481.359 232.009 L484.707 234.199 L488.054 236.389 L491.401 238.580 L494.748 240.770 L498.095 242.960 L501.442 245.150 L504.789 247.340 L508.136 249.531 L511.483 251.721 L514.830 253.911 L518.178 256.101 L521.525 258.291 L524.872 260.482 L528.219 262.672 L531.566 264.862 L534.913 267.052 L538.260 269.242 L541.607 271.432 L544.954 273.623 L548.301 275.813 L551.649 278.003 L554.996 280.193 L558.343 282.383 L561.690 284.574 L565.037 286.764 L568.384 288.954 L571.731 291.144 L575.078 293.334 L578.425 295.525 L581.772 297.715 L585.120 299.905 L588.467 302.095 L591.814 304.285 L595.161 306.475 L598.508 308.666 L601.855 310.856 L605.202 313.046 L608.549 315.236 L611.896 317.426 L615.243 319.617 L618.591 321.807 L621.938 323.997 L625.285 326.187 L628.632 328.377 L631.979 330.567 L635.326 332.758 L638.673 334.948 L642.020 337.138 L645.367 339.328 L648.714 341.518 L652.062 343.709 L655.409 345.899 L658.756 348.089 L662.103 350.279 L665.450 352.469 L668.797 354.660 L672.144 356.850 L675.491 359.040 L678.838 361.230 L682.185 363.420 L685.533 365.610 L688.880 367.801 L692.227 369.991 L695.574 372.181 L698.921 374.371 L702.268 376.561 L705.615 378.752 L708.962 380.942 L712.309 383.132 L715.656 385.322 L719.004 387.512 L722.351 389.703 L725.698 391.893 L729.045 394.083 L732.392 396.273 L735.739 398.463 L739.086 400.653 L742.433 402.844 L745.780 405.034 L749.127 407.224 L752.475 409.414 L755.822 411.604 L759.169 413.795 L762.516 415.985 L765.863 418.175 L769.210 420.365 L772.557 422.555 L775.904 424.746 L779.251 426.936 L782.593 429.134 L785.878 431.411 L789.108 433.768 L792.288 436.194 L795.468 438.621 L798.648 441.047 L801.828 443.474 L805.007 445.900 L808.187 448.327 L811.367 450.753 L814.547 453.180 L817.727 455.606 L820.907 458.033 L824.087 460.460 L827.267 462.886 L830.447 465.313 L832.936 467.213 L834.736 468.586" stroke="#000000" stroke-width="70.00" fill="none" stroke-linecap="round" stroke-linejoin="round" />
    <path id="path-4" d="M834.736 468.586 L831.026 470.080 L827.315 471.574 L823.605 473.069 L819.894 474.563 L816.184 476.057 L812.474 477.551 L808.763 479.046 L805.053 480.540 L801.342 482.034 L797.632 483.529 L793.922 485.023 L790.211 486.517 L786.501 488.011 L782.790 489.506 L779.080 491.000 L775.369 492.494 L771.659 493.989 L767.949 495.483 L764.238 496.977 L760.528 498.471 L756.817 499.966 L753.107 501.460 L749.397 502.954 L745.686 504.449 L741.976 505.943 L738.265 507.437 L734.555 508.931 L730.845 510.426 L727.134 511.920 L723.424 513.414 L719.713 514.909 L716.003 516.403 L712.293 517.897 L708.582 519.391 L704.872 520.886 L701.161 522.380 L697.451 523.874 L693.741 525.369 L690.030 526.863 L686.320 528.357 L682.609 529.851 L678.899 531.346 L675.189 532.840 L671.478 534.334 L667.768 535.829 L664.057 537.323 L660.347 538.817 L656.636 540.311 L652.926 541.806 L649.216 543.300 L645.505 544.794 L641.795 546.288 L638.084 547.783 L634.374 549.277 L630.664 550.771 L626.953 552.266 L623.243 553.760 L619.532 555.254 L615.897 556.897 L612.368 558.748 L608.945 560.807 L605.552 562.925 L602.287 565.161 L599.543 567.877 L597.399 571.090 L596.282 574.814 L595.798 578.684 L595.869 582.683 L595.940 586.683 L596.005 590.323 L596.063 593.604" stroke="#000000" stroke-width="70.00" fill="none" stroke-linecap="round" stroke-linejoin="round" />
    <path id="path-5" d="M408.156 671.401 L405.091 673.970 L402.025 676.540 L398.960 679.109 L395.894 681.679 L392.828 684.249 L389.763 686.818 L386.697 689.388 L383.632 691.957 L380.566 694.527 L377.501 697.096 L374.435 699.666 L371.370 702.235 L368.304 704.805 L365.239 707.374 L362.173 709.944 L359.107 712.513 L356.042 715.083 L352.976 717.652 L349.911 720.222 L346.845 722.791 L343.780 725.361 L340.714 727.930 L337.649 730.500 L334.583 733.069 L331.518 735.639 L328.452 738.209 L325.387 740.778 L322.321 743.348 L319.255 745.917 L316.190 748.487 L313.124 751.056 L310.059 753.626 L306.993 756.195 L303.928 758.765 L300.862 761.334 L297.797 763.904 L294.731 766.473 L291.666 769.043 L288.600 771.612 L285.534 774.182 L282.469 776.751 L279.403 779.321 L276.338 781.890 L273.272 784.460 L270.207 787.029 L267.141 789.599 L264.076 792.169 L261.010 794.738 L257.945 797.308 L254.879 799.877 L251.813 802.447 L248.748 805.016 L245.682 807.586 L242.538 810.045 L239.276 812.341 L235.898 814.475 L232.482 816.555 L229.065 818.636 L225.649 820.717 L222.233 822.798 L218.817 824.878 L215.401 826.959 L211.984 829.040 L208.568 831.121 L205.152 833.201 L201.736 835.282 L198.319 837.363 L195.062 839.347 L191.964 841.233" stroke="#000000" stroke-width="70.00" fill="none" stroke-linecap="round" stroke-linejoin="round" />
  </g>
</svg>
