<?xml version="1.0" encoding="UTF-8"?>
<svg xmlns="http://www.w3.org/2000/svg" width="1024" height="1024" viewBox="0 0 1024 1024" preserveAspectRatio="xMidYMid meet">
  <g id="centerline-shapes">
    <path id="path-1" d="M260.462 600.475 L261.109 596.528 L261.756 592.581 L262.402 588.633 L263.049 584.686 L263.696 580.739 L264.342 576.791 L264.989 572.844 L265.636 568.896 L266.282 564.949 L266.929 561.002 L267.576 557.054 L268.222 553.107 L269.257 549.324 L271.033 545.998 L273.834 543.500 L277.273 541.666 L280.850 539.949 L284.229 537.890 L287.409 535.488 L290.538 532.997 L293.668 530.505 L296.797 528.013 L299.834 525.432 L302.630 522.617 L305.185 519.566 L307.588 516.368 L309.991 513.171 L312.395 509.974 L314.798 506.776 L317.202 503.579 L319.605 500.381 L322.008 497.184 L324.412 493.986 L326.815 490.789 L329.219 487.591 L331.622 484.394 L334.025 481.197 L336.429 477.999 L338.951 474.905 L341.615 471.934 L344.420 469.085 L347.249 466.257 L350.077 463.428 L352.906 460.600 L355.807 457.860 L358.871 455.316 L362.096 452.969 L365.410 450.728 L368.723 448.488 L372.037 446.248 L375.351 444.008 L378.665 441.768 L381.979 439.528 L385.293 437.287 L388.607 435.047 L391.920 432.807 L395.234 430.567 L398.548 428.327 L401.862 426.087 L405.176 423.847 L408.490 421.606 L411.933 419.617 L415.519 417.901 L419.247 416.458 L422.987 415.040 L426.727 413.621 L430.467 412.202 L434.207 410.783 L437.947 409.365 L441.687 407.946 L445.431 406.543 L449.228 405.309 L453.076 404.244 L456.970 403.333 L460.865 402.421 L464.760 401.510 L468.655 400.598 L472.560 399.754 L476.496 399.116 L480.464 398.685 L484.454 398.393 L488.443 398.101 L492.432 397.809 L496.422 397.517 L500.411 397.226 L504.400 396.934 L508.390 396.642 L512.379 396.350 L516.368 396.058 L520.357 395.788 L524.341 395.771 L528.318 396.007 L532.291 396.474 L536.264 396.941 L540.236 397.407 L544.209 397.874 L548.182 398.341 L552.154 398.807 L556.127 399.274 L560.100 399.741 L564.073 400.207 L568.045 400.674 L572.018 401.141 L575.991 401.607 L579.963 402.074 L583.936 402.540 L587.858 403.234 L591.721 404.193 L595.526 405.416 L599.321 406.678 L603.117 407.940 L606.913 409.202 L610.708 410.464 L614.504 411.726 L618.300 412.988 L622.095 414.251 L625.891 415.513 L629.687 416.775 L633.483 418.037 L637.239 419.382 L640.869 421.002 L644.372 422.894 L647.787 424.977 L651.202 427.060 L654.617 429.143 L658.032 431.225 L661.447 433.308 L664.862 435.391 L668.277 437.474 L671.692 439.556 L675.107 441.639 L678.522 443.722 L681.789 445.994 L684.860 448.514 L687.735 451.282 L690.564 454.111 L693.392 456.939 L696.220 459.768 L699.049 462.596 L701.877 465.424 L704.706 468.253 L707.534 471.081 L710.363 473.910 L713.191 476.738 L716.019 479.567 L718.680 482.528 L721.101 485.679 L723.284 489.021 L725.394 492.419 L727.504 495.817 L729.615 499.215 L731.725 502.613 L733.835 506.011 L735.946 509.409 L738.056 512.807 L740.166 516.205 L742.277 519.603 L744.387 523.001 L746.310 526.492 L748.011 530.094 L749.491 533.807 L750.937 537.536 L752.383 541.266 L753.829 544.995 L755.275 548.725 L756.721 552.454 L758.167 556.184 L759.613 559.913 L761.059 563.643 L762.505 567.372 L763.951 571.102 L765.397 574.831 L766.773 578.580 L767.890 582.400 L768.749 586.292 L769.420 590.235 L770.090 594.178 L770.761 598.122 L771.432 602.065 L772.103 606.009 L772.773 609.952 L773.444 613.895 L774.115 617.839 L774.786 621.782 L775.456 625.725 L776.127 629.669 L776.798 633.612 L777.469 637.555 L778.139 641.499 L778.810 645.442 L779.481 649.386 L779.957 653.345 L780.210 657.324 L780.239 661.321 L780.239 665.321 L780.239 669.321 L780.239 673.321 L780.239 677.321 L780.239 681.321 L780.239 685.321 L780.239 689.321 L780.239 693.321 L780.239 697.321 L780.239 701.321 L780.239 705.321 L780.239 709.321 L780.239 713.321 L780.239 717.321 L780.239 721.321 L780.239 725.321 L780.167 729.315 L779.845 733.284 L779.273 737.230 L778.525 741.160 L777.777 745.089 L777.029 749.019 L776.280 752.948 L775.532 756.877 L774.784 760.807 L774.036 764.736 L773.188 768.638 L772.132 772.483 L770.867 776.269 L769.494 780.026 L768.120 783.783 L766.746 787.539 L765.372 791.296 L763.998 795.052 L762.624 798.809 L761.250 802.566 L759.876 806.322 L758.502 810.079 L757.128 813.835 L755.754 817.592 L754.380 821.349 L753.006 825.105 L751.547 828.822 L749.880 832.442 L748.006 835.966 L746.009 839.431 L744.012 842.897 L742.015 846.363 L740.018 849.829 L738.021 853.295 L736.024 856.761 L734.027 860.226 L732.030 863.692 L730.033 867.158 L728.036 870.624 L726.039 874.090 L724.042 877.556 L722.045 881.022 L720.048 884.487 L718.051 887.953 L715.811 891.235 L713.306 894.316 L710.535 897.196 L707.742 900.060 L704.950 902.924 L702.157 905.788 L699.365 908.652 L696.572 911.515 L693.779 914.379 L690.987 917.243 L688.194 920.107 L685.402 922.971 L682.609 925.835 L679.817 928.698 L676.851 931.349 L673.691 933.760 L670.335 935.930 L666.958 938.073 L663.580 940.215 L660.202 942.358 L656.824 944.501 L653.447 946.643 L649.987 948.630 L646.426 950.421 L642.761 952.016 L639.076 953.572 L635.391 955.127 L631.705 956.682 L628.020 958.238 L624.335 959.793 L620.650 961.348 L616.965 962.903 L613.279 964.459 L609.594 966.014 L605.860 967.403 L602.040 968.498 L598.135 969.300 L594.192 969.976 L590.250 970.652 L586.307 971.328 L582.365 972.004 L578.422 972.679 L574.480 973.355 L570.537 974.031 L566.595 974.707 L562.652 975.383 L558.693 975.804 L554.715 975.950 L550.719 975.822 L546.722 975.674 L542.725 975.527 L538.727 975.379 L534.730 975.231 L530.733 975.083 L526.736 974.936 L522.738 974.788 L518.741 974.640 L514.744 974.492 L510.746 974.345 L506.749 974.197 L502.752 974.049 L498.755 973.901 L494.757 973.754 L490.760 973.606 L486.763 973.458 L482.778 973.205 L478.815 972.749 L474.876 972.091 L470.948 971.335 L467.020 970.580 L463.092 969.824 L459.164 969.068 L455.236 968.313 L451.309 967.557 L447.381 966.802 L443.453 966.046 L439.525 965.290 L435.607 964.499 L431.755 963.478 L427.969 962.228 L424.239 960.784 L420.509 959.340 L416.778 957.896 L413.048 956.452 L409.318 955.007 L405.588 953.563 L401.858 952.119 L398.155 950.616 L394.518 948.967 L390.948 947.173 L387.418 945.292 L383.887 943.412 L380.357 941.532 L376.826 939.651 L373.296 937.771 L369.866 935.732 L366.548 933.519 L363.341 931.130 L360.145 928.725 L356.949 926.320 L353.753 923.915 L350.557 921.509 L347.361 919.104 L344.165 916.699 L341.112 914.139 L338.240 911.382 L335.551 908.429 L332.900 905.433 L330.250 902.437 L327.599 899.441 L324.948 896.446 L322.298 893.450 L319.647 890.454 L316.997 887.458 L314.346 884.463 L311.696 881.467 L309.216 878.352 L306.986 875.062 L305.005 871.599 L303.103 868.080 L301.200 864.561 L299.298 861.042 L297.396 857.523 L295.494 854.005 L293.592 850.486 L291.690 846.967 L289.787 843.448 L287.885 839.930 L285.983 836.411 L284.252 832.815 L282.693 829.141 L281.304 825.389 L279.917 821.638 L278.529 817.886 L277.141 814.135 L275.754 810.383 L274.366 806.631 L272.978 802.880 L271.721 799.090 L270.638 795.249 L269.728 791.357 L268.863 787.451 L267.998 783.546 L267.133 779.641 L266.268 775.735 L265.403 771.830 L264.593 767.915 L263.903 763.979 L263.333 760.022 L262.827 756.055 L262.321 752.087 L261.816 748.119 L261.310 744.151 L260.805 740.183 L260.299 736.215 L259.794 732.247 L259.288 728.279 L258.783 724.311 L258.277 720.343 L257.771 716.375 L257.266 712.407 L256.760 708.440 L256.255 704.472 L255.749 700.504 L255.244 696.536 L254.738 692.568 L254.233 688.600 L253.727 684.632 L253.221 680.664 L252.738 676.695 L252.495 672.718 L252.494 668.732 L252.711 664.738 L252.928 660.743 L253.145 656.749 L253.361 652.755 L253.578 648.761 L253.804 644.768 L254.176 640.791 L254.695 636.830 L255.353 632.885 L256.010 628.939 L256.668 624.993 L257.325 621.048 L257.983 617.102 L258.641 613.157 L259.298 609.211 L259.956 605.265 L260.613 601.320 L261.271 597.374 L261.929 593.429 L262.586 589.483 L263.244 585.538 L263.901 581.592 L264.559 577.646 L265.217 573.701 L265.874 569.755 L266.532 565.810 L267.189 561.864 L267.847 557.919 L268.505 553.973 L269.162 550.027 L269.295 546.140 L268.707 542.333 L267.395 538.607 L265.886 534.903 L264.377 531.198 L262.868 527.494 L261.359 523.789 L260.069 520.625 L259.000 518.000" stroke="#000000" stroke-width="65.00" fill="none" stroke-linecap="round" stroke-linejoin="round" />
    <path id="path-2" d="M259.000 518.000 L257.542 514.275 L256.085 510.550 L254.627 506.825 L253.170 503.100 L251.712 499.375 L250.700 495.575 L250.228 491.685 L250.297 487.704 L250.459 483.708 L250.622 479.711 L250.784 475.714 L250.947 471.717 L251.109 467.721 L251.272 463.724 L251.435 459.727 L251.597 455.731 L251.760 451.734 L251.922 447.737 L252.085 443.741 L252.247 439.744 L252.410 435.747 L252.572 431.750 L252.735 427.754 L252.897 423.757 L253.060 419.760 L253.223 415.764 L253.474 411.774 L253.818 407.791 L254.254 403.815 L254.694 399.839 L255.134 395.863 L255.573 391.887 L256.013 387.912 L256.453 383.936 L256.893 379.960 L257.332 375.984 L257.772 372.009 L258.212 368.033 L258.651 364.057 L259.091 360.081 L259.531 356.106 L259.971 352.130 L260.410 348.154 L260.931 344.192 L261.613 340.259 L262.457 336.353 L263.383 332.462 L264.309 328.570 L265.235 324.679 L266.161 320.788 L267.087 316.896 L268.013 313.005 L268.939 309.114 L269.865 305.222 L270.791 301.331 L271.717 297.440 L272.642 293.548 L273.568 289.657 L274.494 285.765 L275.420 281.874 L276.346 277.983 L277.272 274.091 L278.198 270.200 L279.251 266.347 L280.449 262.537 L281.792 258.770 L283.153 255.009 L284.514 251.247 L285.876 247.486 L287.237 243.725 L288.598 239.964 L289.991 236.216 L291.558 232.547 L293.300 228.955 L295.185 225.427 L297.071 221.900 L298.956 218.372 L300.841 214.844 L302.727 211.316 L304.612 207.788 L306.497 204.260 L308.383 200.733 L310.268 197.205 L312.153 193.677 L314.039 190.149 L315.924 186.621 L317.869 183.134 L320.045 179.803 L322.452 176.629 L325.031 173.572 L327.610 170.514 L330.189 167.457 L332.768 164.399 L335.347 161.341 L337.926 158.284 L340.505 155.226 L343.084 152.169 L345.664 149.111 L348.243 146.054 L350.822 142.996 L353.401 139.939 L355.980 136.881 L358.559 133.824 L361.172 130.802 L363.987 127.993 L367.005 125.398 L370.192 122.980 L373.378 120.562 L376.565 118.144 L379.751 115.726 L382.938 113.309 L386.124 110.891 L389.311 108.473 L392.497 106.055 L395.684 103.637 L398.870 101.219 L402.057 98.802 L405.346 96.543 L408.746 94.457 L412.257 92.542 L415.776 90.639 L419.294 88.737 L422.813 86.835 L426.332 84.932 L429.850 83.030 L433.369 81.128 L436.888 79.225 L440.406 77.323 L443.925 75.420 L447.444 73.518 L450.962 71.616 L454.481 69.713 L458.058 67.948 L461.730 66.402 L465.497 65.077 L469.299 63.835 L473.101 62.593 L476.903 61.351 L480.706 60.109 L484.508 58.867 L488.310 57.624 L492.113 56.382 L495.915 55.140 L499.717 53.898 L503.561 52.841 L507.460 52.036 L511.415 51.482 L515.386 50.994 L519.356 50.507 L523.326 50.020 L527.296 49.532 L531.266 49.045 L535.237 48.558 L539.207 48.070 L543.177 47.583 L547.147 47.096 L551.118 46.853 L555.091 46.925 L559.064 47.312 L563.038 47.769 L567.012 48.226 L570.986 48.683 L574.960 49.140 L578.933 49.597 L582.907 50.054 L586.881 50.511 L590.855 50.968 L594.829 51.424 L598.757 52.069 L602.605 53.037 L606.375 54.329 L610.111 55.759 L613.847 57.188 L617.582 58.617 L621.318 60.047 L625.054 61.476 L628.790 62.905 L632.526 64.335 L636.262 65.764 L639.998 67.193 L643.734 68.623 L647.470 70.052 L651.143 71.602 L654.681 73.415 L658.082 75.493 L661.409 77.713 L664.736 79.934 L668.063 82.154 L671.390 84.375 L674.717 86.595 L678.044 88.816 L681.371 91.036 L684.698 93.257 L688.025 95.477 L691.352 97.698 L694.617 99.994 L697.716 102.493 L700.648 105.195 L703.476 108.024 L706.305 110.852 L709.133 113.680 L711.962 116.509 L714.790 119.337 L717.619 122.166 L720.447 124.994 L723.275 127.823 L726.104 130.651 L728.932 133.479 L731.761 136.308 L734.589 139.136 L737.417 141.965 L740.225 144.811 L742.880 147.789 L745.381 150.898 L747.749 154.122 L750.118 157.345 L752.486 160.569 L754.854 163.792 L757.223 167.015 L759.375 170.343 L761.089 173.883 L762.103 176.677 L762.634 178.621" stroke="#000000" stroke-width="65.00" fill="none" stroke-linecap="round" stroke-linejoin="round" />
  </g>
</svg>
