<?xml version="1.0" encoding="UTF-8"?>
<svg xmlns="http://www.w3.org/2000/svg" width="1024" height="1024" viewBox="0 0 1024 1024" preserveAspectRatio="none"> <g id="skeleton-shapes"> <path id="path-1-1" d="M267.157 463.584L267.157 461.829L267.157 460.116L267.157 458.434L267.157 456.774L267.157 453.209L267.157 449.824L267.157 446.511L267.157 443.294L267.157 440.127L267.157 437.041L267.157 433.926L267.157 430.803L267.157 427.680L267.157 424.557L267.157 421.434L267.157 418.311L267.157 415.189L267.157 412.066L267.157 408.943L267.157 405.820L267.157 402.697L267.157 399.574L267.157 396.451L267.157 393.328L267.157 390.205L267.157 387.082L267.157 383.959L267.157 380.836L267.157 377.713L267.157 374.590L267.157 371.467L267.157 368.344L267.157 365.221L267.157 362.098L267.157 358.975L267.157 355.852L267.157 352.730L267.157 349.607L267.157 346.484L267.157 343.361L267.157 340.238L267.157 337.115L267.157 333.992L267.157 330.869L267.157 327.746L267.157 324.623L267.157 321.500L267.157 318.377L267.157 315.254L267.157 312.131L267.157 309.008L267.157 305.885L267.157 302.762L267.157 299.639L267.157 296.516L267.157 293.393L267.157 290.270L267.157 287.148L267.157 284.025L267.157 280.902L267.157 277.779L267.157 274.656L267.157 271.533L267.157 268.410L267.157 265.287L267.157 262.164L267.157 259.041L267.157 255.918L267.157 252.795L267.157 249.672L267.157 246.549L267.157 243.426L267.157 240.303L267.157 237.180L267.157 234.057L267.157 230.934L267.157 227.811L267.157 224.689L267.157 221.566L267.157 218.443L267.157 215.320L267.157 212.197L267.157 209.074L267.157 205.951L267.157 202.828L267.157 199.705L267.157 196.582L267.157 193.459L267.157 190.336L267.157 187.213L267.157 184.090L267.157 180.967L267.157 177.844L267.157 174.721L267.157 171.598L267.157 168.475L267.157 165.352L267.157 162.230L267.157 159.107L267.157 155.984L267.157 152.861L267.157 149.738L267.157 146.615L267.157 143.492L267.157 140.369L267.157 137.246L267.157 134.123L267.157 131L267.157 127.877L267.157 124.754L267.157 121.631L267.157 118.508L267.157 115.385L267.157 112.262L267.157 109.139L267.157 106.016L267.157 102.893L267.157 99.770L267.157 96.648L267.157 93.525L267.157 90.402L267.157 87.279L267.157 84.156L267.157 81.033L267.157 77.910L267.157 74.787L267.157 71.664L267.157 68.541L267.157 65.418L267.157 62.295L267.157 59.172L267.157 56.049L267.157 52.926L267.157 49.803L267.157 46.680L267.157 43.557L267.157 41.996L267.157 40.434L267.157 38.873L267.157 37.311" stroke="#000000" stroke-width="45" fill="none" stroke-linecap="round" stroke-linejoin="round" /> <path id="path-2-1" d="M267.157 535.684L267.157 537.408L267.157 539.096L267.157 540.759L267.157 542.403L267.157 545.904L267.157 549.290L267.157 552.543L267.157 555.745L267.157 558.907L267.157 561.975L267.157 565.090L267.157 568.213L267.157 571.336L267.157 574.459L267.157 577.582L267.157 580.705L267.157 583.828L267.157 586.951L267.157 590.074L267.157 593.197L267.157 596.320L267.157 599.443L267.157 602.566L267.157 605.689L267.157 608.811L267.157 611.934L267.157 615.057L267.157 618.180L267.157 621.303L267.157 624.426L267.157 627.549L267.157 630.672L267.157 633.795L267.157 636.918L267.157 640.041L267.157 643.164L267.157 646.287L267.157 649.410L267.157 652.533L267.157 655.656L267.157 658.779L267.157 661.902L267.157 665.025L267.157 668.148L267.157 671.270L267.157 674.393L267.157 677.516L267.157 680.639L267.157 683.762L267.157 686.885L267.157 690.008L267.157 693.131L267.157 696.254L267.157 699.377L267.157 702.500L267.157 705.623L267.157 708.746L267.157 711.869L267.157 714.992L267.157 718.115L267.157 721.238L267.157 724.361L267.157 727.484L267.157 730.607L267.157 733.730L267.157 736.852L267.157 739.975L267.157 743.098L267.157 746.221L267.157 749.344L267.157 752.467L267.157 755.590L267.157 758.713L267.157 761.836L267.157 764.959L267.157 768.082L267.157 771.205L267.157 774.328L267.157 777.451L267.157 780.574L267.157 783.697L267.157 786.820L267.157 789.943L267.157 793.066L267.157 796.189L267.157 799.311L267.157 802.434L267.157 805.557L267.157 808.680L267.157 811.803L267.157 814.926L267.157 818.049L267.157 821.172L267.157 824.295L267.157 827.418L267.157 830.541L267.157 833.664L267.157 836.787L267.157 839.910L267.157 843.033L267.157 846.156L267.157 849.279L267.157 852.402L267.157 855.525L267.157 858.648L267.157 861.770L267.157 864.893L267.157 868.016L267.157 871.139L267.157 874.262L267.157 877.385L267.157 880.508L267.157 883.631L267.157 886.754L267.157 889.877L267.157 893L267.157 896.123L267.157 899.246L267.157 902.369L267.157 905.492L267.157 908.615L267.157 911.738L267.157 914.861L267.157 917.984L267.157 921.107L267.157 924.230L267.157 927.352L267.157 930.475L267.157 933.598L267.157 936.721L267.157 939.844L267.157 942.967L267.157 946.090L267.157 949.213L267.157 952.336L267.157 955.459L267.157 958.582L267.157 961.705L267.157 964.828L267.157 967.951L267.157 971.074L267.157 974.197L267.157 977.320L267.157 980.443L267.157 982.004L267.157 983.566L267.157 985.127L267.157 986.689" stroke="#000000" stroke-width="45" fill="none" stroke-linecap="round" stroke-linejoin="round" /> <path id="path-4-1" d="M329.277 482.210L330.848 481.233L332.386 480.273L333.900 479.324L333.900 479.324L335.440 478.395L337.020 477.431L338.576 476.457" stroke="#000000" stroke-width="45" fill="none" stroke-linecap="round" stroke-linejoin="round" /> <path id="path-5-1" d="M365.674 459.099L365.674 459.099L365.674 459.099L373.816 453.872" stroke="#000000" stroke-width="45" fill="none" stroke-linecap="round" stroke-linejoin="round" /> <path id="path-6-1" d="M407.186 497.164L408.357 498.780L409.528 500.398L410.686 501.998L411.833 503.584L414.135 506.754L416.465 509.974L418.749 513.136L421.056 516.329L423.319 519.462L425.580 522.594L427.842 525.725L430.103 528.856L432.351 531.968L434.611 535.097L436.871 538.228L439.134 541.360L441.377 544.467L443.618 547.570L445.865 550.680L448.125 553.810L450.386 556.940L452.648 560.073L454.891 563.179L457.132 566.282L459.379 569.393L461.639 572.522L463.899 575.652L466.160 578.783L468.423 581.915L470.665 585.020L472.912 588.131L475.172 591.260L477.432 594.389L479.693 597.520L481.956 600.653L484.198 603.758L486.446 606.870L488.693 609.981L490.952 613.110L493.213 616.240L495.476 619.373L497.718 622.477L499.965 625.589L502.213 628.701L504.472 631.829L506.733 634.959L508.995 638.092L511.236 641.195L513.497 644.325L515.745 647.438L518.005 650.567L520.265 653.697L522.528 656.829L524.769 659.933L527.029 663.063L529.277 666.175L531.537 669.304L533.798 672.435L536.060 675.567L538.302 678.671L540.562 681.801L542.810 684.913L545.070 688.042L547.331 691.172L549.594 694.306L551.837 697.411L554.077 700.514L556.324 703.625L558.575 706.741L560.836 709.872L563.099 713.005L565.341 716.111L567.582 719.213L569.829 722.324L572.080 725.441L574.340 728.570L576.601 731.701L578.864 734.835L581.106 737.939L583.363 741.064L585.602 744.164L587.853 747.280L590.114 750.411L592.377 753.544L594.618 756.648L596.875 759.773L599.115 762.874L601.365 765.990L603.626 769.120L605.889 772.253L608.129 775.355L610.398 778.497L612.647 781.611L614.898 784.727L617.159 787.858L619.422 790.991L621.662 794.093L623.931 797.234L626.180 800.348L628.431 803.465L630.692 806.596L632.954 809.728L635.194 812.830L637.462 815.970L639.722 819.100L641.983 822.231L644.245 825.362L646.507 828.494L648.747 831.597L651.015 834.736L653.275 837.866L655.536 840.997L657.797 844.128L660.060 847.261L662.302 850.365L664.558 853.488L666.809 856.605L669.069 859.734L671.330 862.865L673.591 865.996L675.852 869.127L678.110 872.252L680.369 875.381L682.629 878.511L684.890 881.641L687.152 884.772L689.413 887.903L691.670 891.028L693.930 894.157L696.191 897.288L698.453 900.420L700.694 903.524L702.955 906.654L705.203 909.766L707.463 912.895L709.723 916.026L711.986 919.158L714.227 922.262L716.487 925.391L718.736 928.504L720.995 931.633L723.256 934.763L725.518 937.896L727.760 941L730.020 944.129L732.268 947.242L734.528 950.371L736.789 953.501L739.052 956.634L741.296 959.741L743.541 962.850L745.751 965.910L747.960 968.968L750.176 972.038L752.433 975.136L753.542 976.669L754.652 978.204L755.749 979.718L756.843 981.228" stroke="#000000" stroke-width="45" fill="none" stroke-linecap="round" stroke-linejoin="round" /> <path id="path-7-1" d="M413.131 428.565L414.831 427.467L416.503 426.389L418.156 425.323L419.797 424.268L423.114 422.117L426.424 419.981L429.676 417.892L432.892 415.831L436.056 413.803L439.221 411.775L442.335 409.780L445.450 407.784L448.567 405.787L451.684 403.790L454.800 401.793L457.917 399.797L461.036 397.799L464.158 395.799L467.313 393.778L470.430 391.781L473.546 389.784L476.663 387.788L479.779 385.791L482.896 383.794L486.013 381.798L489.129 379.801L492.246 377.804L495.363 375.807L498.482 373.810L501.603 371.810L504.758 369.789L507.875 367.792L510.992 365.795L514.108 363.798L517.225 361.802L520.342 359.805L523.459 357.808L526.575 355.812L529.692 353.815L532.809 351.818L535.927 349.820L539.049 347.821L542.204 345.800L545.321 343.802L548.438 341.806L551.554 339.809L554.671 337.812L557.788 335.816L560.904 333.819L564.021 331.822L567.138 329.826L570.255 327.829L573.373 325.831L576.496 323.831L579.655 321.808L582.810 319.786L585.926 317.789L589.043 315.792L592.160 313.796L595.276 311.799L598.393 309.802L601.510 307.805L604.627 305.809L607.743 303.812L610.860 301.815L613.978 299.818L617.101 297.818L620.262 295.793L623.421 293.770L626.576 291.748L629.692 289.751L632.808 287.755L635.925 285.758L639.041 283.761L642.158 281.765L645.275 279.768L648.392 277.771L651.508 275.774L654.625 273.778L657.744 271.780L660.867 269.780L664.029 267.755L667.188 265.731L670.341 263.710L673.457 261.714L676.573 259.717L679.690 257.720L682.805 255.724L685.919 253.729L688.994 251.758L692.067 249.789L695.139 247.822L698.249 245.805L699.777 244.823L701.299 243.845L702.859 242.843L704.413 241.842" stroke="#000000" stroke-width="45" fill="none" stroke-linecap="round" stroke-linejoin="round" /> <path id="path-1000-1" d="M267.157 463.584L267.157 520.826" stroke="#000000" stroke-width="45" fill="none" stroke-linecap="round" stroke-linejoin="round" /> <path id="path-1001-1" d="M267.157 535.684L267.157 520.826" stroke="#000000" stroke-width="45" fill="none" stroke-linecap="round" stroke-linejoin="round" /> <path id="path-1002-1" d="M329.277 482.210L267.157 520.826" stroke="#000000" stroke-width="45" fill="none" stroke-linecap="round" stroke-linejoin="round" /> <path id="path-1003-1" d="M338.576 476.457L373.696 454.144" stroke="#000000" stroke-width="45" fill="none" stroke-linecap="round" stroke-linejoin="round" /> <path id="path-1004-1" d="M373.816 453.872L373.696 454.144" stroke="#000000" stroke-width="45" fill="none" stroke-linecap="round" stroke-linejoin="round" /> <path id="path-1005-1" d="M407.186 497.164L373.696 454.144" stroke="#000000" stroke-width="45" fill="none" stroke-linecap="round" stroke-linejoin="round" /> <path id="path-1006-1" d="M413.131 428.565L373.696 454.144" stroke="#000000" stroke-width="45" fill="none" stroke-linecap="round" stroke-linejoin="round" /> </g> </svg>