<?xml version="1.0" encoding="UTF-8"?>
<svg xmlns="http://www.w3.org/2000/svg" width="1024" height="1024" viewBox="0 0 1024 1024" preserveAspectRatio="xMidYMid meet">
  <g id="centerline-shapes">
    <path id="path-1" d="M435.725 485.074 L433.271 481.915 L430.817 478.757 L428.362 475.598 L425.908 472.439 L423.454 469.281 L421.000 466.122 L418.546 462.963 L416.092 459.805 L413.637 456.646 L411.183 453.487 L408.729 450.329 L406.275 447.170 L403.821 444.012 L401.366 440.853 L398.912 437.694 L396.458 434.536 L394.004 431.377 L391.550 428.218 L389.096 425.060 L386.641 421.901 L384.187 418.742 L381.733 415.584 L379.279 412.425 L376.825 409.266 L374.371 406.108 L371.916 402.949 L369.462 399.790 L367.008 396.632 L364.554 393.473 L362.100 390.315 L359.646 387.156 L357.191 383.997 L354.737 380.839 L352.283 377.680 L349.829 374.521 L347.375 371.363 L344.921 368.204 L342.466 365.045 L340.012 361.887 L337.558 358.728 L335.119 355.558 L332.756 352.334 L330.469 349.054 L328.242 345.732 L326.016 342.409 L323.789 339.086 L321.562 335.763 L319.335 332.441 L317.108 329.118 L314.881 325.795 L312.654 322.472 L310.427 319.149 L308.200 315.827 L305.973 312.504 L303.968 309.067 L302.236 305.490 L300.775 301.772 L299.365 298.029 L297.955 294.286 L296.544 290.543 L295.134 286.800 L293.724 283.057 L292.314 279.313 L290.903 275.570 L289.493 271.827 L288.083 268.084 L286.673 264.341 L285.318 260.587 L284.402 256.748 L283.926 252.823 L283.833 248.824 L283.740 244.825 L283.647 240.826 L283.554 236.828 L283.461 232.829 L283.368 228.830 L283.276 224.831 L283.183 220.832 L283.090 216.833 L282.997 212.834 L282.904 208.835 L282.848 204.839 L283.085 200.869 L283.616 196.925 L284.403 193.003 L285.190 189.082 L285.978 185.160 L286.765 181.238 L287.599 177.331 L288.708 173.511 L290.090 169.777 L291.700 166.116 L293.310 162.454 L294.920 158.792 L296.530 155.131 L298.140 151.469 L299.750 147.807 L301.360 144.146 L302.970 140.484 L304.739 136.916 L306.782 133.510 L309.098 130.266 L311.530 127.090 L313.961 123.914 L316.392 120.738 L318.824 117.561 L321.255 114.385 L323.687 111.209 L326.136 108.050 L328.758 105.047 L331.551 102.202 L334.498 99.497 L337.445 96.793 L340.393 94.088 L343.340 91.384 L346.310 88.709 L349.415 86.208 L352.654 83.880 L356.005 81.696 L359.356 79.511 L362.707 77.327 L366.058 75.142 L369.409 72.958 L372.844 70.929 L376.383 69.094 L380.028 67.454 L383.693 65.853 L387.359 64.251 L391.024 62.650 L394.689 61.049 L398.355 59.447 L402.020 57.846 L405.716 56.340 L409.497 55.105 L413.363 54.142 L417.285 53.356 L421.207 52.569 L425.129 51.783 L429.051 50.996 L432.973 50.210 L436.895 49.423 L440.817 48.637 L444.760 48.086 L448.730 47.814 L452.726 47.820 L456.726 47.868 L460.725 47.917 L464.725 47.966 L468.725 48.014 L472.724 48.063 L476.724 48.112 L480.724 48.161 L484.709 48.339 L488.666 48.777 L492.594 49.473 L496.508 50.300 L500.421 51.126 L504.335 51.952 L508.249 52.778 L512.163 53.605 L516.063 54.473 L519.883 55.595 L523.622 56.969 L527.294 58.556 L530.966 60.142 L534.638 61.728 L538.311 63.314 L541.983 64.900 L545.655 66.486 L549.327 68.072 L552.924 69.792 L556.391 71.746 L559.728 73.934 L563.009 76.222 L566.290 78.510 L569.571 80.798 L572.852 83.086 L576.133 85.374 L579.414 87.662 L582.695 89.950 L585.885 92.342 L588.885 94.952 L591.695 97.780 L594.406 100.721 L597.118 103.662 L599.829 106.603 L602.540 109.544 L605.250 112.486 L607.797 115.556 L610.182 118.754 L612.404 122.080 L614.626 125.406 L616.848 128.732 L619.070 132.058 L621.292 135.384 L623.397 138.772 L625.257 142.289 L626.874 145.934 L628.364 149.646 L629.855 153.358 L631.345 157.070 L632.836 160.782 L634.326 164.494 L635.817 168.206 L637.307 171.918 L638.798 175.630 L640.026 179.416 L640.978 183.279 L641.654 187.220 L642.317 191.165 L642.980 195.109 L643.643 199.054 L644.182 203.008 L644.487 206.981 L644.557 210.972 L644.516 214.972 L644.475 218.972 L644.434 222.972 L644.393 226.971 L644.353 230.971 L644.312 234.971 L644.139 238.961 L643.801 242.939 L643.298 246.906 L642.762 250.870 L642.225 254.833 L641.689 258.797 L640.947 262.709 L639.908 266.544 L638.570 270.303 L637.139 274.039 L635.708 277.774 L634.278 281.509 L632.847 285.245 L631.416 288.980 L629.806 292.625 L627.959 296.151 L625.874 299.558 L623.732 302.936 L621.589 306.314 L619.447 309.692 L617.304 313.070 L615.162 316.448 L613.019 319.825 L610.877 323.203 L608.734 326.581 L606.592 329.959 L604.281 333.201 L601.739 336.259 L598.968 339.133 L596.136 341.958 L593.304 344.782 L590.472 347.607 L587.640 350.432 L584.808 353.257 L581.975 356.081 L579.143 358.906 L576.311 361.731 L573.479 364.555 L570.647 367.380 L567.815 370.205 L564.983 373.029 L562.150 375.854 L559.318 378.679 L556.486 381.504 L553.654 384.328 L550.822 387.153 L547.969 389.956 L545.051 392.688 L542.067 395.348 L539.037 397.960 L536.007 400.571 L532.977 403.183 L529.947 405.794 L526.917 408.405 L523.887 411.017 L520.857 413.628 L517.827 416.240 L514.797 418.851 L511.767 421.462 L508.737 424.074 L505.707 426.685 L502.677 429.296 L499.648 431.908 L496.618 434.519 L493.588 437.131 L490.558 439.742 L487.528 442.353 L484.498 444.965 L481.468 447.576 L478.438 450.188 L475.408 452.799 L472.378 455.410 L469.348 458.022 L466.318 460.633 L463.288 463.245 L460.258 465.856 L457.228 468.467 L454.198 471.079 L451.168 473.690 L448.138 476.302 L445.108 478.913 L442.078 481.524 L439.048 484.136 L436.853 486.028 L435.493 487.200" stroke="#000000" stroke-width="71.00" fill="none" stroke-linecap="round" stroke-linejoin="round" />
    <path id="path-2" d="M713.900 843.602 L711.399 846.724 L708.898 849.846 L706.397 852.967 L703.896 856.089 L701.395 859.211 L698.894 862.333 L696.393 865.454 L693.892 868.576 L691.391 871.698 L688.890 874.820 L686.389 877.942 L683.730 880.903 L680.854 883.647 L677.764 886.173 L674.617 888.643 L671.471 891.112 L668.324 893.582 L665.178 896.051 L662.031 898.521 L658.884 900.990 L655.738 903.460 L652.591 905.929 L649.444 908.399 L646.298 910.868 L643.151 913.338 L640.004 915.807 L636.858 918.277 L633.711 920.746 L630.564 923.216 L627.418 925.685 L624.194 928.037 L620.841 930.189 L617.359 932.141 L613.823 934.011 L610.287 935.880 L606.751 937.750 L603.214 939.620 L599.678 941.490 L596.142 943.360 L592.606 945.230 L589.070 947.100 L585.534 948.970 L581.998 950.840 L578.445 952.671 L574.818 954.336 L571.117 955.834 L567.358 957.202 L563.600 958.571 L559.841 959.939 L556.083 961.308 L552.324 962.676 L548.565 964.045 L544.807 965.413 L541.048 966.782 L537.266 968.063 L533.424 969.122 L529.522 969.957 L525.584 970.656 L521.646 971.356 L517.701 972.005 L513.740 972.535 L509.764 972.946 L505.778 973.287 L501.793 973.628 L497.807 973.969 L493.822 974.310 L489.836 974.651 L485.851 974.992 L481.864 975.290 L477.871 975.487 L473.874 975.582 L469.874 975.619 L465.875 975.655 L461.875 975.692 L457.875 975.729 L453.875 975.765 L449.875 975.802 L445.875 975.839 L441.876 975.875 L437.876 975.912 L433.876 975.949 L429.876 975.985 L425.876 976.022 L421.876 976.059 L417.877 976.095 L413.877 976.132 L409.877 976.168 L405.877 976.205 L401.877 976.242 L397.877 976.278 L393.878 976.315 L389.878 976.352 L385.878 976.388 L381.878 976.425 L377.878 976.462 L373.879 976.477 L369.888 976.342 L365.903 976.056 L361.925 975.639 L357.947 975.223 L353.968 974.807 L349.990 974.391 L346.012 973.974 L342.034 973.558 L338.055 973.142 L334.077 972.725 L330.115 972.240 L326.223 971.443 L322.403 970.335 L318.638 968.984 L314.873 967.633 L311.108 966.282 L307.343 964.931 L303.578 963.580 L299.813 962.230 L296.110 960.738 L292.482 959.076 L288.929 957.243 L285.390 955.379 L281.850 953.516 L278.311 951.652 L274.772 949.788 L271.247 947.902 L267.833 945.839 L264.531 943.600 L261.327 941.205 L258.123 938.811 L254.918 936.416 L251.714 934.022 L248.639 931.486 L245.735 928.761 L243.002 925.847 L240.312 922.887 L237.622 919.927 L234.931 916.967 L232.241 914.007 L229.550 911.047 L226.860 908.087 L224.180 905.119 L221.741 901.978 L219.542 898.662 L217.573 895.181 L215.603 891.699 L213.633 888.218 L211.664 884.736 L209.694 881.255 L207.725 877.773 L205.755 874.292 L203.786 870.810 L201.816 867.328 L200.052 863.760 L198.572 860.073 L197.374 856.265 L196.256 852.425 L195.137 848.585 L194.018 844.744 L192.899 840.904 L191.780 837.064 L190.661 833.223 L189.543 829.383 L188.424 825.543 L187.305 821.702 L186.427 817.819 L185.830 813.885 L185.513 809.902 L185.235 805.912 L184.957 801.921 L184.679 797.931 L184.401 793.941 L184.123 789.950 L183.846 785.960 L183.696 781.969 L183.718 777.977 L183.909 773.984 L184.142 769.991 L184.375 765.998 L184.608 762.004 L184.841 758.011 L185.137 754.027 L185.635 750.069 L186.334 746.139 L187.172 742.228 L188.009 738.317 L188.847 734.405 L189.785 730.527 L190.987 726.734 L192.453 723.028 L194.083 719.375 L195.714 715.723 L197.344 712.070 L198.974 708.417 L200.604 704.764 L202.235 701.112 L204.079 697.587 L206.199 694.229 L208.595 691.036 L211.054 687.881 L213.513 684.726 L215.971 681.571 L218.430 678.416 L220.889 675.261 L223.347 672.106 L225.806 668.950 L228.291 665.819 L230.928 662.827 L233.717 659.973 L236.632 657.233 L239.546 654.493 L242.461 651.754 L245.375 649.014 L248.289 646.274 L251.204 643.534 L254.118 640.795 L257.033 638.055 L259.960 635.330 L262.936 632.660 L265.961 630.043 L269.020 627.466 L272.078 624.889 L275.137 622.311 L278.196 619.734 L281.255 617.156 L284.314 614.579 L287.373 612.002 L290.432 609.424 L293.491 606.847 L296.550 604.269 L299.609 601.692 L302.668 599.115 L305.727 596.537 L308.786 593.960 L311.845 591.383 L314.904 588.805 L317.963 586.228 L321.022 583.650 L324.080 581.073 L327.139 578.496 L330.198 575.918 L333.257 573.341 L336.316 570.764 L339.375 568.186 L342.434 565.609 L345.493 563.031 L348.552 560.454 L351.611 557.877 L354.670 555.299 L357.729 552.722 L360.788 550.145 L363.847 547.567 L366.906 544.990 L369.965 542.412 L373.024 539.835 L376.082 537.258 L379.141 534.680 L382.200 532.103 L385.259 529.526 L388.318 526.948 L391.377 524.371 L394.436 521.793 L397.495 519.216 L400.554 516.639 L403.613 514.061 L406.672 511.484 L409.731 508.906 L412.790 506.329 L415.849 503.752 L418.908 501.174 L421.967 498.597 L425.026 496.020 L428.084 493.442 L431.143 490.865 L433.613 488.784 L435.493 487.200" stroke="#000000" stroke-width="71.00" fill="none" stroke-linecap="round" stroke-linejoin="round" />
    <path id="path-3" d="M435.725 485.074 L438.194 488.221 L440.664 491.367 L443.133 494.514 L445.602 497.661 L448.072 500.808 L450.541 503.955 L453.010 507.101 L455.480 510.248 L457.949 513.395 L460.419 516.542 L462.888 519.689 L465.357 522.835 L467.827 525.982 L470.296 529.129 L472.765 532.276 L475.235 535.422 L477.704 538.569 L480.173 541.716 L482.643 544.863 L485.112 548.010 L487.581 551.156 L490.051 554.303 L492.520 557.450 L494.990 560.597 L497.459 563.744 L499.928 566.890 L502.398 570.037 L504.867 573.184 L507.336 576.331 L509.806 579.477 L512.275 582.624 L514.744 585.771 L517.214 588.918 L519.683 592.065 L522.153 595.211 L524.622 598.358 L527.091 601.505 L529.561 604.652 L532.030 607.799 L534.499 610.945 L536.969 614.092 L539.438 617.239 L541.907 620.386 L544.377 623.532 L546.846 626.679 L549.315 629.826 L551.785 632.973 L554.254 636.120 L556.724 639.266 L559.193 642.413 L561.662 645.560 L564.132 648.707 L566.601 651.854 L569.070 655.000 L571.540 658.147 L574.009 661.294 L576.478 664.441 L578.948 667.587 L581.417 670.734 L583.887 673.881 L586.356 677.028 L588.825 680.175 L591.295 683.321 L593.764 686.468 L596.233 689.615 L598.703 692.762 L601.172 695.909 L603.641 699.055 L606.111 702.202 L608.580 705.349 L611.050 708.496 L613.519 711.642 L615.988 714.789 L618.458 717.936 L620.927 721.083 L623.396 724.230 L625.866 727.376 L628.335 730.523 L630.804 733.670 L633.274 736.817 L635.743 739.964 L638.212 743.110 L640.682 746.257 L643.151 749.404 L645.621 752.551 L648.090 755.697 L650.559 758.844 L653.029 761.991 L655.498 765.138 L657.967 768.285 L660.437 771.431 L662.906 774.578 L665.375 777.725 L667.845 780.872 L670.314 784.018 L672.784 787.165 L675.253 790.312 L677.722 793.459 L680.192 796.606 L682.661 799.752 L685.130 802.899 L687.600 806.046 L690.069 809.193 L692.538 812.340 L695.008 815.486 L697.477 818.633 L699.947 821.780 L702.416 824.927 L704.885 828.073 L707.355 831.220 L709.824 834.367 L712.293 837.514 L714.456 840.269 L716.311 842.633" stroke="#000000" stroke-width="71.00" fill="none" stroke-linecap="round" stroke-linejoin="round" />
    <path id="path-4" d="M713.900 843.602 L716.345 840.437 L718.790 837.271 L721.236 834.106 L723.681 830.940 L726.127 827.775 L728.572 824.610 L731.017 821.444 L733.463 818.279 L735.908 815.113 L738.311 811.918 L740.592 808.640 L742.751 805.278 L744.833 801.862 L746.914 798.446 L748.996 795.030 L751.077 791.615 L753.159 788.199 L755.240 784.783 L757.321 781.367 L759.403 777.951 L761.484 774.536 L763.566 771.120 L765.647 767.704 L767.728 764.288 L769.810 760.872 L771.891 757.457 L773.973 754.041 L776.054 750.625 L778.136 747.209 L780.217 743.793 L782.298 740.378 L784.380 736.962 L786.461 733.546 L788.543 730.130 L790.624 726.714 L792.706 723.299 L794.787 719.883 L796.686 716.378 L798.357 712.763 L799.801 709.038 L801.199 705.290 L802.598 701.543 L803.997 697.795 L805.396 694.048 L806.795 690.300 L808.194 686.553 L809.593 682.806 L810.991 679.058 L812.390 675.311 L813.789 671.563 L815.188 667.816 L816.587 664.068 L817.986 660.321 L819.385 656.574 L820.784 652.826 L822.182 649.079 L823.573 645.329 L824.753 641.520 L825.723 637.651 L826.491 633.726 L827.258 629.800 L828.026 625.874 L828.794 621.949 L829.562 618.023 L830.329 614.097 L831.097 610.172 L831.865 606.246 L832.632 602.321 L833.400 598.395 L834.168 594.469 L834.936 590.544 L835.703 586.618 L836.471 582.692 L837.239 578.767 L838.006 574.841 L838.774 570.915 L839.542 566.990 L840.120 564.034 L840.508 562.048" stroke="#000000" stroke-width="71.00" fill="none" stroke-linecap="round" stroke-linejoin="round" />
    <path id="path-5" d="M716.311 842.633 L718.831 845.740 L721.351 848.846 L723.871 851.952 L726.391 855.059 L728.911 858.165 L731.431 861.271 L733.951 864.378 L736.472 867.484 L738.992 870.590 L741.512 873.696 L744.032 876.803 L746.552 879.909 L749.072 883.015 L751.592 886.122 L754.112 889.228 L756.632 892.334 L759.152 895.441 L761.673 898.547 L764.193 901.653 L766.713 904.759 L769.233 907.866 L771.753 910.972 L774.273 914.078 L776.793 917.185 L779.313 920.291 L781.833 923.397 L784.353 926.504 L786.873 929.610 L789.394 932.716 L791.914 935.822 L794.434 938.929 L796.954 942.035 L799.474 945.141 L801.994 948.248 L804.514 951.354 L807.034 954.460 L809.554 957.567 L812.074 960.673 L814.595 963.779 L817.115 966.885 L819.230 969.493 L820.942 971.603" stroke="#000000" stroke-width="71.00" fill="none" stroke-linecap="round" stroke-linejoin="round" />
  </g>
</svg>
