<?xml version="1.0" encoding="UTF-8"?>
<svg xmlns="http://www.w3.org/2000/svg" width="1024" height="1024" viewBox="0 0 1024 1024" preserveAspectRatio="xMidYMid meet">
  <g id="centerline-shapes">
    <path id="path-1" d="M764.881 977.739 L762.553 974.486 L760.226 971.233 L757.898 967.980 L755.570 964.727 L753.242 961.474 L750.914 958.221 L748.587 954.968 L746.259 951.715 L743.931 948.463 L741.603 945.210 L739.276 941.957 L736.948 938.704 L734.620 935.451 L732.292 932.198 L729.964 928.945 L727.637 925.692 L725.309 922.439 L722.981 919.186 L720.653 915.933 L718.326 912.680 L715.998 909.427 L713.670 906.175 L711.342 902.922 L709.015 899.669 L706.687 896.416 L704.359 893.163 L702.031 889.910 L699.703 886.657 L697.376 883.404 L695.048 880.151 L692.720 876.898 L690.392 873.645 L688.065 870.392 L685.737 867.140 L683.409 863.887 L681.081 860.634 L678.754 857.381 L676.426 854.128 L674.098 850.875 L671.770 847.622 L669.442 844.369 L667.115 841.116 L664.787 837.863 L662.459 834.610 L660.131 831.357 L657.804 828.104 L655.476 824.852 L653.148 821.599 L650.820 818.346 L648.493 815.093 L646.165 811.840 L643.837 808.587 L641.509 805.334 L639.181 802.081 L636.854 798.828 L634.526 795.575 L632.198 792.322 L629.870 789.069 L627.543 785.817 L625.215 782.564 L622.887 779.311 L620.559 776.058 L618.232 772.805 L615.904 769.552 L613.576 766.299 L611.248 763.046 L608.920 759.793 L606.593 756.540 L604.265 753.287 L601.937 750.034 L599.609 746.781 L597.282 743.529 L594.954 740.276 L592.626 737.023 L590.298 733.770 L587.971 730.517 L585.643 727.264 L583.315 724.011 L580.987 720.758 L578.659 717.505 L576.332 714.252 L574.004 710.999 L571.676 707.746 L569.348 704.494 L567.021 701.241 L564.693 697.988 L562.365 694.735 L560.037 691.482 L557.709 688.229 L555.382 684.976 L553.054 681.723 L550.726 678.470 L548.398 675.217 L546.071 671.964 L543.743 668.711 L541.415 665.459 L539.087 662.206 L536.760 658.953 L534.432 655.700 L532.104 652.447 L529.776 649.194 L527.448 645.941 L525.121 642.688 L522.793 639.435 L520.465 636.182 L518.137 632.929 L515.810 629.676 L513.482 626.423 L511.154 623.171 L508.826 619.918 L506.499 616.665 L504.171 613.412 L501.843 610.159 L499.515 606.906 L497.187 603.653 L494.860 600.400 L492.532 597.147 L490.204 593.894 L487.876 590.641 L485.549 587.388 L483.221 584.136 L480.893 580.883 L478.565 577.630 L476.238 574.377 L473.910 571.124 L471.582 567.871 L469.254 564.618 L466.926 561.365 L464.599 558.112 L462.271 554.859 L459.943 551.606 L457.615 548.353 L455.288 545.100 L452.960 541.848 L450.632 538.595 L448.304 535.342 L445.977 532.089 L443.649 528.836 L441.321 525.583 L438.993 522.330 L436.665 519.077 L434.338 515.824 L432.010 512.571 L429.682 509.318 L427.354 506.065 L425.027 502.813 L422.699 499.560 L420.371 496.307 L418.043 493.054 L415.716 489.801 L413.388 486.548 L411.060 483.295 L408.732 480.042 L406.404 476.789 L404.077 473.536 L401.749 470.283 L399.421 467.030 L397.093 463.777 L395.464 461.500 L394.533 460.199" stroke="#000000" stroke-width="64.00" fill="none" stroke-linecap="round" stroke-linejoin="round" />
    <path id="path-2" d="M394.896 460.199 L394.896 456.199 L394.896 452.199 L394.896 448.559 L394.896 445.280" stroke="#000000" stroke-width="64.00" fill="none" stroke-linecap="round" stroke-linejoin="round" />
    <path id="path-3" d="M285.596 496.246 L285.596 500.246 L285.596 504.246 L285.596 508.246 L285.596 512.246 L285.596 516.246 L285.596 520.246 L285.596 524.246 L285.596 528.246 L285.596 532.246 L285.596 536.246 L285.596 540.246 L285.596 544.246 L285.596 548.246 L285.596 552.246 L285.596 556.246 L285.596 560.246 L285.596 564.246 L285.596 568.246 L285.596 572.246 L285.596 576.246 L285.596 580.246 L285.596 584.246 L285.596 588.246 L285.596 592.246 L285.596 596.246 L285.596 600.246 L285.596 604.246 L285.596 608.246 L285.596 612.246 L285.596 616.246 L285.596 620.246 L285.596 624.246 L285.596 628.246 L285.596 632.246 L285.596 636.246 L285.596 640.246 L285.596 644.246 L285.596 648.246 L285.596 652.246 L285.596 656.246 L285.596 660.246 L285.596 664.246 L285.596 668.246 L285.596 672.246 L285.596 676.246 L285.596 680.246 L285.596 684.246 L285.596 688.246 L285.596 692.246 L285.596 696.246 L285.596 700.246 L285.596 704.246 L285.596 708.246 L285.596 712.246 L285.596 716.246 L285.596 720.246 L285.596 724.246 L285.596 728.246 L285.596 732.246 L285.596 736.246 L285.596 740.246 L285.596 744.246 L285.596 748.246 L285.596 752.246 L285.596 756.246 L285.596 760.246 L285.596 764.246 L285.596 768.246 L285.596 772.246 L285.596 776.246 L285.596 780.246 L285.596 784.246 L285.596 788.246 L285.596 792.246 L285.596 796.246 L285.596 800.246 L285.596 804.246 L285.596 808.246 L285.596 812.246 L285.596 816.246 L285.596 820.246 L285.596 824.246 L285.596 828.246 L285.596 832.246 L285.596 836.246 L285.596 840.246 L285.596 844.246 L285.596 848.246 L285.596 852.246 L285.596 856.246 L285.596 860.246 L285.596 864.246 L285.596 868.246 L285.596 872.246 L285.596 876.246 L285.596 880.246 L285.596 884.246 L285.596 888.246 L285.596 892.246 L285.596 896.246 L285.596 900.246 L285.596 904.246 L285.596 908.246 L285.596 912.246 L285.596 916.246 L285.596 920.246 L285.596 924.246 L285.596 928.246 L285.596 932.246 L285.596 936.246 L285.596 940.246 L285.596 944.246 L285.596 948.246 L285.596 952.246 L285.596 956.246 L285.596 960.246 L285.596 964.246 L285.596 968.246 L285.596 972.246 L285.596 975.616 L285.596 978.357" stroke="#000000" stroke-width="64.00" fill="none" stroke-linecap="round" stroke-linejoin="round" />
    <path id="path-4" d="M285.525 44.030 L285.525 48.030 L285.525 52.030 L285.525 56.030 L285.525 60.030 L285.525 64.030 L285.525 68.030 L285.525 72.030 L285.525 76.030 L285.525 80.030 L285.525 84.030 L285.525 88.030 L285.525 92.030 L285.525 96.030 L285.525 100.030 L285.525 104.030 L285.525 108.030 L285.525 112.030 L285.525 116.030 L285.525 120.030 L285.525 124.030 L285.525 128.030 L285.525 132.030 L285.525 136.030 L285.525 140.030 L285.525 144.030 L285.525 148.030 L285.525 152.030 L285.525 156.030 L285.525 160.030 L285.525 164.030 L285.525 168.030 L285.525 172.030 L285.525 176.030 L285.525 180.030 L285.525 184.030 L285.525 188.030 L285.525 192.030 L285.525 196.030 L285.525 200.030 L285.525 204.030 L285.525 208.030 L285.525 212.030 L285.525 216.030 L285.525 220.030 L285.525 224.030 L285.525 228.030 L285.525 232.030 L285.525 236.030 L285.525 240.030 L285.525 244.030 L285.525 248.030 L285.525 252.030 L285.525 256.030 L285.525 260.030 L285.525 264.030 L285.525 268.030 L285.525 272.030 L285.525 276.030 L285.525 280.030 L285.525 284.030 L285.525 288.030 L285.525 292.030 L285.525 296.030 L285.525 300.030 L285.525 304.030 L285.525 308.030 L285.525 312.030 L285.525 316.030 L285.525 320.030 L285.525 324.030 L285.525 328.030 L285.525 332.030 L285.525 336.030 L285.525 340.030 L285.525 344.030 L285.525 348.030 L285.525 352.030 L285.525 356.030 L285.525 360.030 L285.525 364.030 L285.525 368.030 L285.525 372.030 L285.525 376.030 L285.525 380.030 L285.525 384.030 L285.525 388.030 L285.525 392.030 L285.525 396.030 L285.525 400.030 L285.525 404.030 L285.525 408.030 L285.525 412.030 L285.525 416.030 L285.525 420.030 L285.525 424.030 L285.525 428.030 L285.525 432.030 L285.525 436.030 L285.525 440.030 L285.525 444.030 L285.525 448.030 L285.525 452.030 L285.525 456.030 L285.525 460.030 L285.525 464.030 L285.525 468.030 L285.525 472.030 L285.525 476.030 L285.525 480.030 L285.525 484.030 L285.525 488.030 L285.525 492.030 L285.525 494.769 L285.525 496.246" stroke="#000000" stroke-width="64.00" fill="none" stroke-linecap="round" stroke-linejoin="round" />
    <path id="path-5" d="M719.809 243.275 L716.436 245.424 L713.062 247.573 L709.688 249.722 L706.315 251.871 L702.941 254.020 L699.567 256.169 L696.193 258.318 L692.820 260.467 L689.446 262.616 L686.072 264.765 L682.699 266.914 L679.325 269.063 L675.951 271.212 L672.578 273.361 L669.204 275.510 L665.830 277.659 L662.457 279.808 L659.083 281.957 L655.709 284.106 L652.335 286.255 L648.962 288.404 L645.588 290.553 L642.214 292.702 L638.841 294.851 L635.467 297.000 L632.093 299.149 L628.720 301.298 L625.346 303.447 L621.972 305.596 L618.599 307.745 L615.225 309.894 L611.851 312.043 L608.477 314.192 L605.104 316.341 L601.730 318.490 L598.356 320.639 L594.983 322.788 L591.609 324.937 L588.235 327.086 L584.862 329.235 L581.488 331.384 L578.114 333.533 L574.741 335.682 L571.367 337.831 L567.993 339.980 L564.619 342.129 L561.246 344.278 L557.872 346.427 L554.498 348.576 L551.125 350.725 L547.751 352.874 L544.377 355.023 L541.004 357.172 L537.630 359.321 L534.256 361.470 L530.883 363.619 L527.509 365.768 L524.135 367.917 L520.761 370.066 L517.388 372.215 L514.014 374.364 L510.640 376.513 L507.267 378.662 L503.893 380.811 L500.519 382.960 L497.146 385.109 L493.772 387.258 L490.398 389.407 L487.025 391.556 L483.651 393.705 L480.277 395.854 L476.903 398.003 L473.530 400.152 L470.156 402.301 L466.782 404.450 L463.409 406.599 L460.035 408.748 L456.661 410.897 L453.288 413.046 L449.914 415.195 L446.540 417.344 L443.167 419.493 L439.793 421.642 L436.419 423.791 L433.045 425.940 L429.672 428.089 L426.298 430.238 L422.924 432.387 L419.551 434.536 L416.226 436.654 L412.951 438.740" stroke="#000000" stroke-width="64.00" fill="none" stroke-linecap="round" stroke-linejoin="round" />
    <path id="path-6" d="M412.951 438.740 L409.700 441.070 L406.448 443.400 L403.197 445.729 L399.946 448.059 L396.694 450.389 L393.443 452.719 L390.191 455.049 L387.592 456.911 L385.644 458.307" stroke="#000000" stroke-width="64.00" fill="none" stroke-linecap="round" stroke-linejoin="round" />
    <path id="path-7" d="M289.592 496.868 L293.576 496.509 L297.560 496.149 L301.543 495.789 L305.527 495.429 L309.511 495.069 L313.495 494.709 L317.479 494.349 L321.320 493.529 L324.997 492.178 L328.509 490.295 L331.999 488.341 L335.489 486.387 L338.980 484.433 L342.470 482.479 L345.960 480.525 L349.450 478.571 L352.941 476.617 L356.431 474.663 L359.921 472.709 L363.411 470.755 L366.901 468.800 L370.392 466.846 L373.882 464.892 L377.372 462.938 L380.862 460.984 L383.620 459.440 L385.644 458.307" stroke="#000000" stroke-width="64.00" fill="none" stroke-linecap="round" stroke-linejoin="round" />
    <path id="path-8" d="M394.896 445.280 L394.896 449.280 L394.896 453.280 L394.896 456.919 L394.896 460.199" stroke="#000000" stroke-width="64.00" fill="none" stroke-linecap="round" stroke-linejoin="round" />
    <path id="path-9" d="M412.951 438.740 L410.346 441.775 L407.741 444.810 L405.136 447.846 L402.530 450.881 L399.925 453.916 L397.320 456.952 L395.523 459.046 L394.533 460.199" stroke="#000000" stroke-width="64.00" fill="none" stroke-linecap="round" stroke-linejoin="round" />
    <path id="path-10" d="M385.644 459.253 L389.644 459.253 L392.607 459.253 L394.533 459.253" stroke="#000000" stroke-width="64.00" fill="none" stroke-linecap="round" stroke-linejoin="round" />
    <path id="path-11" d="M395.259 445.280 L399.011 443.893 L402.763 442.506 L406.515 441.119 L409.911 439.864 L412.951 438.740" stroke="#000000" stroke-width="64.00" fill="none" stroke-linecap="round" stroke-linejoin="round" />
    <path id="path-12" d="M385.644 458.307 L388.895 455.977 L392.147 453.648 L395.398 451.318 L398.650 448.988 L401.901 446.658 L405.153 444.328 L408.404 441.998 L411.004 440.136 L412.951 438.740" stroke="#000000" stroke-width="64.00" fill="none" stroke-linecap="round" stroke-linejoin="round" />
  </g>
</svg>
