<?xml version="1.0" encoding="UTF-8"?>
<svg xmlns="http://www.w3.org/2000/svg" width="1024" height="1024" viewBox="0 0 1024 1024" preserveAspectRatio="xMidYMid meet">
  <g id="centerline-shapes">
    <path id="path-1" d="M546.301 509.889 L550.056 511.266 L553.812 512.643 L557.567 514.020 L561.323 515.397 L565.078 516.774 L568.834 518.151 L572.589 519.528 L576.345 520.905 L580.101 522.282 L583.856 523.659 L587.612 525.036 L591.367 526.413 L595.123 527.790 L598.878 529.167 L602.634 530.544 L606.389 531.921 L610.145 533.298 L613.900 534.675 L617.656 536.052 L621.411 537.429 L625.161 538.819 L628.814 540.415 L632.372 542.215 L635.841 544.207 L639.310 546.199 L642.778 548.191 L646.247 550.183 L649.715 552.175 L653.184 554.168 L656.653 556.160 L660.121 558.152 L663.590 560.144 L667.059 562.136 L670.527 564.128 L673.996 566.120 L677.465 568.112 L680.762 570.337 L683.878 572.807 L686.814 575.521 L689.742 578.246 L692.669 580.972 L695.597 583.698 L698.524 586.424 L701.452 589.150 L704.379 591.875 L707.307 594.601 L710.234 597.327 L713.162 600.053 L716.089 602.778 L718.902 605.597 L721.419 608.653 L723.643 611.947 L725.686 615.385 L727.730 618.824 L729.774 622.262 L731.818 625.701 L733.861 629.139 L735.905 632.578 L737.949 636.016 L739.992 639.455 L742.036 642.893 L744.080 646.332 L745.922 649.856 L747.431 653.520 L748.609 657.326 L749.658 661.186 L750.706 665.046 L751.754 668.906 L752.802 672.767 L753.850 676.627 L754.899 680.487 L755.820 684.370 L756.510 688.294 L756.969 692.260 L757.323 696.244 L757.677 700.228 L758.031 704.212 L758.385 708.197 L758.739 712.181 L759.093 716.165 L759.447 720.150 L759.801 724.134 L760.155 728.118 L760.277 732.102 L760.154 736.085 L759.787 740.067 L759.407 744.048 L759.027 748.030 L758.647 752.012 L758.267 755.994 L757.887 759.976 L757.507 763.958 L757.127 767.940 L756.747 771.922 L756.367 775.904 L755.987 779.886 L755.607 783.868 L755.227 787.849 L754.847 791.831 L754.467 795.813 L753.888 799.749 L752.964 803.605 L751.696 807.380 L750.282 811.122 L748.867 814.863 L747.453 818.605 L746.039 822.347 L744.625 826.088 L743.211 829.830 L741.796 833.572 L740.382 837.313 L738.968 841.055 L737.554 844.797 L736.135 848.536 L734.384 852.091 L732.298 855.462 L729.883 858.651 L727.469 861.840 L725.054 865.029 L722.639 868.217 L720.224 871.406 L717.809 874.595 L715.394 877.784 L712.980 880.973 L710.565 884.162 L708.150 887.350 L705.735 890.539 L703.179 893.597 L700.430 896.477 L697.489 899.178 L694.495 901.831 L691.501 904.484 L688.508 907.137 L685.514 909.790 L682.520 912.443 L679.527 915.095 L676.533 917.748 L673.539 920.401 L670.546 923.054 L667.552 925.707 L664.558 928.360 L661.564 931.013 L658.571 933.666 L655.495 936.203 L652.255 938.511 L648.853 940.591 L645.369 942.556 L641.885 944.521 L638.401 946.486 L634.917 948.452 L631.433 950.417 L627.949 952.382 L624.465 954.347 L620.918 956.178 L617.285 957.826 L613.568 959.292 L609.828 960.711 L606.088 962.131 L602.349 963.550 L598.609 964.969 L594.869 966.389 L591.129 967.808 L587.390 969.227 L583.650 970.647 L579.880 971.951 L576.038 972.977 L572.123 973.725 L568.167 974.311 L564.210 974.897 L560.253 975.483 L556.296 976.068 L552.339 976.654 L548.382 977.240 L544.425 977.826 L540.469 978.412 L536.512 978.998 L532.541 979.394 L528.556 979.592 L524.557 979.592 L520.557 979.583 L516.557 979.575 L512.557 979.566 L508.557 979.558 L504.557 979.549 L500.557 979.541 L496.561 979.459 L492.577 979.212 L488.603 978.800 L484.635 978.294 L480.667 977.788 L476.699 977.283 L472.731 976.777 L468.763 976.271 L464.805 975.715 L460.877 975.001 L456.978 974.128 L453.100 973.148 L449.222 972.168 L445.344 971.188 L441.466 970.208 L437.588 969.228 L433.710 968.248 L429.854 967.197 L426.046 965.996 L422.285 964.646 L418.548 963.219 L414.811 961.792 L411.074 960.365 L407.338 958.938 L403.601 957.511 L399.864 956.084 L396.127 954.657 L392.421 953.165 L388.790 951.507 L385.237 949.684 L381.730 947.760 L378.223 945.837 L374.715 943.913 L371.208 941.990 L367.701 940.066 L364.194 938.143 L360.687 936.220 L357.180 934.296 L353.714 932.307 L350.344 930.169 L347.070 927.881 L343.849 925.509 L340.628 923.137 L337.408 920.764 L334.187 918.392 L330.966 916.020 L327.746 913.648 L324.525 911.275 L321.411 908.777 L318.408 906.146 L315.516 903.383 L312.629 900.614 L309.742 897.846 L306.855 895.077 L303.968 892.309 L301.178 889.452 L298.527 886.470 L296.014 883.362 L293.542 880.218 L291.070 877.073 L288.598 873.928 L286.127 870.783 L283.657 867.636 L281.439 864.334 L279.472 860.876 L277.753 857.265 L276.033 853.653 L274.314 850.041 L272.595 846.430 L270.876 842.818 L269.157 839.206 L267.770 835.493 L266.759 831.665 L266.124 827.722 L265.532 823.766 L264.940 819.810 L264.348 815.854 L263.756 811.898 L263.335 809.085 L263.085 807.414" stroke="#000000" stroke-width="65.00" fill="none" stroke-linecap="round" stroke-linejoin="round" />
    <path id="path-2" d="M282.033 192.658 L283.215 188.836 L284.396 185.015 L285.577 181.193 L286.759 177.372 L287.940 173.550 L289.121 169.728 L290.375 165.939 L291.906 162.270 L293.713 158.723 L295.724 155.265 L297.735 151.808 L299.784 148.375 L301.958 145.025 L304.256 141.756 L306.639 138.544 L309.023 135.332 L311.407 132.119 L313.791 128.907 L316.277 125.787 L318.947 122.832 L321.801 120.041 L324.735 117.323 L327.669 114.604 L330.604 111.886 L333.538 109.167 L336.509 106.495 L339.598 103.968 L342.804 101.588 L346.091 99.309 L349.378 97.029 L352.664 94.750 L355.951 92.470 L359.238 90.191 L362.525 87.911 L365.812 85.631 L369.166 83.466 L372.618 81.465 L376.168 79.629 L379.748 77.845 L383.328 76.062 L386.908 74.278 L390.488 72.494 L394.069 70.710 L397.649 68.926 L401.312 67.353 L405.060 65.997 L408.894 64.859 L412.731 63.727 L416.567 62.595 L420.404 61.463 L424.240 60.331 L428.077 59.199 L431.913 58.067 L435.750 56.935 L439.586 55.803 L443.423 54.671 L447.259 53.539 L451.096 52.407 L454.932 51.275 L458.769 50.143 L462.605 49.011 L466.457 47.969 L470.362 47.243 L474.319 46.831 L478.315 46.645 L482.311 46.458 L486.306 46.272 L490.302 46.085 L494.298 45.899 L498.293 45.712 L502.289 45.526 L506.285 45.339 L510.280 45.153 L514.276 44.966 L518.272 44.780 L522.267 44.593 L526.263 44.407 L530.258 44.220 L534.250 44.098 L538.225 44.258 L542.183 44.701 L546.128 45.362 L550.073 46.023 L554.018 46.684 L557.963 47.345 L561.908 48.006 L565.853 48.667 L569.798 49.328 L573.743 49.989 L577.688 50.650 L581.633 51.311 L585.552 52.080 L589.427 53.033 L593.258 54.168 L597.070 55.377 L600.883 56.587 L604.696 57.796 L608.500 59.028 L612.225 60.453 L615.872 62.072 L619.449 63.862 L623.026 65.651 L626.603 67.441 L630.180 69.231 L633.758 71.021 L637.335 72.811 L640.840 74.720 L644.235 76.812 L647.520 79.084 L650.768 81.419 L654.017 83.753 L657.265 86.087 L660.513 88.422 L663.761 90.756 L666.966 93.141 L670.031 95.691 L672.957 98.406 L675.785 101.234 L678.613 104.063 L681.442 106.891 L684.270 109.719 L687.000 112.631 L689.558 115.688 L691.944 118.890 L694.258 122.152 L696.572 125.415 L698.886 128.678 L701.201 131.940 L703.515 135.203 L705.829 138.466 L708.143 141.728 L710.341 145.054 L712.263 148.530 L713.912 152.156 L715.401 155.868 L716.891 159.581 L718.381 163.293 L719.871 167.005 L721.361 170.717 L722.850 174.430 L724.340 178.142 L725.830 181.854 L727.320 185.566 L728.809 189.278 L730.299 192.991 L731.789 196.703 L733.279 200.415 L734.507 204.199 L735.444 208.063 L736.089 212.007 L736.703 215.960 L737.318 219.912 L737.932 223.865 L738.546 227.817 L739.160 231.770 L739.774 235.723 L740.388 239.675 L741.003 243.628 L741.617 247.580 L742.231 251.533 L742.845 255.485 L743.459 259.438 L744.021 263.395 L744.380 267.367 L744.538 271.355 L744.546 275.355 L744.554 279.355 L744.562 283.355 L744.570 287.355 L744.578 291.355 L744.586 295.355 L744.595 299.355 L744.552 303.352 L744.304 307.332 L743.848 311.297 L743.236 315.250 L742.623 319.203 L742.011 323.155 L741.399 327.108 L740.786 331.061 L740.174 335.014 L739.562 338.967 L738.950 342.920 L738.240 346.843 L737.182 350.663 L735.774 354.378 L734.114 358.017 L732.455 361.657 L730.795 365.296 L729.136 368.936 L727.476 372.575 L725.817 376.215 L724.158 379.854 L722.498 383.494 L720.839 387.133 L719.179 390.773 L717.520 394.412 L715.763 397.990 L713.690 401.365 L711.302 404.538 L708.694 407.572 L706.087 410.606 L703.480 413.639 L700.873 416.673 L698.266 419.707 L695.659 422.740 L693.052 425.774 L690.445 428.807 L687.837 431.841 L685.230 434.875 L682.623 437.908 L679.801 440.705 L676.756 443.255 L673.488 445.559 L670.212 447.854 L666.936 450.149 L663.660 452.444 L660.384 454.739 L657.108 457.034 L653.831 459.329 L650.555 461.624 L647.279 463.919 L644.003 466.214 L640.716 468.490 L637.297 470.527 L633.744 472.326 L630.069 473.904 L626.393 475.483 L622.718 477.062 L619.043 478.641 L615.368 480.220 L611.692 481.798 L608.017 483.377 L604.342 484.956 L600.667 486.535 L596.991 488.114 L593.316 489.693 L589.641 491.271 L585.966 492.850 L582.291 494.429 L578.615 496.008 L574.940 497.587 L571.265 499.165 L567.590 500.744 L563.914 502.323 L560.239 503.902 L556.564 505.481 L552.889 507.059 L549.468 508.529 L546.301 509.889" stroke="#000000" stroke-width="65.00" fill="none" stroke-linecap="round" stroke-linejoin="round" />
    <path id="path-3" d="M486.239 508.974 L490.239 508.974 L494.239 508.974 L498.239 508.974 L502.239 508.974 L506.239 508.974 L510.239 508.974 L514.239 508.974 L518.239 508.974 L522.239 508.974 L526.239 508.974 L530.239 508.974 L534.220 508.974 L538.181 508.974" stroke="#000000" stroke-width="65.00" fill="none" stroke-linecap="round" stroke-linejoin="round" />
    <path id="path-4" d="M538.181 509.141 L542.180 509.049 L546.179 508.958 L550.178 508.866 L554.177 508.775 L558.176 508.683 L562.175 508.591 L566.174 508.500 L570.173 508.408 L574.172 508.317 L578.171 508.225 L582.170 508.134 L585.224 508.972 L586.894 511.174 L587.447 514.599 L588.559 517.068 L590.406 517.087 L590.988 515.088 L589.573 512.324 L587.221 509.401 L586.999 506.934 L589.147 505.106 L592.868 504.370 L596.081 502.943 L596.683 501.365 L594.837 500.178 L591.525 501.038 L588.610 503.224 L586.478 506.340 L585.615 509.432 L586.589 510.592 L587.381 510.005 L586.597 508.097 L584.797 508.463 L583.453 510.768 L583.308 513.450 L583.234 514.819" stroke="#000000" stroke-width="65.00" fill="none" stroke-linecap="round" stroke-linejoin="round" />
    <path id="path-5" d="M546.301 509.515 L542.301 509.515 L539.594 509.515 L538.181 509.515" stroke="#000000" stroke-width="65.00" fill="none" stroke-linecap="round" stroke-linejoin="round" />
    <path id="path-6" d="M486.239 508.974 L490.239 508.974 L494.239 508.974 L498.239 508.974 L502.239 508.974 L506.239 508.974 L510.239 508.974 L514.239 508.974 L518.239 508.974 L522.239 508.974 L526.239 508.974 L530.239 508.974 L534.220 508.974 L538.181 508.974" stroke="#000000" stroke-width="65.00" fill="none" stroke-linecap="round" stroke-linejoin="round" />
    <path id="path-7" d="M583.234 511.980 L579.234 511.980 L575.234 511.980 L571.234 511.980 L567.234 511.980 L563.234 511.980 L559.234 511.980 L555.234 511.980 L551.234 511.980 L547.234 511.980 L543.234 511.980 L540.216 511.980 L538.181 511.980" stroke="#000000" stroke-width="65.00" fill="none" stroke-linecap="round" stroke-linejoin="round" />
  </g>
</svg>
