<?xml version="1.0" encoding="UTF-8"?>
<svg xmlns="http://www.w3.org/2000/svg" width="1024" height="1024" viewBox="0 0 1024 1024" preserveAspectRatio="none"> <g id="skeleton-shapes"> <path id="path-1-1" d="M469.962 529.339L471.193 530.931L472.434 532.541L473.656 534.127L474.857 535.689L477.317 538.837L479.756 542.012L482.160 545.150L484.539 548.259L486.929 551.384L489.292 554.473L491.634 557.536L493.995 560.623L496.326 563.670L498.650 566.710L500.992 569.772L503.317 572.812L505.642 575.852L507.966 578.891L510.307 581.953L512.632 584.993L514.956 588.033L517.298 591.095L519.623 594.135L521.948 597.175L524.272 600.214L526.614 603.276L528.938 606.316L531.263 609.356L533.604 612.418L535.929 615.458L538.254 618.498L540.579 621.538L542.904 624.578L545.228 627.618L547.552 630.657L549.893 633.719L552.218 636.759L554.542 639.798L556.883 642.860L559.226 645.922L561.550 648.962L563.874 652L566.232 655.085L568.573 658.147L570.932 661.232L573.290 664.316L575.650 667.401L578.010 670.483L580.375 673.563L582.745 676.639L585.123 679.708L587.509 682.771L589.902 685.829L592.304 688.880L594.714 691.925L597.132 694.964L599.558 697.996L602.009 701.045L604.450 704.067L606.930 707.130L609.394 710.169L611.859 713.208L614.341 716.269L616.841 719.352L619.324 722.412L621.806 725.474L624.289 728.535L626.772 731.596L629.255 734.657L631.737 737.718L634.220 740.778L636.702 743.839L639.185 746.900L641.667 749.961L644.150 753.022L646.632 756.082L649.115 759.143L651.597 762.204L654.080 765.264L656.541 768.298L659.024 771.360L661.503 774.418L664.023 777.525L666.525 780.609L669.054 783.728L671.596 786.862L674.139 789.998L676.664 793.112L677.922 794.664L679.205 796.245L680.499 797.841L681.800 799.445" stroke="#000000" stroke-width="45" fill="none" stroke-linecap="round" stroke-linejoin="round" /> <path id="path-2-1" d="M718.775 845.391L722.137 847.588L722.137 847.588L724.421 844.481" stroke="#000000" stroke-width="45" fill="none" stroke-linecap="round" stroke-linejoin="round" /> <path id="path-3-1" d="M394.978 519.224L393.403 520.556L391.869 521.855L390.316 523.172L388.785 524.471L385.700 527.064L382.602 529.689L379.511 532.323L376.410 534.964L373.359 537.563L370.314 540.157L367.269 542.752L364.224 545.346L361.172 547.947L358.129 550.540L355.069 553.148L352.024 555.742L348.964 558.350L345.917 560.946L342.865 563.546L339.813 566.147L336.770 568.740L333.702 571.354L330.660 573.947L327.587 576.565L324.495 579.199L321.428 581.813L318.331 584.452L315.237 587.093L312.131 589.753L309.050 592.396L305.943 595.072L302.869 597.727L299.777 600.404L296.702 603.074L293.630 605.747L290.594 608.399L287.540 611.073L284.501 613.738L281.452 616.421L278.425 619.083L275.377 621.765L272.325 624.458L269.278 627.156L266.243 629.852L263.196 632.568L260.170 635.276L257.140 637.998L254.081 640.756L251.014 643.540L247.980 646.323L244.940 649.142L241.928 651.954L238.939 654.777L235.960 657.625L233.015 660.504L230.104 663.423L227.239 666.383L224.445 669.353L221.746 672.312L219.133 675.289L216.588 678.301L214.126 681.314L211.745 684.385L209.485 687.453L207.263 690.646L205.188 693.739L203.157 696.906L201.245 699.980L199.411 703.074L197.671 706.175L196.040 709.276L194.508 712.367L193.060 715.478L191.700 718.554L190.395 721.638L189.217 724.644L188.068 727.774L187.060 730.775L186.100 733.910L185.241 736.975L184.446 740.109L183.721 743.205L183.055 746.323L182.448 749.425L181.916 752.472L181.445 755.574L181.039 758.655L180.706 761.701L180.419 764.794L180.185 767.841L179.978 770.950L179.815 774L179.685 777.071L179.595 780.102L179.549 783.108L179.545 786.140L179.596 789.147L179.680 792.149L179.791 795.128L179.935 798.146L180.102 801.100L180.312 804.135L180.553 807.092L180.859 810.115L181.207 813.070L181.613 816.110L182.067 819.210L182.566 822.284L183.089 825.279L183.660 828.300L184.294 831.345L184.988 834.466L185.696 837.419L186.458 840.435L187.247 843.399L188.079 846.458L188.937 849.475L189.837 852.452L190.799 855.429L191.843 858.489L192.937 861.533L194.063 864.515L195.247 867.507L196.518 870.580L197.879 873.708L199.307 876.840L200.817 879.956L202.410 883.076L204.070 886.211L205.788 889.344L207.600 892.485L209.517 895.646L211.539 898.801L213.657 901.930L215.846 905.040L218.121 908.125L220.469 911.155L222.926 914.181L225.438 917.165L228.041 920.152L230.691 923.095L233.431 926.028L236.183 928.870L238.988 931.660L241.867 934.413L244.772 937.099L247.710 939.700L250.724 942.262L253.749 944.723L256.829 947.117L259.878 949.371L263.003 951.562L266.055 953.605L269.207 955.610L272.357 957.527L275.462 959.330L278.614 961.059L281.760 962.697L284.869 964.241L288.054 965.732L291.225 967.143L294.432 968.499L297.606 969.764L300.773 970.975L303.887 972.123L307.007 973.227L310.150 974.261L313.248 975.225L316.371 976.131L319.480 976.974L322.516 977.733L325.491 978.434L328.528 979.098L331.499 979.706L334.519 980.283L337.601 980.814L340.587 981.277L343.570 981.715L346.582 982.125L349.559 982.487L352.557 982.824L355.540 983.133L358.585 983.407L361.568 983.632L364.617 983.828L367.685 983.982L370.683 984.087L373.735 984.172L376.792 984.230L379.845 984.278L382.895 984.317L385.945 984.338L388.996 984.345L392.046 984.352L395.096 984.359L398.147 984.366L401.171 984.373L404.196 984.382L407.247 984.393L410.287 984.405L413.334 984.412L416.384 984.414L419.434 984.410L422.484 984.403L425.535 984.390L428.585 984.374L431.659 984.351L434.747 984.324L437.784 984.291L440.858 984.254L443.907 984.214L446.957 984.170L450.008 984.126L453.058 984.083L456.108 984.039L459.158 983.996L462.209 983.952L465.258 983.903L468.307 983.834L471.409 983.747L474.459 983.646L477.533 983.524L480.621 983.380L483.728 983.215L486.837 983.029L489.880 982.828L492.994 982.594L496.041 982.334L499.132 982.025L502.142 981.703L505.213 981.334L508.317 980.923L511.342 980.495L514.420 980.022L517.407 979.532L520.458 978.995L523.587 978.404L526.649 977.776L529.782 977.097L532.848 976.389L535.910 975.652L539.045 974.847L542.101 974.032L545.235 973.167L548.302 972.279L551.366 971.366L554.377 970.413L557.368 969.424L560.344 968.388L563.305 967.310L566.269 966.193L569.310 965.015L572.218 963.844L575.215 962.607L578.216 961.334L581.202 960.027L584.294 958.650L587.384 957.228L590.534 955.722L593.604 954.233L596.697 952.698L599.777 951.133L602.861 949.527L605.929 947.891L608.976 946.212L612.021 944.476L615.083 942.684L618.116 940.846L621.153 938.963L624.114 937.093L627.161 935.135L630.215 933.132L633.291 931.073L636.366 928.967L639.459 926.790L642.564 924.559L645.654 922.297L648.723 920.005L651.815 917.646L654.867 915.275L657.967 912.824L661.076 910.305L664.136 907.774L667.201 905.195L670.285 902.559L673.356 899.900L676.397 897.231L679.393 894.578L680.935 893.225L682.449 891.877L683.993 890.486L685.507 889.105" stroke="#000000" stroke-width="45" fill="none" stroke-linecap="round" stroke-linejoin="round" /> <path id="path-4-1" d="M404.767 444.480L403.524 442.901L402.260 441.293L400.989 439.676L399.745 438.093L397.268 434.953L394.760 431.764L392.291 428.617L389.859 425.517L387.392 422.371L384.961 419.274L382.565 416.220L380.134 413.121L377.742 410.072L375.380 407.060L372.982 404.003L370.586 400.949L368.225 397.938L365.827 394.881L363.432 391.827L361.070 388.817L358.672 385.759L356.278 382.707L353.923 379.695L351.575 376.671L349.204 373.595L346.881 370.561L344.566 367.518L342.261 364.467L340 361.450L337.715 358.378L335.442 355.304L333.216 352.271L331.001 349.231L328.821 346.218L326.643 343.209L324.470 340.197L322.313 337.171L320.181 334.135L318.084 331.129L316 328.117L313.978 325.133L312.004 322.163L310.038 319.127L308.126 316.110L306.220 313.039L304.375 309.939L302.636 306.895L300.953 303.862L299.312 300.803L297.717 297.724L296.202 294.650L294.756 291.584L293.348 288.461L292.041 285.414L290.796 282.357L289.615 279.309L288.497 276.274L287.443 273.225L286.458 270.178L285.551 267.149L284.713 264.113L283.934 261.064L283.214 258.025L282.577 255.009L282.004 251.984L281.491 248.943L281.057 245.906L280.692 242.873L280.380 239.833L280.116 236.771L279.899 233.731L279.720 230.690L279.585 227.657L279.484 224.616L279.406 221.587L279.369 218.565L279.379 215.534L279.438 212.508L279.539 209.475L279.681 206.456L279.873 203.440L280.114 200.421L280.407 197.390L280.761 194.346L281.174 191.312L281.648 188.274L282.188 185.217L282.798 182.163L283.466 179.131L284.192 176.098L284.971 173.063L285.814 169.998L286.718 166.926L287.694 163.872L288.750 160.810L289.885 157.762L291.120 154.696L292.419 151.614L293.760 148.558L295.166 145.460L296.641 142.359L298.205 139.251L299.889 136.144L301.666 133.044L303.524 129.941L305.476 126.823L307.490 123.696L309.554 120.598L311.724 117.499L313.986 114.415L316.368 111.342L318.860 108.278L321.449 105.217L324.055 102.251L326.762 99.297L329.525 96.399L332.366 93.574L335.279 90.814L338.255 88.119L341.242 85.526L344.265 82.982L347.329 80.493L350.399 78.110L353.481 75.844L356.567 73.656L359.646 71.560L362.766 69.523L365.831 67.594L368.923 65.717L372.005 63.910L375.116 62.159L378.224 60.482L381.290 58.929L384.383 57.444L387.455 56.020L390.548 54.644L393.624 53.333L396.675 52.089L399.731 50.902L402.773 49.777L405.844 48.724L408.903 47.753L411.974 46.846L415.036 45.993L418.071 45.196L421.106 44.449L424.150 43.752L427.185 43.106L430.222 42.520L433.276 41.998L436.326 41.552L439.364 41.154L442.288 40.803L445.212 40.493L448.160 40.225L451.101 40L454.048 39.813L456.987 39.668L459.927 39.602L462.880 39.586L465.834 39.603L468.781 39.663L471.735 39.768L474.793 39.912L477.842 40.108L480.885 40.348L483.921 40.639L486.964 40.983L490.016 41.402L493.065 41.852L496.101 42.355L499.137 42.919L502.184 43.528L505.225 44.193L508.265 44.920L511.309 45.700L514.380 46.557L517.428 47.464L520.494 48.429L523.551 49.420L526.615 50.456L529.661 51.550L532.724 52.709L535.753 53.925L538.847 55.221L541.919 56.556L545.013 57.951L548.083 59.411L551.234 60.992L554.358 62.652L557.477 64.410L560.600 66.255L563.781 68.194L566.926 70.191L570.081 72.266L573.210 74.416L576.363 76.698L579.458 79.060L582.543 81.538L585.534 84.046L588.528 86.652L591.478 89.306L594.414 92.055L597.249 94.825L600.066 97.705L602.822 100.649L605.440 103.627L607.960 106.620L610.455 109.704L612.828 112.736L615.171 115.851L617.391 118.933L619.546 122.066L621.578 125.163L623.539 128.306L625.377 131.401L627.149 134.520L628.846 137.629L630.483 140.771L632.005 143.859L633.474 146.982L634.843 150.053L636.159 153.153L637.377 156.245L638.528 159.343L639.603 162.422L640.611 165.526L641.540 168.613L642.412 171.699L643.219 174.757L643.969 177.811L644.660 180.876L645.292 183.939L645.845 187.004L646.334 190.061L646.753 193.133L647.107 196.201L647.409 199.258L647.659 202.304L647.861 205.360L648.012 208.408L648.119 211.463L648.183 214.509L648.192 217.560L648.141 220.607L648.054 223.663L647.931 226.715L647.767 229.762L647.559 232.817L647.307 235.864L646.997 238.917L646.621 241.978L646.167 245.041L645.636 248.087L645.032 251.131L644.378 254.179L643.658 257.257L642.885 260.334L642.064 263.416L641.187 266.493L640.230 269.604L639.217 272.696L638.133 275.765L636.973 278.851L635.756 281.935L634.469 285.042L633.115 288.173L631.706 291.285L630.209 294.412L628.607 297.541L626.883 300.714L625.097 303.844L623.234 306.981L621.300 310.131L619.271 313.285L617.153 316.422L614.965 319.510L612.667 322.589L610.295 325.612L607.823 328.629L605.275 331.642L602.713 334.569L600.059 337.515L597.319 340.469L594.510 343.427L591.675 346.364L588.786 349.338L585.849 352.339L582.901 355.328L579.905 358.357L576.903 361.380L573.932 364.355L570.911 367.353L567.878 370.330L564.829 373.289L561.761 376.231L558.677 379.155L555.620 382.022L552.549 384.868L549.460 387.696L546.402 390.466L543.335 393.217L540.217 396.001L537.135 398.746L534.055 401.490L530.975 404.234L527.896 406.976L524.863 409.677L521.786 412.417L518.708 415.158L515.675 417.860L512.598 420.600L509.520 423.341L506.487 426.043L503.410 428.782L500.331 431.524L497.251 434.267L494.174 437.007L491.097 439.747L488.018 442.490L486.497 443.844L484.940 445.230L483.395 446.606L481.867 447.966" stroke="#000000" stroke-width="45" fill="none" stroke-linecap="round" stroke-linejoin="round" /> <path id="path-6-1" d="M756.830 892.280L758.111 893.793L759.418 895.351L760.735 896.937L762.019 898.494L764.597 901.557L767.188 904.691L769.745 907.822L772.269 910.928L774.795 914.052L777.310 917.172L779.775 920.250L782.265 923.370L784.724 926.458L787.140 929.493L789.595 932.578L792.015 935.617L794.435 938.658L796.857 941.701L799.237 944.692L801.638 947.724L803.976 950.668L806.351 953.652L808.743 956.648L811.172 959.655L812.372 961.160L813.540 962.623L814.713 964.093L815.895 965.573" stroke="#000000" stroke-width="45" fill="none" stroke-linecap="round" stroke-linejoin="round" /> <path id="path-7-1" d="M753.269 801.740L754.328 800.122L755.390 798.492L756.455 796.847L757.501 795.208L759.625 791.937L761.667 788.730L763.715 785.492L765.713 782.284L767.653 779.127L769.591 775.967L771.455 772.883L773.329 769.758L775.163 766.692L776.958 763.655L778.752 760.591L780.515 757.605L782.266 754.735L783.873 752.011L785.487 749.266L787.133 746.547L788.828 743.809L790.420 741.049L792.166 738.362L793.786 735.627L795.389 732.864L796.948 730.128L798.501 727.310L800.022 724.350L801.642 721.233L803.215 718.128L804.703 715.004L806.116 711.806L807.464 708.643L808.801 705.429L810.074 702.296L811.310 699.177L812.510 696.074L813.671 692.995L814.807 689.922L815.912 686.866L816.998 683.807L818.071 680.754L819.111 677.765L820.148 674.767L821.183 671.767L822.238 668.705L823.285 665.661L824.331 662.618L825.369 659.574L826.393 656.526L827.402 653.472L828.399 650.363L829.363 647.253L830.290 644.195L831.199 641.073L832.074 637.958L832.907 634.901L833.710 631.839L834.494 628.730L835.246 625.661L835.979 622.606L836.704 619.517L837.404 616.479L838.114 613.431L838.817 610.319L839.500 607.292L840.159 604.244L840.813 601.146L841.437 598.046L842.024 594.989L842.595 591.914L843.148 588.938L843.615 586.162L844.060 583.407L844.455 580.675" stroke="#000000" stroke-width="45" fill="none" stroke-linecap="round" stroke-linejoin="round" /> <path id="path-1-1" d="M724.421 844.481L732.390 833.641" stroke="#000000" stroke-width="45" fill="none" stroke-linecap="round" stroke-linejoin="round" /> <path id="path-3-1" d="M481.867 447.966L438.144 486.892" stroke="#000000" stroke-width="45" fill="none" stroke-linecap="round" stroke-linejoin="round" /> <path id="path-1000-1" d="M719.388 845.792L719.388 845.792" stroke="#000000" stroke-width="45" fill="none" stroke-linecap="round" stroke-linejoin="round" /> <path id="path-1001-1" d="M681.800 799.445L720.681 848.633" stroke="#000000" stroke-width="45" fill="none" stroke-linecap="round" stroke-linejoin="round" /> <path id="path-1002-1" d="M718.775 845.391L720.681 848.633" stroke="#000000" stroke-width="45" fill="none" stroke-linecap="round" stroke-linejoin="round" /> <path id="path-1003-1" d="M685.507 889.105L720.681 848.633" stroke="#000000" stroke-width="45" fill="none" stroke-linecap="round" stroke-linejoin="round" /> <path id="path-1004-1" d="M756.830 892.280L720.681 848.633" stroke="#000000" stroke-width="45" fill="none" stroke-linecap="round" stroke-linejoin="round" /> <path id="path-1005-1" d="M753.269 801.740L720.681 848.633" stroke="#000000" stroke-width="45" fill="none" stroke-linecap="round" stroke-linejoin="round" /> <path id="path-1006-1" d="M469.962 529.339L436.603 485.825" stroke="#000000" stroke-width="45" fill="none" stroke-linecap="round" stroke-linejoin="round" /> <path id="path-1007-1" d="M394.978 519.224L436.603 485.825" stroke="#000000" stroke-width="45" fill="none" stroke-linecap="round" stroke-linejoin="round" /> <path id="path-1008-1" d="M404.767 444.480L436.603 485.825" stroke="#000000" stroke-width="45" fill="none" stroke-linecap="round" stroke-linejoin="round" /> <path id="path-1009-1" d="M438.144 486.892L438.144 486.892" stroke="#000000" stroke-width="45" fill="none" stroke-linecap="round" stroke-linejoin="round" /> </g> </svg>