<?xml version="1.0" encoding="UTF-8"?>
<svg xmlns="http://www.w3.org/2000/svg" width="1024" height="1024" viewBox="0 0 1024 1024" preserveAspectRatio="none"> <g id="skeleton-shapes"> <path id="path-1-1" d="M210.303 54.403L213.767 55.764L217.129 58.027" stroke="#000000" stroke-width="45" fill="none" stroke-linecap="round" stroke-linejoin="round" /> <path id="path-2-1" d="M244.316 73.764L245.859 74.721L247.383 75.667L248.912 76.616L250.446 77.569L253.536 79.493L256.653 81.439L259.701 83.346L262.762 85.267L265.815 87.192L268.862 89.123L271.923 91.073L274.981 93.031L278.054 95.009L281.125 96.996L284.193 98.991L287.259 100.988L290.321 102.990L293.381 104.996L296.457 107.016L299.536 109.040L302.597 111.053L305.656 113.063L308.714 115.073L311.772 117.083L314.829 119.093L317.887 121.103L320.945 123.113L324.002 125.123L327.060 127.133L330.117 129.142L333.174 131.152L336.249 133.173L339.327 135.196L342.407 137.220L345.486 139.244L348.565 141.268L351.644 143.293L354.723 145.317L357.803 147.341L360.882 149.365L363.961 151.389L367.040 153.413L370.119 155.437L373.199 157.461L376.279 159.486L379.340 161.498L382.399 163.509L385.457 165.519L388.515 167.529L391.572 169.539L394.630 171.549L397.688 173.559L400.745 175.569L403.803 177.578L406.860 179.588L409.917 181.598L412.993 183.619L416.072 185.643L419.133 187.655L422.192 189.666L425.250 191.676L428.307 193.686L431.365 195.696L434.423 197.706L437.480 199.716L440.538 201.726L443.596 203.736L446.653 205.745L449.710 207.755L452.785 209.776L455.864 211.800L458.943 213.824L462.022 215.848L465.101 217.872L468.180 219.896L471.260 221.920L474.339 223.944L477.418 225.968L480.497 227.992L483.576 230.016L486.656 232.040L489.736 234.065L492.797 236.077L495.856 238.088L498.914 240.098L501.971 242.108L505.029 244.118L508.087 246.128L511.144 248.138L514.202 250.148L517.260 252.157L520.317 254.167L523.374 256.177L526.450 258.198L529.528 260.222L532.590 262.234L535.649 264.245L538.706 266.255L541.764 268.265L544.822 270.275L547.879 272.285L550.937 274.295L553.995 276.305L557.052 278.314L560.110 280.324L563.167 282.334L566.242 284.355L569.320 286.379L572.400 288.403L575.479 290.427L578.558 292.451L581.637 294.475L584.717 296.499L587.796 298.523L590.875 300.547L593.954 302.571L597.033 304.595L600.113 306.619L603.192 308.644L606.272 310.668L609.333 312.680L612.392 314.691L615.449 316.701L618.507 318.711L621.565 320.721L624.622 322.731L627.680 324.741L630.739 326.751L633.729 328.717L636.767 330.712L639.804 332.706L642.861 334.710L645.923 336.715L648.970 338.705L652.016 340.690L655.063 342.669L658.114 344.645L661.168 346.616L664.206 348.571L667.312 350.565L670.370 352.525L673.432 354.482L676.495 356.436L679.558 358.387L682.640 360.350L685.726 362.314L688.815 364.279L691.885 366.232L694.950 368.184L698.032 370.147L701.118 372.111L704.206 374.076L707.295 376.041L710.365 377.994L713.432 379.946L716.497 381.897L719.561 383.851L722.621 385.808L725.697 387.781L728.774 389.760L731.850 391.742L734.923 393.729L737.994 395.719L741.061 397.713L744.145 399.722L747.228 401.734L750.334 403.766L753.464 405.816L756.594 407.865L759.775 409.947L762.957 412.029L766.208 414.164L769.432 416.291L772.696 418.475L775.961 420.681L777.601 421.768L779.265 422.874L780.926 423.983L782.582 425.096" stroke="#000000" stroke-width="45" fill="none" stroke-linecap="round" stroke-linejoin="round" /> <path id="path-3-1" d="M623.950 557.551L625.697 556.806L627.388 556.088L629.137 555.348L630.767 554.662L634.153 553.240L637.435 551.855L640.683 550.491L643.894 549.150L647.097 547.822L650.264 546.521L653.399 545.244L656.491 543.995L659.584 542.754L662.590 541.556L665.759 540.297L668.912 539.051L671.995 537.837L675.083 536.628L678.152 535.428L681.222 534.229L684.365 533.002L687.490 531.781L690.542 530.589L693.612 529.389L696.683 528.190L699.664 527.026L702.645 525.862L705.788 524.634L708.839 523.442L711.909 522.243L714.980 521.043L717.961 519.879L720.942 518.715L724.085 517.487L727.136 516.295L730.206 515.096L733.276 513.897L736.347 512.697L739.328 511.533L742.469 510.306L745.520 509.114L748.588 507.914L751.701 506.696L754.864 505.458L757.990 504.235L761.266 502.953L764.557 501.656L767.879 500.328L769.518 499.683L771.188 499.024L772.780 498.395L774.513 497.708" stroke="#000000" stroke-width="45" fill="none" stroke-linecap="round" stroke-linejoin="round" /> <path id="path-4-1" d="M598.475 588.650L598.970 590.516L599.456 592.320L600.121 594.386L600.831 596.331L601.984 600.064L603.304 603.803L604.778 607.545L606.430 611.176L608.084 614.505L609.875 617.944L611.763 621.304L613.666 624.624L615.666 627.938L617.592 630.970L619.528 634.033L621.460 637.108L623.375 640.169L625.295 643.252L627.211 646.339L629.123 649.429L631.031 652.522L632.932 655.620L634.829 658.722L636.720 661.826L638.595 664.913L640.467 667.999L642.327 671.065L644.198 674.149L646.070 677.235L647.931 680.302L649.791 683.368L651.661 686.452L653.522 689.518L655.381 692.583L657.240 695.648L659.100 698.713L660.959 701.778L662.819 704.844L664.678 707.909L666.537 710.974L668.397 714.039L670.256 717.104L672.104 720.150L673.963 723.214L675.822 726.279L677.670 729.325L679.528 732.389L681.376 735.436L683.235 738.500L685.094 741.565L686.953 744.630L688.812 747.695L690.672 750.760L692.531 753.826L694.391 756.891L696.250 759.956L698.109 763.021L699.969 766.087L701.828 769.152L703.688 772.217L705.547 775.282L707.395 778.328L709.254 781.392L711.101 784.438L712.960 787.503L714.819 790.567L716.668 793.614L718.526 796.678L720.374 799.724L722.232 802.788L724.091 805.852L725.950 808.918L727.810 811.984L729.670 815.051L731.518 818.103L733.339 821.142L735.140 824.186L736.939 827.257L738.726 830.337L740.491 833.455L742.208 836.577L743.911 839.659L745.637 842.733L747.262 845.767L748.811 848.794L750.306 851.849L751.110 853.412L751.906 854.968L752.681 856.509L753.424 858.026" stroke="#000000" stroke-width="45" fill="none" stroke-linecap="round" stroke-linejoin="round" /> <path id="path-5-1" d="M760.397 887.068L761.045 880.572" stroke="#000000" stroke-width="45" fill="none" stroke-linecap="round" stroke-linejoin="round" /> <path id="path-6-1" d="M639.286 968.160L640.807 967.245L642.339 966.323L643.859 965.409L645.389 964.488L648.410 962.669L651.468 960.829L654.540 958.981L657.612 957.134L660.685 955.286L663.757 953.438L666.830 951.590L669.902 949.743L672.974 947.895L676.046 946.047L679.118 944.200L682.191 942.352L685.263 940.505L688.335 938.657L691.407 936.809L694.479 934.962L697.551 933.115L700.604 931.278L703.701 929.414L706.804 927.547L709.979 925.636L713.157 923.723L716.384 921.777L719.620 919.807L722.866 917.796L726.169 915.727L729.425 913.683L731.073 912.666L732.760 911.619L734.440 910.570L736.144 909.497" stroke="#000000" stroke-width="45" fill="none" stroke-linecap="round" stroke-linejoin="round" /> <path id="path-7-1" d="M430.910 716.108L431.881 717.684L432.854 719.266L433.828 720.849L434.789 722.411L436.659 725.449L438.477 728.403L440.401 731.527L442.374 734.732L444.333 737.913L446.249 741.026L448.179 744.160L450.077 747.243L451.961 750.301L453.840 753.351L455.731 756.419L457.623 759.491L459.517 762.565L461.412 765.641L463.294 768.697L465.174 771.748L467.065 774.817L468.958 777.890L470.841 780.946L472.733 784.019L474.616 787.075L476.496 790.127L478.375 793.177L480.267 796.247L482.149 799.301L484.042 802.374L485.924 805.430L487.804 808.482L489.684 811.532L491.575 814.602L493.457 817.657L495.350 820.730L497.232 823.786L499.113 826.838L500.992 829.888L502.882 832.958L504.761 836.014L506.648 839.090L508.520 842.153L510.387 845.214L512.247 848.276L514.114 851.360L515.966 854.431L517.826 857.524L519.671 860.603L521.509 863.683L523.343 866.764L525.174 869.846L527.004 872.928L528.833 876.013L530.664 879.100L532.484 882.168L534.301 885.232L536.117 888.294L537.933 891.355L539.761 894.437L541.579 897.504L543.396 900.568L545.212 903.629L547.028 906.691L548.856 909.773L550.674 912.839L552.491 915.902L554.306 918.962L556.133 922.040L557.960 925.119L559.802 928.224L561.671 931.373L563.543 934.527L565.457 937.753L567.375 940.980L569.329 944.218L571.316 947.485L573.313 950.744L574.307 952.394L575.314 954.061L576.339 955.751L577.364 957.431" stroke="#000000" stroke-width="45" fill="none" stroke-linecap="round" stroke-linejoin="round" /> <path id="path-9-1" d="M248.914 808.477L250.451 807.169L251.983 805.865L253.512 804.561L255.054 803.246L258.070 800.684L261.150 798.061L264.217 795.445L267.296 792.812L270.373 790.179L273.437 787.558L276.523 784.918L279.578 782.304L282.656 779.671L285.711 777.057L288.775 774.437L291.876 771.784L294.931 769.170L298.025 766.524L301.087 763.904L304.166 761.271L307.244 758.638L310.307 756.017L313.400 753.371L316.456 750.757L319.557 748.105L322.618 745.485L325.675 742.871L328.753 740.238L331.809 737.623L334.895 734.983L337.950 732.369L341.028 729.736L344.083 727.123L347.146 724.503L350.210 721.884L353.279 719.267L356.351 716.648L357.880 715.342L359.413 714.033L360.948 712.723L362.465 711.428" stroke="#000000" stroke-width="45" fill="none" stroke-linecap="round" stroke-linejoin="round" /> <path id="path-10-1" d="M177.785 91.598L177.787 93.346L177.789 95.058L177.791 96.761L177.793 98.433L177.797 101.947L177.800 105.415L177.803 108.738L177.806 111.965L177.809 115.123L177.812 118.209L177.815 121.227L177.817 124.326L177.819 127.416L177.821 130.482L177.823 133.548L177.824 136.614L177.826 139.680L177.828 142.746L177.830 145.812L177.832 148.878L177.834 151.944L177.836 155.010L177.837 158.076L177.839 161.142L177.841 164.208L177.843 167.274L177.845 170.339L177.847 173.405L177.849 176.471L177.851 179.537L177.852 182.603L177.854 185.669L177.856 188.735L177.858 191.801L177.860 194.867L177.862 197.933L177.864 200.999L177.865 204.065L177.867 207.131L177.869 210.197L177.871 213.263L177.873 216.329L177.875 219.395L177.877 222.461L177.878 225.526L177.880 228.592L177.882 231.658L177.884 234.724L177.886 237.790L177.888 240.856L177.890 243.922L177.892 246.988L177.893 250.054L177.895 253.120L177.897 256.186L177.899 259.252L177.901 262.318L177.903 265.384L177.905 268.450L177.906 271.516L177.908 274.582L177.910 277.648L177.912 280.713L177.914 283.779L177.916 286.845L177.918 289.911L177.920 292.977L177.921 296.043L177.923 299.109L177.925 302.175L177.927 305.241L177.929 308.307L177.931 311.373L177.933 314.439L177.934 317.505L177.936 320.571L177.938 323.637L177.940 326.703L177.942 329.769L177.944 332.835L177.946 335.900L177.947 338.966L177.949 342.032L177.951 345.098L177.953 348.164L177.955 351.230L177.957 354.296L177.959 357.362L177.961 360.428L177.962 363.494L177.964 366.560L177.966 369.626L177.968 372.692L177.970 375.758L177.972 378.824L177.974 381.890L177.975 384.956L177.977 388.022L177.979 391.087L177.981 394.153L177.983 397.219L177.985 400.285L177.987 403.351L177.989 406.417L177.990 409.483L177.992 412.549L177.994 415.615L177.996 418.681L177.998 421.747L178 424.813L178.002 427.879L178.003 430.945L178.005 434.011L178.007 437.077L178.009 440.143L178.011 443.209L178.013 446.275L178.015 449.340L178.016 452.406L178.018 455.472L178.020 458.538L178.022 461.604L178.024 464.670L178.026 467.736L178.028 470.802L178.030 473.868L178.031 476.934L178.033 480L178.035 483.066L178.037 486.132L178.039 489.198L178.041 492.264L178.043 495.330L178.044 498.396L178.046 501.462L178.048 504.527L178.050 507.593L178.052 510.659L178.054 513.725L178.056 516.791L178.058 519.857L178.059 522.923L178.061 525.989L178.063 529.055L178.065 532.121L178.067 535.187L178.069 538.253L178.071 541.319L178.072 544.385L178.074 547.451L178.076 550.517L178.078 553.583L178.080 556.649L178.082 559.714L178.084 562.780L178.086 565.846L178.087 568.912L178.089 571.978L178.091 575.044L178.093 578.110L178.095 581.176L178.097 584.242L178.099 587.308L178.100 590.374L178.102 593.440L178.104 596.506L178.106 599.572L178.108 602.638L178.110 605.704L178.112 608.770L178.113 611.836L178.115 614.901L178.117 617.967L178.119 621.033L178.121 624.099L178.123 627.165L178.125 630.231L178.127 633.297L178.128 636.363L178.130 639.429L178.132 642.495L178.134 645.561L178.136 648.627L178.138 651.693L178.140 654.759L178.141 657.825L178.143 660.891L178.145 663.957L178.147 667.023L178.149 670.088L178.151 673.154L178.153 676.220L178.155 679.286L178.156 682.352L178.158 685.418L178.160 688.484L178.162 691.550L178.164 694.616L178.166 697.682L178.168 700.748L178.169 703.814L178.171 706.880L178.173 709.946L178.175 713.012L178.177 716.078L178.179 719.144L178.181 722.210L178.182 725.275L178.184 728.341L178.186 731.407L178.188 734.473L178.190 737.539L178.192 740.605L178.194 743.671L178.196 746.737L178.197 749.803L178.199 752.869L178.201 755.935L178.203 759L178.205 762.067L178.207 765.050L178.209 767.982L178.212 771.050L178.215 774.188L178.218 777.377L178.221 780.641L178.224 783.899L178.227 787.059L178.230 790.312L178.232 791.911L178.234 793.523L178.236 795.270L178.238 797.158" stroke="#000000" stroke-width="45" fill="none" stroke-linecap="round" stroke-linejoin="round" /> <path id="path-11-1" d="M601.110 983.600L604.588 984.471L611.045 983.544" stroke="#000000" stroke-width="45" fill="none" stroke-linecap="round" stroke-linejoin="round" /> <path id="path-0-1" d="M217.129 58.027L280.720 100.820" stroke="#000000" stroke-width="45" fill="none" stroke-linecap="round" stroke-linejoin="round" /> <path id="path-1-1" d="M782.582 425.096L846.215 467.827" stroke="#000000" stroke-width="45" fill="none" stroke-linecap="round" stroke-linejoin="round" /> <path id="path-2-1" d="M623.950 557.551L593.645 570.466" stroke="#000000" stroke-width="45" fill="none" stroke-linecap="round" stroke-linejoin="round" /> <path id="path-2-1" d="M774.513 497.708L845.776 469.484" stroke="#000000" stroke-width="45" fill="none" stroke-linecap="round" stroke-linejoin="round" /> <path id="path-3-1" d="M598.475 588.650L593.645 570.466" stroke="#000000" stroke-width="45" fill="none" stroke-linecap="round" stroke-linejoin="round" /> <path id="path-4-1" d="M761.045 880.572L761.625 874.757" stroke="#000000" stroke-width="45" fill="none" stroke-linecap="round" stroke-linejoin="round" /> <path id="path-6-1" d="M430.910 716.108L405.452 674.767" stroke="#000000" stroke-width="45" fill="none" stroke-linecap="round" stroke-linejoin="round" /> <path id="path-7-1" d="M248.914 808.477L190.524 858.132" stroke="#000000" stroke-width="45" fill="none" stroke-linecap="round" stroke-linejoin="round" /> <path id="path-7-1" d="M362.465 711.428L405.452 674.767" stroke="#000000" stroke-width="45" fill="none" stroke-linecap="round" stroke-linejoin="round" /> <path id="path-8-1" d="M178.238 797.158L178.321 873.806" stroke="#000000" stroke-width="45" fill="none" stroke-linecap="round" stroke-linejoin="round" /> <path id="path-1000-1" d="M593.645 570.466L593.645 570.466" stroke="#000000" stroke-width="45" fill="none" stroke-linecap="round" stroke-linejoin="round" /> <path id="path-1001-1" d="M405.452 674.767L405.452 674.767" stroke="#000000" stroke-width="45" fill="none" stroke-linecap="round" stroke-linejoin="round" /> <path id="path-1002-1" d="M210.303 54.403L178.090 39.529" stroke="#000000" stroke-width="45" fill="none" stroke-linecap="round" stroke-linejoin="round" /> <path id="path-1003-1" d="M177.785 91.598L178.090 39.529" stroke="#000000" stroke-width="45" fill="none" stroke-linecap="round" stroke-linejoin="round" /> <path id="path-1004-1" d="M244.316 73.764L178.090 39.529" stroke="#000000" stroke-width="45" fill="none" stroke-linecap="round" stroke-linejoin="round" /> <path id="path-1005-1" d="M753.424 858.026L761.883 893.275" stroke="#000000" stroke-width="45" fill="none" stroke-linecap="round" stroke-linejoin="round" /> <path id="path-1006-1" d="M760.397 887.068L761.883 893.275" stroke="#000000" stroke-width="45" fill="none" stroke-linecap="round" stroke-linejoin="round" /> <path id="path-1007-1" d="M736.144 909.497L761.883 893.275" stroke="#000000" stroke-width="45" fill="none" stroke-linecap="round" stroke-linejoin="round" /> <path id="path-1008-1" d="M601.110 983.600L593.647 984.109" stroke="#000000" stroke-width="45" fill="none" stroke-linecap="round" stroke-linejoin="round" /> <path id="path-1009-1" d="M639.286 968.160L593.647 984.109" stroke="#000000" stroke-width="45" fill="none" stroke-linecap="round" stroke-linejoin="round" /> <path id="path-1010-1" d="M577.364 957.431L593.647 984.109" stroke="#000000" stroke-width="45" fill="none" stroke-linecap="round" stroke-linejoin="round" /> </g> </svg>