<?xml version="1.0" encoding="UTF-8"?>
<svg xmlns="http://www.w3.org/2000/svg" width="1024" height="1024" viewBox="0 0 1024 1024" preserveAspectRatio="none" overflow="visible"> <g id="skeleton-shapes"> <path id="path-1-1" d="M290.619 145.870L293.686 145.665L296.700 145.507L299.650 145.381L302.554 145.279L308.454 144.646L314.308 144.342L320.190 144.245L325.907 144.250L331.485 144.256L336.910 144.262L342.357 144.269L347.773 144.276L353.165 144.282L358.557 144.289L363.949 144.296L369.342 144.303L374.734 144.310L380.126 144.317L385.518 144.324L390.910 144.331L396.303 144.337L401.695 144.344L407.087 144.351L412.479 144.358L417.871 144.365L423.264 144.372L428.656 144.379L434.048 144.386L439.440 144.392L444.832 144.399L450.225 144.406L455.617 144.413L461.009 144.420L466.401 144.427L471.793 144.434L477.186 144.441L482.578 144.448L487.970 144.454L493.362 144.461L498.754 144.468L504.147 144.475L509.539 144.482L514.931 144.489L520.323 144.496L525.715 144.503L531.108 144.509L536.500 144.516L541.892 144.523L547.284 144.530L552.676 144.537L558.069 144.544L563.461 144.551L568.853 144.558L574.245 144.564L579.637 144.571L585.030 144.578L590.422 144.585L595.814 144.592L601.206 144.599L606.598 144.606L611.991 144.613L617.383 144.619L622.770 144.626L628.148 144.633L633.545 144.639L638.882 144.646L644.234 144.652L649.626 144.659L655.018 144.666L660.411 144.673L665.803 144.680L671.195 144.687L676.587 144.694L681.984 144.701L687.390 144.708L692.778 144.715L698.225 144.723L703.658 144.730L709.050 144.736L714.442 144.743L719.834 144.750L725.227 144.757L730.619 144.764L736.011 144.771L741.403 144.778L746.795 144.785L752.188 144.791L757.580 144.798L762.972 144.805L768.364 144.812L773.756 144.819L779.149 144.826L784.541 144.833L789.933 144.840L795.325 144.846L800.717 144.853L806.110 144.860L811.502 144.867L816.894 144.874L822.286 144.881L827.678 144.888L833.071 144.895L838.463 144.901L843.855 144.908L849.247 144.915L854.639 144.922L860.032 144.929L865.424 144.936L870.816 144.943L876.208 144.950L881.600 144.956L886.993 144.963L892.385 144.970L897.777 144.977L903.169 144.984L908.561 144.991L913.953 144.998L919.346 145.005L924.738 145.011L930.130 145.018L935.522 145.025L940.914 145.032L946.307 145.039L951.699 145.046L957.091 145.053L962.483 145.060L967.875 145.067L973.268 145.073L975.964 145.077L978.660 145.080L981.356 145.084L984.052 145.087" stroke="#000000" stroke-width="45.000" fill="none" stroke-linecap="round" stroke-linejoin="round" /> <path id="path-2-1" d="M260.659 769.642L260.667 766.955L260.674 764.266L260.682 761.576L260.690 758.884L260.706 753.440L260.721 748.154L260.736 742.753L260.752 737.361L260.767 731.969L260.783 726.577L260.798 721.184L260.814 715.792L260.829 710.400L260.845 705.008L260.860 699.616L260.876 694.223L260.891 688.831L260.907 683.439L260.922 678.047L260.938 672.655L260.953 667.262L260.969 661.870L260.984 656.478L261 651.086L261.015 645.694L261.031 640.301L261.046 634.909L261.062 629.517L261.077 624.125L261.093 618.733L261.108 613.340L261.124 607.948L261.139 602.556L261.155 597.164L261.170 591.772L261.186 586.379L261.201 580.987L261.217 575.595L261.232 570.203L261.248 564.811L261.263 559.418L261.279 554.026L261.294 548.634L261.310 543.242L261.325 537.850L261.341 532.458L261.356 527.207L261.371 521.962L261.386 516.579L261.402 511.190L261.417 505.797L261.433 500.405L261.448 495.013L261.464 489.621L261.479 484.229L261.495 478.836L261.510 473.444L261.526 467.910L261.542 462.371L261.558 456.970L261.573 451.575L261.589 446.182L261.604 440.790L261.620 435.398L261.635 430.006L261.651 424.614L261.666 419.221L261.682 413.829L261.697 408.437L261.713 403.045L261.728 397.653L261.744 392.260L261.759 386.868L261.775 381.476L261.790 376.084L261.806 370.692L261.821 365.299L261.837 359.907L261.852 354.515L261.868 349.123L261.883 343.731L261.899 338.338L261.914 332.946L261.930 327.554L261.945 322.162L261.961 316.770L261.976 311.377L261.992 305.985L262.007 300.593L262.023 295.201L262.038 289.809L262.054 284.416L262.069 279.024L262.085 273.632L262.100 268.240L262.116 262.848L262.131 257.456L262.147 252.063L262.162 246.671L262.178 241.279L262.193 235.887L262.209 230.495L262.224 225.102L262.240 219.713L262.255 214.469L262.270 209.264L262.285 203.795L262.301 198.215L262.309 195.527L262.317 192.840L262.324 190.155L262.332 187.473" stroke="#000000" stroke-width="45.000" fill="none" stroke-linecap="round" stroke-linejoin="round" /> <path id="path-3-1" d="M39.948 648.210L42.606 650.913L45.268 653.619L47.933 656.327L50.599 659.037L55.867 664.401L61.214 669.833L66.563 675.267L71.913 680.701L77.262 686.133L82.537 691.491L87.807 696.845L93.076 702.197L98.345 707.549L103.614 712.901L108.882 718.254L114.151 723.606L119.420 728.958L124.689 734.310L129.958 739.663L135.228 745.018L140.571 750.447L145.919 755.880L151.269 761.315L156.619 766.749L161.969 772.184L167.319 777.618L169.993 780.336L172.668 783.053L175.343 785.770L178.018 788.487" stroke="#000000" stroke-width="45.000" fill="none" stroke-linecap="round" stroke-linejoin="round" /> <path id="path-4-1" d="M345.205 810.027L347.885 807.347L350.569 804.664L353.255 801.977L355.943 799.289L361.253 793.979L366.646 788.587L372.038 783.195L377.430 777.802L382.822 772.410L388.214 767.018L393.607 761.626L398.999 756.234L404.391 750.841L409.783 745.449L415.175 740.057L420.568 734.665L425.960 729.273L431.350 723.882L436.736 718.497L442.046 713.186L447.357 707.876L452.673 702.572L457.998 697.275L463.330 691.986L468.670 686.705L474.018 681.431L479.374 676.160L484.657 670.975L489.942 665.808L492.573 663.228L495.282 660.583L497.993 657.951L500.699 655.327" stroke="#000000" stroke-width="45.000" fill="none" stroke-linecap="round" stroke-linejoin="round" /> <path id="path-0-1" d="M290.619 145.870L262.446 147.747" stroke="#000000" stroke-width="45.000" fill="none" stroke-linecap="round" stroke-linejoin="round" /> <path id="path-1-1" d="M262.332 187.473L262.446 147.747" stroke="#000000" stroke-width="45.000" fill="none" stroke-linecap="round" stroke-linejoin="round" /> <path id="path-1000-1" d="M262.446 147.747L262.446 147.747" stroke="#000000" stroke-width="45.000" fill="none" stroke-linecap="round" stroke-linejoin="round" /> <path id="path-1001-1" d="M260.659 769.642L264.112 879.755" stroke="#000000" stroke-width="45.000" fill="none" stroke-linecap="round" stroke-linejoin="round" /> <path id="path-1002-1" d="M178.018 788.487L264.112 879.755" stroke="#000000" stroke-width="45.000" fill="none" stroke-linecap="round" stroke-linejoin="round" /> <path id="path-1003-1" d="M345.205 810.027L264.112 879.755" stroke="#000000" stroke-width="45.000" fill="none" stroke-linecap="round" stroke-linejoin="round" /> </g> </svg>
