<?xml version="1.0" encoding="UTF-8"?>
<svg xmlns="http://www.w3.org/2000/svg" width="1024" height="1024" viewBox="0 0 1024 1024" preserveAspectRatio="none"> <g id="skeleton-shapes"> <path id="path-1-1" d="M176.664 38.583L176.666 40.155L176.669 41.727L176.672 43.299L176.674 44.871L176.680 48.014L176.685 51.158L176.690 54.302L176.696 57.446L176.701 60.590L176.706 63.734L176.712 66.878L176.717 70.022L176.722 73.166L176.728 76.309L176.733 79.453L176.738 82.597L176.744 85.741L176.749 88.885L176.754 92.029L176.760 95.173L176.765 98.317L176.770 101.461L176.776 104.604L176.781 107.748L176.786 110.892L176.792 114.036L176.797 117.180L176.802 120.324L176.808 123.468L176.813 126.612L176.818 129.756L176.824 132.899L176.829 136.043L176.834 139.187L176.840 142.331L176.845 145.475L176.850 148.619L176.856 151.763L176.861 154.907L176.866 158.051L176.872 161.194L176.877 164.338L176.882 167.482L176.888 170.626L176.893 173.770L176.898 176.914L176.904 180.058L176.909 183.202L176.914 186.346L176.920 189.489L176.925 192.633L176.930 195.777L176.936 198.921L176.941 202.065L176.946 205.209L176.952 208.353L176.957 211.497L176.962 214.641L176.968 217.784L176.973 220.928L176.978 224.072L176.984 227.216L176.989 230.360L176.994 233.504L177 236.648L177.005 239.792L177.010 242.936L177.016 246.079L177.021 249.223L177.026 252.367L177.032 255.511L177.037 258.655L177.042 261.799L177.048 264.943L177.053 268.087L177.058 271.231L177.064 274.374L177.069 277.518L177.074 280.662L177.080 283.806L177.085 286.950L177.090 290.094L177.096 293.238L177.101 296.382L177.106 299.526L177.112 302.669L177.117 305.813L177.122 308.957L177.128 312.101L177.133 315.245L177.138 318.389L177.144 321.533L177.149 324.677L177.154 327.821L177.160 330.964L177.165 334.108L177.170 337.252L177.176 340.396L177.181 343.540L177.186 346.684L177.192 349.828L177.197 352.972L177.202 356.116L177.208 359.259L177.213 362.403L177.218 365.547L177.224 368.691L177.229 371.835L177.234 374.979L177.240 378.123L177.245 381.267L177.250 384.411L177.256 387.554L177.261 390.698L177.266 393.842L177.272 396.986L177.277 400.130L177.282 403.274L177.288 406.418L177.293 409.562L177.298 412.706L177.304 415.849L177.309 418.993L177.314 422.137L177.320 425.281L177.325 428.425L177.330 431.569L177.336 434.713L177.341 437.857L177.346 441L177.352 444.144L177.357 447.288L177.362 450.432L177.368 453.576L177.373 456.716L177.378 459.840L177.382 462.920L177.387 466.124L177.391 469.389L177.396 472.737L177.401 476.138L177.405 479.663L177.409 483.211L177.414 487.235L177.416 489.029L177.418 490.877L177.421 492.816L177.423 494.928" stroke="#000000" stroke-width="45" fill="none" stroke-linecap="round" stroke-linejoin="round" /> <path id="path-2-1" d="M177.426 535.275L177.428 537.077L177.430 539.022L177.432 540.835L177.434 542.525L177.437 545.979L177.441 549.529L177.444 552.764L177.446 555.958L177.449 559.328L177.452 562.642L177.454 565.892L177.457 569.063L177.459 572.076L177.460 575.140L177.462 578.284L177.464 581.428L177.465 584.571L177.467 587.715L177.469 590.859L177.470 594.003L177.472 597.147L177.474 600.291L177.476 603.435L177.477 606.579L177.479 609.723L177.481 612.866L177.482 616.010L177.484 619.154L177.486 622.298L177.487 625.442L177.489 628.586L177.491 631.730L177.492 634.874L177.494 638.018L177.496 641.161L177.498 644.305L177.499 647.449L177.501 650.593L177.503 653.737L177.504 656.881L177.506 660.025L177.508 663.169L177.509 666.313L177.511 669.456L177.513 672.600L177.515 675.744L177.516 678.888L177.518 682.032L177.520 685.176L177.521 688.320L177.523 691.464L177.525 694.608L177.526 697.751L177.528 700.895L177.530 704.039L177.531 707.183L177.533 710.327L177.535 713.471L177.537 716.615L177.538 719.759L177.540 722.903L177.542 726.046L177.543 729.190L177.545 732.334L177.547 735.478L177.548 738.622L177.550 741.766L177.552 744.910L177.553 748.054L177.555 751.198L177.557 754.341L177.559 757.485L177.560 760.629L177.562 763.773L177.564 766.917L177.565 770.061L177.567 773.205L177.569 776.349L177.570 779.493L177.572 782.636L177.574 785.780L177.575 788.924L177.577 792.068L177.579 795.212L177.581 798.356L177.582 801.500L177.584 804.644L177.586 807.788L177.587 810.931L177.589 814.075L177.591 817.219L177.592 820.363L177.594 823.507L177.596 826.651L177.598 829.795L177.599 832.939L177.601 836.083L177.603 839.226L177.604 842.370L177.606 845.514L177.608 848.658L177.609 851.802L177.611 854.946L177.613 858.090L177.614 861.234L177.616 864.378L177.618 867.521L177.620 870.665L177.621 873.809L177.623 876.953L177.625 880.097L177.626 883.241L177.628 886.385L177.630 889.529L177.631 892.673L177.633 895.816L177.635 898.960L177.636 902.104L177.638 905.248L177.640 908.392L177.642 911.536L177.643 914.680L177.645 917.824L177.647 920.968L177.648 924.111L177.650 927.255L177.652 930.399L177.653 933.543L177.655 936.687L177.657 939.831L177.658 942.975L177.660 946.119L177.662 949.263L177.664 952.406L177.665 955.550L177.667 958.694L177.669 961.838L177.670 964.982L177.672 968.126L177.674 971.270L177.675 974.414L177.676 975.986L177.677 977.558L177.678 979.129L177.679 980.701" stroke="#000000" stroke-width="45" fill="none" stroke-linecap="round" stroke-linejoin="round" /> <path id="path-3-1" d="M227.865 515.930L229.431 515.930L230.998 515.930L232.566 515.930L234.135 515.930L237.252 515.930L240.391 515.930L243.535 515.930L246.679 515.930L249.823 515.930L252.967 515.930L256.111 515.930L259.255 515.930L262.398 515.930L265.542 515.930L268.686 515.930L271.830 515.930L274.974 515.930L278.118 515.930L281.262 515.930L284.406 515.930L287.550 515.930L290.693 515.930L293.837 515.930L296.981 515.930L300.125 515.930L303.269 515.930L306.413 515.930L309.557 515.930L312.701 515.930L315.845 515.930L318.988 515.930L322.132 515.930L325.276 515.930L328.420 515.930L331.564 515.930L334.708 515.930L337.852 515.930L340.996 515.930L344.140 515.930L347.283 515.930L350.427 515.930L353.571 515.930L356.715 515.930L359.859 515.930L363.003 515.930L366.147 515.930L369.291 515.930L372.435 515.930L375.578 515.930L378.722 515.930L381.866 515.930L385.010 515.930L388.154 515.930L391.298 515.930L394.442 515.930L397.586 515.930L400.730 515.930L403.873 515.930L407.017 515.930L410.161 515.930L413.305 515.930L416.449 515.930L419.593 515.930L422.737 515.930L425.881 515.930L429.025 515.930L432.168 515.930L435.312 515.930L438.456 515.930L441.600 515.930L444.744 515.930L447.888 515.930L451.032 515.930L454.176 515.930L457.320 515.930L460.463 515.930L463.607 515.930L466.751 515.930L469.895 515.930L473.039 515.930L476.183 515.930L479.327 515.930L482.471 515.930L485.615 515.930L488.758 515.930L491.902 515.930L495.046 515.930L498.190 515.930L501.334 515.930L504.478 515.930L507.622 515.930L510.766 515.930L513.910 515.930L517.053 515.930L520.197 515.930L523.341 515.930L526.485 515.930L529.629 515.930L532.773 515.930L535.917 515.930L539.061 515.930L542.205 515.930L545.348 515.930L548.492 515.930L551.636 515.930L554.780 515.930L557.924 515.930L561.068 515.930L564.212 515.930L567.356 515.930L570.500 515.930L573.643 515.930L576.787 515.930L579.931 515.930L583.075 515.930L586.219 515.930L589.363 515.930L592.507 515.930L595.651 515.930L598.795 515.930L601.938 515.930L605.082 515.930L608.226 515.930L611.370 515.930L614.514 515.930L617.658 515.930L620.802 515.930L623.946 515.930L627.090 515.930L630.233 515.930L633.377 515.930L636.521 515.930L639.665 515.930L642.809 515.930L645.953 515.930L649.097 515.930L652.241 515.930L655.385 515.930L658.528 515.930L661.672 515.930L664.816 515.930L667.960 515.930L671.104 515.930L674.248 515.930L677.392 515.930L680.536 515.930L683.680 515.930L686.823 515.930L689.967 515.930L693.111 515.930L696.255 515.930L699.399 515.930L702.543 515.930L705.687 515.930L708.831 515.930L711.975 515.930L715.118 515.930L718.262 515.930L721.406 515.930L724.550 515.930L727.694 515.930L730.838 515.930L733.982 515.930L737.126 515.930L740.270 515.930L743.413 515.930L746.557 515.930L749.701 515.930L752.845 515.930L755.989 515.930L759.133 515.930L762.277 515.930L765.421 515.930L768.565 515.930L771.708 515.930L774.852 515.930L777.996 515.930L781.140 515.930L784.284 515.930L787.428 515.930L790.572 515.930L792.144 515.930L793.716 515.930L795.288 515.930L796.860 515.930" stroke="#000000" stroke-width="45" fill="none" stroke-linecap="round" stroke-linejoin="round" /> <path id="path-4-1" d="M847.336 546.416L847.336 548.238L847.336 550.005L847.336 551.732L847.336 553.432L847.336 557.052L847.336 560.540L847.336 563.898L847.336 567.209L847.336 570.412L847.336 573.566L847.336 576.712L847.336 579.856L847.336 583L847.336 586.143L847.336 589.287L847.336 592.431L847.336 595.575L847.336 598.719L847.336 601.863L847.336 605.007L847.336 608.151L847.336 611.294L847.336 614.438L847.336 617.582L847.336 620.726L847.336 623.870L847.336 627.014L847.336 630.158L847.336 633.302L847.336 636.446L847.336 639.589L847.336 642.733L847.336 645.877L847.336 649.021L847.336 652.165L847.336 655.309L847.336 658.453L847.336 661.597L847.336 664.741L847.336 667.884L847.336 671.028L847.336 674.172L847.336 677.316L847.336 680.460L847.336 683.604L847.336 686.748L847.336 689.892L847.336 693.036L847.336 696.179L847.336 699.323L847.336 702.467L847.336 705.611L847.336 708.755L847.336 711.899L847.336 715.043L847.336 718.187L847.336 721.331L847.336 724.474L847.336 727.618L847.336 730.762L847.336 733.906L847.336 737.050L847.336 740.194L847.336 743.338L847.336 746.482L847.336 749.626L847.336 752.769L847.336 755.913L847.336 759.057L847.336 762.201L847.336 765.345L847.336 768.489L847.336 771.633L847.336 774.777L847.336 777.921L847.336 781.064L847.336 784.208L847.336 787.352L847.336 790.496L847.336 793.640L847.336 796.784L847.336 799.928L847.336 803.072L847.336 806.216L847.336 809.359L847.336 812.503L847.336 815.647L847.336 818.791L847.336 821.935L847.336 825.079L847.336 828.223L847.336 831.367L847.336 834.511L847.336 837.654L847.336 840.798L847.336 843.942L847.336 847.086L847.336 850.230L847.336 853.374L847.336 856.518L847.336 859.662L847.336 862.806L847.336 865.949L847.336 869.093L847.336 872.237L847.336 875.381L847.336 878.525L847.336 881.669L847.336 884.813L847.336 887.957L847.336 891.101L847.336 894.244L847.336 897.388L847.336 900.532L847.336 903.676L847.336 906.820L847.336 909.964L847.336 913.108L847.336 916.252L847.336 919.396L847.336 922.539L847.336 925.683L847.336 928.827L847.336 931.971L847.336 935.115L847.336 938.259L847.336 941.403L847.336 944.547L847.336 947.691L847.336 950.834L847.336 953.978L847.336 957.122L847.336 960.266L847.336 963.410L847.336 966.554L847.336 969.698L847.336 972.842L847.336 975.986L847.336 979.129L847.336 980.701L847.336 982.273L847.336 983.845L847.336 985.417" stroke="#000000" stroke-width="45" fill="none" stroke-linecap="round" stroke-linejoin="round" /> <path id="path-5-1" d="M847.336 483.963L847.336 482.195L847.336 480.471L847.336 478.777L847.336 477.105L847.336 473.548L847.336 470.113L847.336 466.817L847.336 463.583L847.336 460.398L847.336 457.246L847.336 454.100L847.336 450.956L847.336 447.812L847.336 444.668L847.336 441.524L847.336 438.381L847.336 435.237L847.336 432.093L847.336 428.949L847.336 425.805L847.336 422.661L847.336 419.517L847.336 416.373L847.336 413.229L847.336 410.086L847.336 406.942L847.336 403.798L847.336 400.654L847.336 397.510L847.336 394.366L847.336 391.222L847.336 388.078L847.336 384.935L847.336 381.791L847.336 378.647L847.336 375.503L847.336 372.359L847.336 369.215L847.336 366.071L847.336 362.927L847.336 359.783L847.336 356.640L847.336 353.496L847.336 350.352L847.336 347.208L847.336 344.064L847.336 340.920L847.336 337.776L847.336 334.632L847.336 331.488L847.336 328.345L847.336 325.201L847.336 322.057L847.336 318.913L847.336 315.769L847.336 312.625L847.336 309.481L847.336 306.337L847.336 303.193L847.336 300.050L847.336 296.906L847.336 293.762L847.336 290.618L847.336 287.474L847.336 284.330L847.336 281.186L847.336 278.042L847.336 274.898L847.336 271.755L847.336 268.611L847.336 265.467L847.336 262.323L847.336 259.179L847.336 256.035L847.336 252.891L847.336 249.747L847.336 246.603L847.336 243.460L847.336 240.316L847.336 237.172L847.336 234.028L847.336 230.884L847.336 227.740L847.336 224.596L847.336 221.452L847.336 218.308L847.336 215.165L847.336 212.021L847.336 208.877L847.336 205.733L847.336 202.589L847.336 199.445L847.336 196.301L847.336 193.157L847.336 190.013L847.336 186.870L847.336 183.726L847.336 180.582L847.336 177.438L847.336 174.294L847.336 171.150L847.336 168.006L847.336 164.862L847.336 161.718L847.336 158.575L847.336 155.431L847.336 152.287L847.336 149.143L847.336 145.999L847.336 142.855L847.336 139.711L847.336 136.567L847.336 133.423L847.336 130.280L847.336 127.136L847.336 123.992L847.336 120.848L847.336 117.704L847.336 114.560L847.336 111.416L847.336 108.272L847.336 105.128L847.336 101.985L847.336 98.841L847.336 95.697L847.336 92.553L847.336 89.409L847.336 86.265L847.336 83.121L847.336 79.977L847.336 76.833L847.336 73.690L847.336 70.546L847.336 67.402L847.336 64.258L847.336 61.114L847.336 57.970L847.336 54.826L847.336 51.682L847.336 48.538L847.336 45.395L847.336 43.823L847.336 42.251L847.336 40.679L847.336 39.107" stroke="#000000" stroke-width="45" fill="none" stroke-linecap="round" stroke-linejoin="round" /> <path id="path-1000-1" d="M177.423 494.928L177.432 515.930" stroke="#000000" stroke-width="45" fill="none" stroke-linecap="round" stroke-linejoin="round" /> <path id="path-1001-1" d="M177.426 535.275L177.432 515.930" stroke="#000000" stroke-width="45" fill="none" stroke-linecap="round" stroke-linejoin="round" /> <path id="path-1002-1" d="M227.865 515.930L177.432 515.930" stroke="#000000" stroke-width="45" fill="none" stroke-linecap="round" stroke-linejoin="round" /> <path id="path-1003-1" d="M796.860 515.930L847.336 515.930" stroke="#000000" stroke-width="45" fill="none" stroke-linecap="round" stroke-linejoin="round" /> <path id="path-1004-1" d="M847.336 546.416L847.336 515.930" stroke="#000000" stroke-width="45" fill="none" stroke-linecap="round" stroke-linejoin="round" /> <path id="path-1005-1" d="M847.336 483.963L847.336 515.930" stroke="#000000" stroke-width="45" fill="none" stroke-linecap="round" stroke-linejoin="round" /> </g> </svg>