<?xml version="1.0" encoding="UTF-8"?>
<svg xmlns="http://www.w3.org/2000/svg" width="1024" height="1024" viewBox="0 0 1024 1024" preserveAspectRatio="none"> <g id="skeleton-shapes"> <path id="path-1-1" d="M249.832 595.443L249.656 597.054L249.475 598.587L249.272 600.176L249.069 601.705L248.677 604.833L248.282 607.984L247.865 611.070L247.458 614.183L247.039 617.308L246.628 620.365L246.197 623.442L245.776 626.521L245.370 629.603L244.985 632.632L244.611 635.736L244.258 638.765L243.904 641.864L243.565 644.897L243.244 647.980L242.953 651.019L242.675 654.061L242.443 657.140L242.276 660.153L242.159 663.174L242.117 666.280L242.127 669.300L242.199 672.323L242.351 675.408L242.561 678.445L242.816 681.460L243.106 684.549L243.428 687.600L243.778 690.618L244.149 693.732L244.517 696.824L244.873 699.810L245.246 702.938L245.613 706.023L245.971 709.026L246.344 712.158L246.710 715.232L247.068 718.237L247.441 721.369L247.807 724.442L248.165 727.448L248.531 730.516L248.898 733.586L249.268 736.657L249.639 739.728L250.020 742.777L250.405 745.773L250.824 748.895L251.250 751.958L251.696 754.998L252.159 758.060L252.648 761.142L253.162 764.249L253.687 767.322L254.226 770.347L254.798 773.465L255.373 776.560L255.967 779.682L256.555 782.693L257.179 785.774L257.831 788.857L258.524 792L259.250 795.111L260.011 798.194L260.824 801.331L261.671 804.433L262.564 807.504L263.517 810.612L264.509 813.667L265.562 816.792L266.649 819.905L267.761 822.989L268.875 825.990L270.051 829.070L271.253 832.136L272.495 835.202L273.783 838.266L275.093 841.306L276.453 844.374L277.860 847.471L279.307 850.581L280.786 853.680L282.307 856.783L283.916 859.972L285.557 863.083L287.257 866.183L289.031 869.300L290.857 872.413L292.752 875.548L294.700 878.675L296.712 881.808L298.802 884.946L300.973 888.064L303.268 891.165L305.629 894.214L308.079 897.267L310.626 900.347L313.205 903.367L315.871 906.389L318.558 909.342L321.352 912.289L324.246 915.177L327.171 917.973L330.128 920.723L333.120 923.427L336.125 926.080L339.152 928.656L342.178 931.137L345.268 933.589L348.333 935.938L351.492 938.269L354.607 940.470L357.676 942.586L360.777 944.648L363.900 946.644L366.986 948.548L370.100 950.407L373.202 952.191L376.295 953.905L379.373 955.532L382.488 957.098L385.587 958.586L388.706 960.028L391.825 961.415L394.925 962.743L397.939 963.991L400.953 965.187L403.973 966.336L407.048 967.452L410.138 968.533L413.224 969.574L416.301 970.581L419.366 971.554L422.336 972.471L425.324 973.367L428.386 974.243L431.543 975.114L434.706 975.958L437.791 976.756L440.880 977.527L443.881 978.252L446.960 978.963L449.965 979.628L453.036 980.270L456.123 980.886L459.199 981.457L462.212 981.987L465.213 982.493L468.230 982.972L471.313 983.444L474.386 983.884L477.476 984.314L480.487 984.703L483.588 985.088L486.632 985.450L489.765 985.793L492.899 986.104L496.030 986.380L499.162 986.623L502.274 986.831L505.392 987.007L508.431 987.145L511.525 987.261L514.614 987.358L517.696 987.434L520.791 987.489L523.862 987.538L526.933 987.587L529.924 987.631L532.906 987.653L535.971 987.649L538.975 987.636L541.985 987.596L545.091 987.521L548.136 987.423L551.149 987.294L554.223 987.124L557.248 986.921L560.237 986.677L563.389 986.389L566.558 986.052L569.556 985.693L572.693 985.255L575.854 984.772L578.849 984.272L581.921 983.718L585.076 983.107L588.153 982.458L591.193 981.785L594.366 981.044L597.450 980.243L600.520 979.395L603.586 978.515L606.651 977.571L609.719 976.576L612.878 975.509L616.033 974.394L619.131 973.238L622.212 972.033L625.408 970.744L628.517 969.394L631.621 967.996L634.723 966.548L637.928 965.004L641.063 963.434L644.175 961.811L647.325 960.091L650.458 958.299L653.568 956.422L656.694 954.437L659.797 952.365L662.872 950.247L665.979 948.024L669.065 945.742L672.168 943.364L675.269 940.905L678.378 938.373L681.411 935.793L684.412 933.152L687.405 930.433L690.353 927.660L693.249 924.841L696.122 921.957L698.932 919.052L701.709 916.115L704.428 913.142L707.063 910.151L709.612 907.131L712.112 904.075L714.577 900.968L716.973 897.865L719.313 894.763L721.598 891.646L723.810 888.537L725.926 885.463L728.017 882.307L730.008 879.182L731.944 876.052L733.844 872.916L735.684 869.811L737.453 866.763L739.205 863.675L740.917 860.588L742.585 857.527L744.219 854.452L745.834 851.331L747.366 848.273L748.863 845.198L750.292 842.203L751.713 839.125L753.099 836.044L754.465 832.918L755.737 829.913L756.997 826.821L758.220 823.714L759.411 820.613L760.583 817.504L761.719 814.466L762.839 811.445L763.980 808.339L765.095 805.263L766.194 802.180L767.235 799.193L768.276 796.123L769.256 793.136L770.208 790.147L771.154 787.079L772.069 784.021L772.962 780.967L773.825 777.910L774.670 774.777L775.446 771.747L776.177 768.731L776.897 765.634L777.584 762.552L778.243 759.463L778.873 756.385L779.458 753.372L780.017 750.345L780.557 747.270L781.053 744.197L781.493 741.120L781.897 738.022L782.262 734.884L782.584 731.744L782.868 728.593L783.110 725.455L783.313 722.305L783.473 719.167L783.589 716.050L783.676 712.898L783.742 709.743L783.785 706.673L783.820 703.576L783.852 700.504L783.876 697.433L783.885 694.362L783.878 691.290L783.843 688.247L783.787 685.238L783.704 682.209L783.595 679.161L783.463 676.168L783.296 673.089L783.105 670.060L782.887 667.033L782.652 664.036L782.401 661.002L782.136 657.973L781.860 654.912L781.564 651.818L781.246 648.751L780.888 645.649L780.511 642.572L780.109 639.564L779.661 636.441L779.196 633.385L778.686 630.232L778.163 627.187L777.600 624.068L777.036 621.033L776.450 617.979L775.845 614.852L775.262 611.849L774.651 608.695L774.031 605.549L773.403 602.469L772.751 599.387L772.075 596.363L771.335 593.226L770.571 590.158L769.752 587.011L768.899 583.880L768.022 580.815L767.086 577.660L766.150 574.652L765.186 571.657L764.204 568.663L763.180 565.605L762.133 562.564L761.033 559.486L759.903 556.398L758.744 553.301L757.551 550.211L756.310 547.111L755.042 544.045L753.707 540.895L752.320 537.714L750.878 534.518L749.395 531.326L747.878 528.153L746.331 525.025L744.752 521.942L743.092 518.821L741.403 515.729L739.646 512.599L737.848 509.476L735.966 506.351L734.017 503.266L731.989 500.185L729.880 497.090L727.692 493.964L725.461 490.870L723.148 487.751L720.778 484.680L718.303 481.580L715.765 478.542L713.132 475.510L710.476 472.534L707.744 469.553L705 466.630L702.192 463.725L699.374 460.906L696.452 458.122L693.460 455.393L690.433 452.737L687.391 450.160L684.320 447.641L681.236 445.182L678.116 442.769L675.015 440.464L671.870 438.218L668.720 436.081L665.528 434.001L662.369 432.016L659.219 430.097L656.089 428.251L653.041 426.501L650.029 424.831L646.938 423.186L643.840 421.601L640.809 420.104L637.790 418.680L634.697 417.286L631.607 415.939L628.539 414.650L625.491 413.413L622.439 412.214L619.300 411.019L616.141 409.872L613.055 408.809L609.972 407.792L606.815 406.783L603.724 405.825L600.656 404.925L597.631 404.076L594.618 403.273L591.539 402.505L588.528 401.799L585.451 401.127L582.444 400.503L579.443 399.913L576.429 399.360L573.418 398.839L570.330 398.330L567.314 397.864L564.235 397.411L561.146 396.971L558.087 396.557L555.024 396.156L552.026 395.792L548.940 395.439L545.843 395.113L542.735 394.817L539.623 394.546L536.515 394.308L533.403 394.100L530.308 393.926L527.211 393.792L524.148 393.696L521.020 393.625L517.895 393.579L514.870 393.561L511.865 393.580L508.844 393.637L505.917 393.719L502.993 393.830L500.121 393.968L497.198 394.147L494.283 394.357L491.334 394.611L488.462 394.889L485.520 395.222L482.566 395.590L479.537 396.003L476.614 396.435L473.531 396.919L470.517 397.420L467.410 397.969L464.343 398.549L461.252 399.170L458.190 399.819L455.046 400.519L451.971 401.248L448.827 402.025L445.752 402.829L442.685 403.664L439.672 404.551L436.595 405.510L433.569 406.510L430.571 407.551L427.588 408.640L424.586 409.791L421.580 410.990L418.571 412.229L415.557 413.513L412.524 414.860L409.427 416.299L406.356 417.784L403.293 419.321L400.218 420.915L397.124 422.573L394.027 424.286L390.951 426.043L387.880 427.852L384.769 429.755L381.673 431.724L378.587 433.764L375.486 435.873L372.371 438.048L369.241 440.289L366.141 442.576L363.028 444.958L359.932 447.438L356.861 450.003L353.826 452.641L350.886 455.296L347.942 458.038L345.011 460.837L342.123 463.654L339.250 466.518L336.419 469.424L333.611 472.391L330.865 475.387L328.178 478.380L325.509 481.423L322.843 484.530L320.172 487.722L317.508 491.006L314.937 494.266L312.385 497.605L311.115 499.249L309.853 500.921L308.587 502.620L307.325 504.324" stroke="#000000" stroke-width="45" fill="none" stroke-linecap="round" stroke-linejoin="round" /> <path id="path-2-1" d="M240.159 496.820L240.143 495.080L240.134 493.391L240.129 491.737L240.124 490.113L240.115 486.630L240.118 483.266L240.135 480.020L240.160 476.821L240.188 473.721L240.233 470.658L240.298 467.611L240.381 464.557L240.476 461.488L240.580 458.413L240.698 455.330L240.824 452.257L240.953 449.184L241.087 446.113L241.229 443.046L241.379 439.988L241.529 436.921L241.677 433.848L241.823 430.765L241.969 427.694L242.125 424.633L242.291 421.564L242.469 418.497L242.662 415.434L242.873 412.365L243.101 409.293L243.344 406.216L243.605 403.142L243.886 400.070L244.185 397.002L244.498 393.940L244.821 390.862L245.152 387.794L245.488 384.731L245.827 381.656L246.165 378.589L246.504 375.527L246.848 372.453L247.193 369.388L247.546 366.330L247.911 363.268L248.286 360.203L248.668 357.136L249.062 354.075L249.471 350.998L249.898 347.937L250.347 344.868L250.812 341.803L251.297 338.742L251.815 335.671L252.350 332.603L252.906 329.536L253.489 326.454L254.092 323.393L254.716 320.323L255.359 317.252L256.014 314.186L256.678 311.124L257.360 308.041L258.046 304.974L258.729 301.916L259.426 298.842L260.131 295.762L260.846 292.685L261.577 289.610L262.322 286.541L263.090 283.483L263.888 280.411L264.714 277.342L265.567 274.281L266.450 271.207L267.368 268.134L268.318 265.069L269.300 262.019L270.310 258.986L271.359 255.906L272.430 252.824L273.515 249.743L274.613 246.671L275.743 243.569L276.894 240.477L278.098 237.367L279.330 234.271L280.592 231.187L281.885 228.117L283.225 225.021L284.584 221.978L285.996 218.916L287.437 215.874L288.927 212.808L290.447 209.753L291.991 206.717L293.574 203.645L295.173 200.582L296.811 197.494L298.495 194.381L300.223 191.289L302.013 188.182L303.846 185.098L305.741 181.997L307.678 178.918L309.652 175.864L311.717 172.739L313.799 169.682L315.985 166.569L318.239 163.436L320.522 160.326L322.858 157.184L325.218 154.063L327.657 150.931L330.142 147.840L332.724 144.752L335.403 141.668L338.142 138.636L340.926 135.644L343.750 132.692L346.580 129.819L349.488 126.938L352.394 124.136L355.376 121.326L358.349 118.597L361.402 115.872L364.441 113.226L367.514 110.624L370.574 108.098L373.666 105.609L376.792 103.165L379.943 100.758L383.076 98.429L386.206 96.167L389.318 93.976L392.447 91.808L395.538 89.689L398.640 87.586L401.706 85.537L404.746 83.529L407.801 81.546L410.828 79.627L413.845 77.768L416.890 75.949L419.994 74.149L423.086 72.415L426.197 70.721L429.288 69.082L432.393 67.481L435.476 65.930L438.577 64.406L441.655 62.923L444.702 61.477L447.795 60.028L450.861 58.617L453.904 57.254L456.963 55.924L460.028 54.644L463.085 53.405L466.124 52.216L469.180 51.057L472.252 49.942L475.340 48.875L478.444 47.851L481.511 46.896L484.588 45.979L487.672 45.096L490.744 44.249L493.796 43.434L496.880 42.655L499.953 41.922L503.034 41.234L506.104 40.585L509.176 39.974L512.239 39.406L515.314 38.884L518.386 38.412L521.453 37.999L524.531 37.641L527.642 37.333L530.714 37.066L533.810 36.837L536.918 36.649L540.033 36.497L543.138 36.388L546.241 36.347L549.353 36.351L552.405 36.400L555.516 36.496L558.563 36.613L561.556 36.775L564.661 36.994L567.670 37.249L570.743 37.564L573.732 37.910L576.809 38.311L579.905 38.741L582.927 39.189L586.065 39.703L589.057 40.231L592.121 40.818L595.240 41.463L598.286 42.144L601.427 42.892L604.429 43.656L607.515 44.484L610.511 45.359L613.577 46.320L616.700 47.359L619.756 48.434L622.885 49.575L626.042 50.782L629.158 52.030L632.266 53.326L635.383 54.677L638.534 56.101L641.700 57.575L644.887 59.105L647.983 60.651L651.075 62.238L654.198 63.906L657.320 65.614L660.424 67.392L663.549 69.230L666.644 71.107L669.728 73.034L672.890 75.053L676.027 77.128L679.167 79.296L682.286 81.522L685.381 83.808L688.479 86.166L691.576 88.608L694.649 91.075L697.683 93.595L700.739 96.180L703.799 98.832L706.815 101.517L709.811 104.265L712.789 107.003L715.792 109.806L718.765 112.630L721.703 115.479L724.643 118.379L727.520 121.285L730.394 124.243L733.218 127.263L735.977 130.296L738.649 133.332L741.271 136.379L743.810 139.458L746.263 142.508L748.684 145.581L751.066 148.676L752.266 150.203L753.475 151.771L754.629 153.311L755.761 154.818" stroke="#000000" stroke-width="45" fill="none" stroke-linecap="round" stroke-linejoin="round" /> <path id="path-0-1" d="M249.832 595.443L258.155 519.112" stroke="#000000" stroke-width="45" fill="none" stroke-linecap="round" stroke-linejoin="round" /> <path id="path-0-1" d="M307.325 504.324L261.647 566.044" stroke="#000000" stroke-width="45" fill="none" stroke-linecap="round" stroke-linejoin="round" /> <path id="path-1-1" d="M240.159 496.820L240.851 573.601" stroke="#000000" stroke-width="45" fill="none" stroke-linecap="round" stroke-linejoin="round" /> </g> </svg>