<?xml version="1.0" encoding="UTF-8"?>
<svg xmlns="http://www.w3.org/2000/svg" width="1024" height="1024" viewBox="0 0 1024 1024" preserveAspectRatio="none"> <g id="skeleton-shapes"> <path id="path-1-1" d="M281.784 171.629L282.404 170.079L283.072 168.537L283.754 167.018L284.473 165.468L285.818 162.387L287.262 159.266L288.799 156.146L290.409 153.051L292.137 149.936L293.778 147.112L295.454 144.316L297.222 141.517L299.059 138.699L300.857 135.771L302.747 133.136L305.169 130.282L307.381 127.529L309.663 124.803L312.028 122.095L314.432 119.430L317.120 116.740L319.610 114.084L322.148 111.471L324.796 109.113L327.538 106.212L330.115 104.198L332.194 102.260L334.298 100.348L336.388 98.545L338.519 96.432L341.815 94.246L344.311 92.159L347.132 90.098L349.960 88.099L352.720 85.961L355.808 83.868L358.887 81.855L362.014 79.877L365.083 78.008L368.150 76.180L371.241 74.392L374.282 72.691L377.349 71.019L380.406 69.404L383.460 67.839L386.518 66.330L389.599 64.858L392.684 63.431L395.752 62.043L398.816 60.689L401.881 59.387L404.921 58.137L407.964 56.925L411.003 55.757L414.054 54.624L417.109 53.536L420.181 52.493L423.232 51.498L426.290 50.534L429.299 49.623L432.297 48.736L435.291 47.872L438.286 47.034L441.247 46.240L444.226 45.477L447.270 44.740L450.247 44.048L453.283 43.372L456.257 42.734L459.250 42.129L462.280 41.545L465.341 40.990L468.394 40.465L471.503 39.963L474.631 39.475L477.756 39.012L480.805 38.572L483.914 38.161L486.959 37.814L490.073 37.502L493.169 37.240L496.273 37.018L499.369 36.838L502.495 36.700L505.569 36.610L508.687 36.553L511.800 36.528L514.847 36.544L517.896 36.571L520.946 36.599L523.995 36.636L527.068 36.690L530.157 36.758L533.199 36.851L536.266 36.977L539.313 37.141L542.350 37.351L545.364 37.605L548.471 37.911L551.510 38.251L554.558 38.640L557.674 39.090L560.779 39.585L563.790 40.104L566.897 40.670L569.896 41.245L572.969 41.851L575.964 42.465L579.040 43.133L582.092 43.835L585.144 44.566L588.192 45.343L591.171 46.145L594.154 46.988L597.209 47.896L600.197 48.844L603.261 49.864L606.267 50.933L609.334 52.077L612.336 53.262L615.326 54.497L618.435 55.836L621.514 57.222L624.594 58.654L627.674 60.143L630.772 61.694L633.877 63.317L636.965 65.016L640.040 66.788L643.109 68.630L646.221 70.575L649.329 72.572L652.392 74.623L655.203 76.600L658.036 78.578L660.861 80.644L663.637 82.783L666.563 84.922L669.217 87.058L671.982 89.733L674.737 92.177L677.413 94.645L680.092 97.221L682.687 99.809L685.478 102.622L687.987 105.289L690.434 107.993L692.830 110.725L695.152 113.505L697.649 116.206L699.680 118.900L701.601 121.800L703.607 124.583L705.523 127.363L707.382 130.194L709.189 133.023L711.131 136.155L712.986 139.275L714.781 142.391L716.500 145.469L718.201 148.654L719.785 151.723L721.318 154.829L722.788 157.941L724.195 161.035L725.576 164.182L726.888 167.255L728.142 170.327L729.336 173.378L730.482 176.445L731.576 179.499L732.616 182.544L733.646 185.666L734.631 188.772L735.571 191.842L736.479 194.970L737.318 198.008L738.133 201.070L738.915 204.174L739.661 207.237L740.385 210.359L741.066 213.425L741.712 216.493L742.320 219.506L742.902 222.566L743.458 225.653L743.970 228.706L744.478 231.769L744.942 234.859L745.391 237.871L745.825 240.934L746.219 243.937L746.584 246.990L746.893 249.994L747.168 253.048L747.395 256.079L747.587 259.136L747.756 262.165L747.887 265.205L748.006 268.229L748.083 271.268L748.138 274.319L748.176 277.368L748.206 280.418L748.237 283.467L748.265 286.518L748.267 289.545L748.237 292.644L748.175 295.734L748.082 298.767L747.945 301.886L747.774 304.966L747.554 308.082L747.276 311.096L746.993 313.965L746.661 316.804L746.284 319.581L745.844 322.437L745.359 325.206L744.854 327.911L744.301 330.689L743.713 333.408L743.051 336.263L742.353 339.081L741.623 341.985L740.832 344.963L739.957 348.040L739.023 351.148L738.040 354.210L737.040 357.196L735.941 360.300L734.801 363.384L733.609 366.478L732.354 369.544L731.059 372.554L729.692 375.578L728.220 378.716L726.700 381.778L725.096 384.872L723.445 387.924L721.684 391.029L720.054 393.865L718.381 396.687L716.614 399.501L714.801 402.279L712.853 405.116L710.839 407.925L708.718 410.711L706.558 413.459L704.307 416.223L701.964 419.009L699.562 421.802L696.906 424.784L694.112 427.765L691.274 430.667L688.345 433.501L685.408 436.259L682.400 438.985L679.399 441.617L676.331 444.236L673.276 446.725L670.197 449.140L667.103 451.463L663.984 453.715L660.876 455.885L657.738 458.004L654.609 460.035L651.379 462.051L648.160 464.002L644.882 465.922L641.565 467.780L638.139 469.619L636.486 470.523L634.800 471.425L633.093 472.321L631.356 473.213" stroke="#000000" stroke-width="45" fill="none" stroke-linecap="round" stroke-linejoin="round" /> <path id="path-2-1" d="M497.890 508.015L499.471 508.046L500.773 507.994L502.043 508.068L503.116 508.025L505.576 508.011L508.765 508.031L511 508.011L512.764 508.090L514.530 508.144L515.907 508.029L517.527 508.156L519.136 508.360L520.813 508.450L521.925 508.473L523.652 508.649L524.952 508.681L526.402 509.147L527.424 508.972L528.449 508.670L529.668 508.921L530.684 509.367L529.334 508.951L530.394 509.017L530.407 508.678" stroke="#000000" stroke-width="45" fill="none" stroke-linecap="round" stroke-linejoin="round" /> <path id="path-3-1" d="M259.796 825.397L260.138 826.745L260.368 827.900L260.640 829.151L260.948 830.456L261.543 833.194L262.020 835.852L262.754 838.489L263.664 840.778L264.516 843.304L265.465 845.828L266.475 848.327L267.554 850.951L268.868 853.792L270.284 856.645L271.797 859.491L273.395 862.341L275.104 865.283L276.877 868.121L278.658 870.989L280.563 873.812L282.320 876.387L284.479 879.651L286.150 881.850L288.023 883.999L289.684 886.191L291.571 888.346L294.243 891.268L296.445 893.663L298.853 896.351L301.365 898.958L303.922 901.582L306.742 904.384L309.640 907.159L312.579 909.888L315.549 912.555L318.561 915.195L321.656 917.826L324.758 920.371L327.844 922.808L330.936 925.195L334.049 927.537L337.155 929.801L340.232 932.013L343.315 934.157L346.402 936.258L349.471 938.279L352.571 940.262L355.629 942.159L358.687 944.004L361.776 945.821L364.833 947.551L367.918 949.245L370.972 950.889L374.083 952.515L377.145 954.095L380.205 955.639L383.252 957.145L386.302 958.598L389.350 960.008L392.407 961.381L395.517 962.732L398.639 964.046L401.676 965.289L404.748 966.504L407.809 967.681L410.880 968.826L413.965 969.943L417.049 971.032L420.169 972.109L423.225 973.142L426.274 974.141L429.265 975.082L432.321 976.001L435.380 976.893L438.488 977.753L441.598 978.575L444.644 979.347L447.752 980.092L450.795 980.784L453.843 981.443L456.987 982.089L460.046 982.705L463.107 983.295L466.099 983.855L469.158 984.398L472.151 984.881L475.142 985.311L478.200 985.699L481.196 986.023L484.269 986.314L487.289 986.545L490.285 986.740L493.372 986.892L496.429 987.021L499.479 987.110L502.528 987.175L505.578 987.236L508.627 987.297L511.677 987.357L514.726 987.418L517.841 987.461L520.867 987.472L523.969 987.433L527.029 987.362L530.145 987.230L533.270 987.048L536.393 986.817L539.521 986.539L542.638 986.210L545.763 985.837L548.888 985.410L551.920 984.952L555.007 984.473L557.988 983.991L561.030 983.469L564.087 982.895L567.139 982.282L570.154 981.638L573.167 980.954L576.150 980.243L579.127 979.482L582.125 978.672L585.152 977.812L588.200 976.903L591.268 975.933L594.300 974.917L597.301 973.862L600.309 972.767L603.332 971.626L606.364 970.432L609.438 969.175L612.530 967.864L615.617 966.506L618.677 965.107L621.762 963.647L624.851 962.125L627.941 960.563L630.992 958.960L634.046 957.302L637.126 955.577L640.226 953.791L643.337 951.948L646.421 950.069L649.555 948.093L652.670 946.067L655.787 943.955L658.894 941.777L661.961 939.554L665.075 937.234L668.145 934.883L671.228 932.451L674.288 929.957L677.304 927.431L680.350 924.816L683.330 922.165L686.306 919.424L689.252 916.682L692.197 913.898L695.140 911.030L698.030 908.179L700.958 905.221L703.787 902.288L706.548 899.323L709.308 896.296L711.979 893.271L714.584 890.245L717.142 887.224L719.592 884.191L721.965 881.091L724.256 878.043L726.477 874.916L728.577 871.842L730.635 868.728L732.627 865.622L734.515 862.539L736.297 859.519L737.918 856.685L739.463 853.859L740.951 851.018L742.356 848.238L743.725 845.398L745.014 842.614L746.257 839.777L747.431 836.946L748.535 834.153L749.582 831.291L750.576 828.421L751.587 825.361L752.553 822.216L753.467 819.063L754.322 815.979L755.133 812.854L755.888 809.783L756.601 806.707L757.270 803.690L757.925 800.585L758.538 797.519L759.145 794.454L759.729 791.350L760.278 788.329L760.790 785.303L761.263 782.205L761.694 779.193L762.094 776.142L762.445 773.138L762.771 770.071L763.049 767.041L763.297 764.019L763.505 760.966L763.670 757.935L763.811 754.904L763.941 751.801L764.052 748.713L764.123 745.668L764.177 742.612L764.204 739.561L764.203 736.512L764.166 733.412L764.093 730.314L763.995 727.248L763.871 724.139L763.705 721.043L763.494 717.989L763.257 714.953L762.992 711.844L762.695 708.756L762.360 705.633L761.991 702.540L761.581 699.497L761.146 696.500L760.661 693.407L760.119 690.363L759.537 687.315L758.934 684.326L758.286 681.310L757.586 678.297L756.830 675.273L756.015 672.248L755.148 669.181L754.240 666.150L753.254 663.062L752.205 660.007L751.101 656.981L749.909 653.898L748.643 650.795L747.299 647.678L745.865 644.543L744.336 641.399L742.734 638.285L741.051 635.193L739.276 632.083L737.400 629.018L735.653 626.183L733.814 623.333L731.887 620.569L730.091 618.041L727.974 614.935L726.277 612.767L724.286 610.562L722.591 608.375L720.699 606.188L717.725 603.077L715.446 600.599L712.893 597.900L710.252 595.238L707.588 592.597L704.619 589.766L701.580 587.003L698.526 584.313L695.424 581.660L692.304 579.086L689.190 576.600L686.117 574.238L682.970 571.890L679.840 569.640L676.738 567.470L673.612 565.342L670.503 563.280L667.405 561.267L664.323 559.327L661.235 557.433L658.168 555.596L655.078 553.803L651.929 552.042L648.750 550.318L645.496 548.601L642.206 546.888L638.952 545.217L635.863 543.652L632.758 542.131L631.152 541.321L629.524 540.513L627.866 539.711L626.198 538.919" stroke="#000000" stroke-width="45" fill="none" stroke-linecap="round" stroke-linejoin="round" /> <path id="path-0-1" d="M631.356 473.213L563.550 508.063" stroke="#000000" stroke-width="45" fill="none" stroke-linecap="round" stroke-linejoin="round" /> <path id="path-2-1" d="M626.198 538.919L557.333 506.211" stroke="#000000" stroke-width="45" fill="none" stroke-linecap="round" stroke-linejoin="round" /> </g> </svg>