<?xml version="1.0" encoding="UTF-8"?>
<svg xmlns="http://www.w3.org/2000/svg" width="1024" height="1024" viewBox="0 0 1024 1024" preserveAspectRatio="xMidYMid meet">
  <g id="centerline-shapes">
    <path id="path-1" d="M986.880 144.745 L982.880 144.738 L978.880 144.731 L974.880 144.724 L970.880 144.716 L966.880 144.709 L962.880 144.702 L958.880 144.695 L954.880 144.688 L950.880 144.680 L946.880 144.673 L942.880 144.666 L938.880 144.659 L934.880 144.651 L930.880 144.644 L926.880 144.637 L922.880 144.630 L918.880 144.623 L914.880 144.615 L910.880 144.608 L906.880 144.601 L902.880 144.594 L898.880 144.586 L894.880 144.579 L890.880 144.572 L886.880 144.565 L882.880 144.558 L878.880 144.550 L874.880 144.543 L870.880 144.536 L866.880 144.529 L862.880 144.521 L858.880 144.514 L854.880 144.507 L850.880 144.500 L846.880 144.493 L842.880 144.485 L838.880 144.478 L834.880 144.471 L830.881 144.464 L826.881 144.457 L822.881 144.449 L818.881 144.442 L814.881 144.435 L810.881 144.428 L806.881 144.420 L802.881 144.413 L798.881 144.406 L794.881 144.399 L790.881 144.392 L786.881 144.384 L782.881 144.377 L778.881 144.370 L774.881 144.363 L770.881 144.355 L766.881 144.348 L762.881 144.341 L758.881 144.334 L754.881 144.327 L750.881 144.319 L746.881 144.312 L742.881 144.305 L738.881 144.298 L734.881 144.290 L730.881 144.283 L726.881 144.276 L722.881 144.269 L718.881 144.262 L714.881 144.254 L710.881 144.247 L706.881 144.240 L702.881 144.233 L698.881 144.225 L694.881 144.218 L690.881 144.211 L686.881 144.204 L682.881 144.197 L678.881 144.189 L674.881 144.182 L670.881 144.175 L666.881 144.168 L662.881 144.160 L658.881 144.153 L654.881 144.146 L650.881 144.139 L646.881 144.132 L642.881 144.124 L638.881 144.117 L634.881 144.110 L630.881 144.103 L626.881 144.095 L622.881 144.088 L618.881 144.081 L614.881 144.074 L610.881 144.067 L606.881 144.059 L602.881 144.052 L598.881 144.045 L594.881 144.038 L590.881 144.030 L586.881 144.023 L582.881 144.016 L578.881 144.009 L574.881 144.002 L570.881 143.994 L566.881 143.987 L562.881 143.980 L558.881 143.973 L554.881 143.966 L550.881 143.958 L546.881 143.951 L542.881 143.944 L538.881 143.937 L534.881 143.929 L530.881 143.922 L526.881 143.915 L522.881 143.908 L518.881 143.901 L514.881 143.893 L510.881 143.886 L506.881 143.879 L502.881 143.872 L498.881 143.864 L494.881 143.857 L490.881 143.850 L486.881 143.843 L482.881 143.836 L478.881 143.828 L474.881 143.821 L470.881 143.814 L466.881 143.807 L462.881 143.799 L458.881 143.792 L454.881 143.785 L450.881 143.778 L446.881 143.771 L442.881 143.763 L438.881 143.756 L434.881 143.749 L430.881 143.742 L426.881 143.734 L422.881 143.727 L418.881 143.720 L414.881 143.713 L410.881 143.706 L406.881 143.698 L402.881 143.691 L398.881 143.684 L394.881 143.677 L390.881 143.669 L386.881 143.662 L382.881 143.655 L378.881 143.648 L374.881 143.641 L370.881 143.633 L366.881 143.626 L362.881 143.619 L358.881 143.612 L354.881 143.604 L350.881 143.597 L346.881 143.590 L342.881 143.583 L338.881 143.576 L334.881 143.568 L330.881 143.561 L326.881 143.554 L322.881 143.547 L318.881 143.540 L314.893 143.679 L310.923 144.036 L306.970 144.612 L303.022 145.260 L299.075 145.908 L295.128 146.556 L291.181 147.204 L287.234 147.852 L283.287 148.500 L279.339 149.148 L275.392 149.796 L271.590 150.587 L268.903 152.480 L267.332 155.475 L266.734 159.430 L266.135 163.385 L265.536 167.340 L264.937 171.295 L264.339 175.250 L263.740 179.205 L263.141 183.160 L262.542 187.115 L261.994 191.073 L261.643 195.047 L261.487 199.036 L261.476 203.036 L261.466 207.036 L261.456 211.036 L261.445 215.036 L261.435 219.036 L261.424 223.036 L261.414 227.036 L261.404 231.036 L261.393 235.036 L261.383 239.036 L261.372 243.036 L261.362 247.036 L261.351 251.036 L261.341 255.036 L261.331 259.036 L261.320 263.036 L261.310 267.036 L261.299 271.036 L261.289 275.036 L261.279 279.036 L261.268 283.036 L261.258 287.036 L261.247 291.036 L261.237 295.036 L261.226 299.036 L261.216 303.036 L261.206 307.036 L261.195 311.036 L261.185 315.036 L261.174 319.036 L261.164 323.036 L261.154 327.036 L261.143 331.036 L261.133 335.036 L261.122 339.036 L261.112 343.036 L261.101 347.036 L261.091 351.036 L261.081 355.036 L261.070 359.036 L261.060 363.036 L261.049 367.036 L261.039 371.036 L261.029 375.036 L261.018 379.036 L261.008 383.036 L260.997 387.036 L260.987 391.036 L260.976 395.036 L260.966 399.036 L260.956 403.035 L260.945 407.035 L260.935 411.035 L260.924 415.035 L260.914 419.035 L260.904 423.035 L260.893 427.035 L260.883 431.035 L260.872 435.035 L260.862 439.035 L260.851 443.035 L260.841 447.035 L260.831 451.035 L260.820 455.035 L260.810 459.035 L260.799 463.035 L260.789 467.035 L260.779 471.035 L260.768 475.035 L260.758 479.035 L260.747 483.035 L260.737 487.035 L260.726 491.035 L260.716 495.035 L260.706 499.035 L260.695 503.035 L260.685 507.035 L260.674 511.035 L260.664 515.035 L260.654 519.035 L260.643 523.035 L260.633 527.035 L260.622 531.035 L260.612 535.035 L260.601 539.035 L260.591 543.035 L260.581 547.035 L260.570 551.035 L260.560 555.035 L260.549 559.035 L260.539 563.035 L260.529 567.035 L260.518 571.035 L260.508 575.035 L260.497 579.035 L260.487 583.035 L260.476 587.035 L260.466 591.035 L260.456 595.035 L260.445 599.035 L260.435 603.035 L260.424 607.035 L260.414 611.035 L260.404 615.035 L260.393 619.035 L260.383 623.035 L260.372 627.035 L260.362 631.035 L260.351 635.035 L260.341 639.035 L260.331 643.035 L260.320 647.035 L260.310 651.035 L260.299 655.035 L260.289 659.035 L260.279 663.035 L260.268 667.035 L260.258 671.035 L260.247 675.035 L260.237 679.035 L260.226 683.035 L260.216 687.035 L260.206 691.035 L260.195 695.035 L260.185 699.034 L260.174 703.034 L260.164 707.034 L260.154 711.034 L260.143 715.034 L260.133 719.034 L260.122 723.034 L260.112 727.034 L260.101 731.034 L260.091 735.034 L260.081 739.034 L260.070 743.034 L260.060 747.034 L260.049 751.034 L260.039 755.034 L260.029 759.034 L260.018 763.034 L260.024 767.034 L260.095 771.032 L260.229 775.029 L260.412 779.025 L260.594 783.021 L260.776 787.017 L260.958 791.012 L261.140 795.008 L261.323 799.004 L261.505 803.000 L261.687 806.996 L261.869 810.992 L262.052 814.987 L262.234 818.983 L262.416 822.979 L262.598 826.975 L262.780 830.971 L262.963 834.967 L263.145 838.963 L263.327 842.958 L263.509 846.954 L263.692 850.950 L263.874 854.946 L264.056 858.942 L264.181 861.676 L264.248 863.148" stroke="#000000" stroke-width="70.00" fill="none" stroke-linecap="round" stroke-linejoin="round" />
    <path id="path-2" d="M264.248 863.148 L267.706 861.138 L271.165 859.128 L274.623 857.118 L278.082 855.109 L281.540 853.099 L284.999 851.089 L288.457 849.079 L291.915 847.070 L295.374 845.060 L298.832 843.050 L302.291 841.040 L305.749 839.031 L309.208 837.021 L312.666 835.011 L316.125 833.002 L319.518 830.897 L322.794 828.623 L325.952 826.178 L329.060 823.659 L332.167 821.140 L335.274 818.621 L338.381 816.102 L341.414 813.501 L344.358 810.800 L347.214 808.000 L350.055 805.185 L352.896 802.369 L355.737 799.553 L358.578 796.737 L361.419 793.922 L364.261 791.106 L367.102 788.290 L369.943 785.475 L372.784 782.659 L375.625 779.843 L378.466 777.028 L381.307 774.212 L384.148 771.396 L386.989 768.581 L389.831 765.765 L392.672 762.949 L395.513 760.134 L398.354 757.318 L401.195 754.502 L404.036 751.687 L406.877 748.871 L409.718 746.055 L412.559 743.239 L415.401 740.424 L418.242 737.608 L421.083 734.792 L423.924 731.977 L426.765 729.161 L429.606 726.345 L432.447 723.530 L435.288 720.714 L438.129 717.898 L440.971 715.083 L443.812 712.267 L446.653 709.451 L449.494 706.636 L452.335 703.820 L455.176 701.004 L458.017 698.188 L460.858 695.373 L463.699 692.557 L466.541 689.741 L469.382 686.926 L472.223 684.110 L475.064 681.294 L477.905 678.479 L480.746 675.663 L483.587 672.847 L486.428 670.032 L489.269 667.216 L492.111 664.400 L494.952 661.585 L497.793 658.769 L500.634 655.953 L502.544 654.060 L503.525 653.088" stroke="#000000" stroke-width="70.00" fill="none" stroke-linecap="round" stroke-linejoin="round" />
    <path id="path-3" d="M36.049 644.243 L38.849 647.100 L41.649 649.957 L44.448 652.814 L47.248 655.671 L50.048 658.528 L52.847 661.384 L55.647 664.241 L58.447 667.098 L61.246 669.955 L64.046 672.812 L66.846 675.669 L69.645 678.526 L72.445 681.383 L75.245 684.240 L78.044 687.097 L80.844 689.953 L83.644 692.810 L86.443 695.667 L89.243 698.524 L92.043 701.381 L94.842 704.238 L97.642 707.095 L100.442 709.952 L103.241 712.809 L106.041 715.665 L108.841 718.522 L111.640 721.379 L114.440 724.236 L117.240 727.093 L120.039 729.950 L122.839 732.807 L125.639 735.664 L128.438 738.521 L131.238 741.377 L134.038 744.234 L136.837 747.091 L139.637 749.948 L142.437 752.805 L145.237 755.662 L148.036 758.519 L150.836 761.376 L153.636 764.233 L156.435 767.090 L159.235 769.946 L162.035 772.803 L164.834 775.660 L167.634 778.517 L170.434 781.374 L173.233 784.231 L176.033 787.088 L178.833 789.945 L181.632 792.802 L184.432 795.658 L187.232 798.515 L190.031 801.372 L192.831 804.229 L195.631 807.086 L198.492 809.875 L201.460 812.547 L204.533 815.102 L207.649 817.610 L210.766 820.117 L213.882 822.624 L216.999 825.132 L220.115 827.639 L223.232 830.147 L226.348 832.654 L229.465 835.162 L232.581 837.669 L235.698 840.177 L238.814 842.684 L241.931 845.192 L245.047 847.699 L248.164 850.207 L251.280 852.714 L254.397 855.222 L257.513 857.729 L260.630 860.236 L262.875 862.043 L264.248 863.148" stroke="#000000" stroke-width="70.00" fill="none" stroke-linecap="round" stroke-linejoin="round" />
  </g>
</svg>
