<?xml version="1.0" encoding="UTF-8"?>
<svg xmlns="http://www.w3.org/2000/svg" width="1024" height="1024" viewBox="0 0 1024 1024" preserveAspectRatio="xMidYMid meet">
  <g id="centerline-shapes">
    <path id="path-1" d="M826.252 515.795 L822.252 515.795 L818.252 515.795 L814.252 515.795 L810.252 515.795 L806.252 515.795 L802.252 515.795 L798.252 515.795 L794.252 515.795 L790.252 515.795 L786.252 515.795 L782.252 515.795 L778.252 515.795 L774.252 515.795 L770.252 515.795 L766.252 515.795 L762.252 515.795 L758.252 515.795 L754.252 515.795 L750.252 515.795 L746.252 515.795 L742.252 515.795 L738.252 515.795 L734.252 515.795 L730.252 515.795 L726.252 515.795 L722.252 515.795 L718.252 515.795 L714.252 515.795 L710.252 515.795 L706.252 515.795 L702.252 515.795 L698.252 515.795 L694.252 515.795 L690.252 515.795 L686.252 515.795 L682.252 515.795 L678.252 515.795 L674.252 515.795 L670.252 515.795 L666.252 515.795 L662.252 515.795 L658.252 515.795 L654.252 515.795 L650.252 515.795 L646.252 515.795 L642.252 515.795 L638.252 515.795 L634.252 515.795 L630.252 515.795 L626.252 515.795 L622.252 515.795 L618.252 515.795 L614.252 515.795 L610.252 515.795 L606.252 515.795 L602.252 515.795 L598.252 515.795 L594.252 515.795 L590.252 515.795 L586.252 515.795 L582.252 515.795 L578.252 515.795 L574.252 515.795 L570.252 515.795 L566.252 515.795 L562.252 515.795 L558.252 515.795 L554.252 515.795 L550.252 515.795 L546.252 515.795 L542.252 515.795 L538.252 515.795 L534.252 515.795 L530.252 515.795 L526.252 515.795 L522.252 515.795 L518.252 515.795 L514.252 515.795 L510.252 515.795 L506.252 515.795 L502.252 515.795 L498.252 515.795 L494.252 515.795 L490.252 515.795 L486.252 515.795 L482.252 515.795 L478.252 515.795 L474.252 515.795 L470.252 515.795 L466.252 515.795 L462.252 515.795 L458.252 515.795 L454.252 515.795 L450.252 515.795 L446.252 515.795 L442.252 515.795 L438.252 515.795 L434.252 515.795 L430.252 515.795 L426.252 515.795 L422.252 515.795 L418.252 515.795 L414.252 515.795 L410.252 515.795 L406.252 515.795 L402.252 515.795 L398.252 515.795 L394.252 515.795 L390.252 515.795 L386.252 515.795 L382.252 515.795 L378.252 515.795 L374.252 515.795 L370.252 515.795 L366.252 515.795 L362.252 515.795 L358.252 515.795 L354.252 515.795 L350.252 515.795 L346.252 515.795 L342.252 515.795 L338.252 515.795 L334.252 515.795 L330.252 515.795 L326.252 515.795 L322.252 515.795 L318.252 515.795 L314.252 515.795 L310.252 515.795 L306.252 515.795 L302.252 515.795 L298.252 515.795 L294.252 515.795 L290.252 515.795 L286.252 515.795 L282.252 515.795 L278.252 515.795 L274.252 515.795 L270.252 515.795 L266.252 515.795 L262.252 515.795 L258.252 515.795 L254.252 515.795 L250.252 515.795 L246.252 515.795 L242.252 515.795 L238.252 515.795 L234.252 515.795 L230.252 515.795 L226.252 515.795 L222.252 515.795 L218.252 515.795 L214.252 515.795 L210.252 515.795 L206.252 515.795 L202.252 515.795 L199.417 515.795 L197.748 515.795" stroke="#000000" stroke-width="64.00" fill="none" stroke-linecap="round" stroke-linejoin="round" />
    <path id="path-2" d="M830.355 513.646 L830.355 509.646 L830.355 505.646 L830.355 501.646 L830.355 497.646 L830.355 493.646 L830.355 489.646 L830.355 485.646 L830.355 481.646 L830.355 477.646 L830.355 473.646 L830.355 469.646 L830.355 465.646 L830.355 461.646 L830.355 457.646 L830.355 453.646 L830.355 449.646 L830.355 445.646 L830.355 441.646 L830.355 437.646 L830.355 433.646 L830.355 429.646 L830.355 425.646 L830.355 421.646 L830.355 417.646 L830.355 413.646 L830.355 409.646 L830.355 405.646 L830.355 401.646 L830.355 397.646 L830.355 393.646 L830.355 389.646 L830.355 385.646 L830.355 381.646 L830.355 377.646 L830.355 373.646 L830.355 369.646 L830.355 365.646 L830.355 361.646 L830.355 357.646 L830.355 353.646 L830.355 349.646 L830.355 345.646 L830.355 341.646 L830.355 337.646 L830.355 333.646 L830.355 329.646 L830.355 325.646 L830.355 321.646 L830.355 317.646 L830.355 313.646 L830.355 309.646 L830.355 305.646 L830.355 301.646 L830.355 297.646 L830.355 293.646 L830.355 289.646 L830.355 285.646 L830.355 281.646 L830.355 277.646 L830.355 273.646 L830.355 269.646 L830.355 265.646 L830.355 261.646 L830.355 257.646 L830.355 253.646 L830.355 249.646 L830.355 245.646 L830.355 241.646 L830.355 237.646 L830.355 233.646 L830.355 229.646 L830.355 225.646 L830.355 221.646 L830.355 217.646 L830.355 213.646 L830.355 209.646 L830.355 205.646 L830.355 201.646 L830.355 197.646 L830.355 193.646 L830.355 189.646 L830.355 185.646 L830.355 181.646 L830.355 177.646 L830.355 173.646 L830.355 169.646 L830.355 165.646 L830.355 161.646 L830.355 157.646 L830.355 153.646 L830.355 149.646 L830.355 145.646 L830.355 141.646 L830.355 137.646 L830.355 133.646 L830.355 129.646 L830.355 125.646 L830.355 121.646 L830.355 117.646 L830.355 113.646 L830.355 109.646 L830.355 105.646 L830.355 101.646 L830.355 97.646 L830.355 93.646 L830.355 89.646 L830.355 85.646 L830.355 81.646 L830.355 77.646 L830.355 73.646 L830.355 69.646 L830.355 65.646 L830.355 61.646 L830.355 57.646 L830.355 53.646 L830.355 50.510 L830.355 48.238" stroke="#000000" stroke-width="64.00" fill="none" stroke-linecap="round" stroke-linejoin="round" />
    <path id="path-3" d="M193.799 47.360 L193.799 51.360 L193.799 55.360 L193.799 59.360 L193.799 63.360 L193.799 67.360 L193.799 71.360 L193.799 75.360 L193.799 79.360 L193.799 83.360 L193.799 87.360 L193.799 91.360 L193.799 95.360 L193.799 99.360 L193.799 103.360 L193.799 107.360 L193.799 111.360 L193.799 115.360 L193.799 119.360 L193.799 123.360 L193.799 127.360 L193.799 131.360 L193.799 135.360 L193.799 139.360 L193.799 143.360 L193.799 147.360 L193.799 151.360 L193.799 155.360 L193.799 159.360 L193.799 163.360 L193.799 167.360 L193.799 171.360 L193.799 175.360 L193.799 179.360 L193.799 183.360 L193.799 187.360 L193.799 191.360 L193.799 195.360 L193.799 199.360 L193.799 203.360 L193.799 207.360 L193.799 211.360 L193.799 215.360 L193.799 219.360 L193.799 223.360 L193.799 227.360 L193.799 231.360 L193.799 235.360 L193.799 239.360 L193.799 243.360 L193.799 247.360 L193.799 251.360 L193.799 255.360 L193.799 259.360 L193.799 263.360 L193.799 267.360 L193.799 271.360 L193.799 275.360 L193.799 279.360 L193.799 283.360 L193.799 287.360 L193.799 291.360 L193.799 295.360 L193.799 299.360 L193.799 303.360 L193.799 307.360 L193.799 311.360 L193.799 315.360 L193.799 319.360 L193.799 323.360 L193.799 327.360 L193.799 331.360 L193.799 335.360 L193.799 339.360 L193.799 343.360 L193.799 347.360 L193.799 351.360 L193.799 355.360 L193.799 359.360 L193.799 363.360 L193.799 367.360 L193.799 371.360 L193.799 375.360 L193.799 379.360 L193.799 383.360 L193.799 387.360 L193.799 391.360 L193.799 395.360 L193.799 399.360 L193.799 403.360 L193.799 407.360 L193.799 411.360 L193.799 415.360 L193.799 419.360 L193.799 423.360 L193.799 427.360 L193.799 431.360 L193.799 435.360 L193.799 439.360 L193.799 443.360 L193.799 447.360 L193.799 451.360 L193.799 455.360 L193.799 459.360 L193.799 463.360 L193.799 467.360 L193.799 471.360 L193.799 475.360 L193.799 479.360 L193.799 483.360 L193.799 487.360 L193.799 491.360 L193.799 495.360 L193.799 499.360 L193.799 503.360 L193.799 507.360 L193.799 510.417 L193.799 512.532" stroke="#000000" stroke-width="64.00" fill="none" stroke-linecap="round" stroke-linejoin="round" />
    <path id="path-4" d="M831.632 975.579 L831.632 971.579 L831.632 967.579 L831.632 963.579 L831.632 959.579 L831.632 955.579 L831.632 951.579 L831.632 947.579 L831.632 943.579 L831.632 939.579 L831.632 935.579 L831.632 931.579 L831.632 927.579 L831.632 923.579 L831.632 919.579 L831.632 915.579 L831.632 911.579 L831.632 907.579 L831.632 903.579 L831.632 899.579 L831.632 895.579 L831.632 891.579 L831.632 887.579 L831.632 883.579 L831.632 879.579 L831.632 875.579 L831.632 871.579 L831.632 867.579 L831.632 863.579 L831.632 859.579 L831.632 855.579 L831.632 851.579 L831.632 847.579 L831.632 843.579 L831.632 839.579 L831.632 835.579 L831.632 831.579 L831.632 827.579 L831.632 823.579 L831.632 819.579 L831.632 815.579 L831.632 811.579 L831.632 807.579 L831.632 803.579 L831.632 799.579 L831.632 795.579 L831.632 791.579 L831.632 787.579 L831.632 783.579 L831.632 779.579 L831.632 775.579 L831.632 771.579 L831.632 767.579 L831.632 763.579 L831.632 759.579 L831.632 755.579 L831.632 751.579 L831.632 747.579 L831.632 743.579 L831.632 739.579 L831.632 735.579 L831.632 731.579 L831.632 727.579 L831.632 723.579 L831.632 719.579 L831.632 715.579 L831.632 711.579 L831.632 707.579 L831.632 703.579 L831.632 699.579 L831.632 695.579 L831.632 691.579 L831.632 687.579 L831.632 683.579 L831.632 679.579 L831.632 675.579 L831.632 671.579 L831.632 667.579 L831.632 663.579 L831.632 659.579 L831.632 655.579 L831.632 651.579 L831.632 647.579 L831.632 643.579 L831.632 639.579 L831.632 635.579 L831.632 631.579 L831.632 627.579 L831.632 623.579 L831.632 619.579 L831.632 615.579 L831.632 611.579 L831.632 607.579 L831.632 603.579 L831.632 599.579 L831.632 595.579 L831.632 591.579 L831.632 587.579 L831.632 583.579 L831.632 579.579 L831.632 575.579 L831.632 571.579 L831.632 567.579 L831.632 563.579 L831.632 559.579 L831.632 555.579 L831.632 551.579 L831.632 547.579 L831.632 543.579 L831.632 540.301 L831.632 537.745" stroke="#000000" stroke-width="64.00" fill="none" stroke-linecap="round" stroke-linejoin="round" />
    <path id="path-5" d="M829.603 537.745 L829.603 533.745 L829.603 529.745 L829.603 525.745 L829.603 521.745 L829.603 517.745 L829.603 515.045 L829.603 513.646" stroke="#000000" stroke-width="64.00" fill="none" stroke-linecap="round" stroke-linejoin="round" />
    <path id="path-6" d="M193.986 512.532 L193.986 516.532 L193.986 520.532 L193.986 524.532 L193.986 528.532 L193.986 532.532 L193.986 536.532 L193.986 540.532 L193.986 544.532 L193.986 548.532 L193.986 552.532 L193.986 556.532 L193.986 560.532 L193.986 564.532 L193.986 568.532 L193.986 572.532 L193.986 576.532 L193.986 580.532 L193.986 584.532 L193.986 588.532 L193.986 592.532 L193.986 596.532 L193.986 600.532 L193.986 604.532 L193.986 608.532 L193.986 612.532 L193.986 616.532 L193.986 620.532 L193.986 624.532 L193.986 628.532 L193.986 632.532 L193.986 636.532 L193.986 640.532 L193.986 644.532 L193.986 648.532 L193.986 652.532 L193.986 656.532 L193.986 660.532 L193.986 664.532 L193.986 668.532 L193.986 672.532 L193.986 676.532 L193.986 680.532 L193.986 684.532 L193.986 688.532 L193.986 692.532 L193.986 696.532 L193.986 700.532 L193.986 704.532 L193.986 708.532 L193.986 712.532 L193.986 716.532 L193.986 720.532 L193.986 724.532 L193.986 728.532 L193.986 732.532 L193.986 736.532 L193.986 740.532 L193.986 744.532 L193.986 748.532 L193.986 752.532 L193.986 756.532 L193.986 760.532 L193.986 764.532 L193.986 768.532 L193.986 772.532 L193.986 776.532 L193.986 780.532 L193.986 784.532 L193.986 788.532 L193.986 792.532 L193.986 796.532 L193.986 800.532 L193.986 804.532 L193.986 808.532 L193.986 812.532 L193.986 816.532 L193.986 820.532 L193.986 824.532 L193.986 828.532 L193.986 832.532 L193.986 836.532 L193.986 840.532 L193.986 844.532 L193.986 848.532 L193.986 852.532 L193.986 856.532 L193.986 860.532 L193.986 864.532 L193.986 868.532 L193.986 872.532 L193.986 876.532 L193.986 880.532 L193.986 884.532 L193.986 888.532 L193.986 892.532 L193.986 896.532 L193.986 900.532 L193.986 904.532 L193.986 908.532 L193.986 912.532 L193.986 916.532 L193.986 920.532 L193.986 924.532 L193.986 928.532 L193.986 932.532 L193.986 936.532 L193.986 940.532 L193.986 944.532 L193.986 948.532 L193.986 952.532 L193.986 956.532 L193.986 960.532 L193.986 964.532 L193.986 968.532 L193.986 971.627 L193.986 973.817" stroke="#000000" stroke-width="64.00" fill="none" stroke-linecap="round" stroke-linejoin="round" />
    <path id="path-7" d="M829.539 537.745 L829.539 533.745 L829.539 529.745 L829.539 525.745 L829.539 521.745 L829.539 517.745 L829.539 513.955 L829.539 510.374" stroke="#000000" stroke-width="64.00" fill="none" stroke-linecap="round" stroke-linejoin="round" />
    <path id="path-8" d="M828.272 516.295 L828.272 520.295 L828.272 524.295 L828.272 528.295 L828.272 532.295 L828.272 535.445 L828.272 537.745" stroke="#000000" stroke-width="64.00" fill="none" stroke-linecap="round" stroke-linejoin="round" />
    <path id="path-9" d="M829.603 513.646 L829.603 517.646 L829.603 521.646 L829.603 525.646 L829.603 529.646 L829.603 533.646 L829.603 536.346 L829.603 537.745" stroke="#000000" stroke-width="64.00" fill="none" stroke-linecap="round" stroke-linejoin="round" />
  </g>
</svg>
